<?xml version="1.0" encoding="utf-8"?>
<!-- Uploaded to: SVG Repo, www.svgrepo.com, Generator: SVG Repo Mixer Tools -->
<svg width="800px" height="800px" viewBox="0 0 1024 1024" class="icon"  version="1.1" xmlns="http://www.w3.org/2000/svg"><path d="M822.389086 679.867985m-100.717263 0a100.717263 100.717263 0 1 0 201.434526 0 100.717263 100.717263 0 1 0-201.434526 0Z" fill="#FAE1DC" /><path d="M211.347504 679.867985m-100.717263 0a100.717263 100.717263 0 1 0 201.434526 0 100.717263 100.717263 0 1 0-201.434526 0Z" fill="#FAE1DC" /><path d="M525.740586 650.940435m-337.71151 0a337.71151 337.71151 0 1 0 675.42302 0 337.71151 337.71151 0 1 0-675.42302 0Z" fill="#FAE1DC" /><path d="M424.564716 787.887691l226.058221-4.586075s0.035278 116.909636-107.067213 116.944913c-111.018293 0.035278-118.991008-112.358838-118.991008-112.358838z" fill="#ECA78C" /><path d="M424.564716 787.852413s0.952493 9.419093 3.351362 19.085128h220.131602c2.328315-11.253523 2.575258-23.635925 2.575257-23.635925l-226.058221 4.550797zM543.626279 900.352362c39.546078 0 62.22951-16.545148 74.611913-29.668378l-158.748751-3.421918c15.627933 16.545148 42.19189 33.090295 84.136838 33.090296z" fill="#FFFFFF" /><path d="M982.866435 202.351741c0-77.998553-71.260551-141.251111-159.136804-141.251111-41.34523 0-78.880491 14.111-107.173046 37.041376-25.96424-16.36876-57.608158-26.070073-91.897888-26.070073-39.828298 0-76.128846 13.052675-104.033348 34.501395-27.904503-21.44872-64.20505-34.501395-104.033348-34.501395-29.35088 0-56.72622 7.161333-80.326869 19.47318-27.09312-19.014573-61.277018-30.444483-98.49478-30.444483-87.876253 0-159.136804 63.252558-159.136804 141.251111 0 68.261963 54.539015 125.199848 127.069556 138.393634v209.513074h643.24994V341.627313c75.917181-10.759638 133.913391-68.932236 133.913391-139.275572z" fill="#DDDDDD" /></svg>