<svg xmlns="http://www.w3.org/2000/svg" viewBox="0 0 300 300"><path fill="#3C1000" d="M259.2 266.9c.2-2.2-.6-4.4-2.1-6.1.7-1.2 1.1-2.5 1.1-4 .1-2.4-.9-4.7-2.7-6.3l-3.3-3c-1.2-1.1-2.8-1.8-4.5-2 0 0-.9-.1-2.3-.1-9.1 0-20.2 4.9-21.5 18.9-.5 5.5 1 10.4 4.4 14.1 5.5 6 14 6.6 17.4 6.6 1 0 1.6-.1 1.6-.1 2.7-.2 5.1-1.7 6.5-4.1 1.2-2.1 1.4-4.5.7-6.8l1.5-1.1c1.8-1.5 3-3.7 3.2-6z"/><path fill="#3C1000" d="M53.9 116.2c1 34.7 14.4 57.9 39.8 69.2 1.5 4.1 4.3 7.9 8.4 11.2-1.4-.1-2.4-.2-3-.4-2.4-2.7-6.4-6-11.2-6-2.8 0-5.4 1.1-7.4 3.1-1.4 1.4-2.4 3-2.9 4.8-3.3.9-6 2.7-7.9 5.1-1.9 2.4-3.8 6.7-2.2 13 2.6 10.1 11.6 17.2 22 17.2 7.8 0 14.9-4 20-11.2.4-.6 1-1.1 2.3-1.5.3-.1.5-.2.9-.2.3-.1.6-.1 1-.2h.1c.5-.1 1-.1 1.6-.1-2.6 8.1-4.1 16.1-4.1 22.7 0 5.3.9 9.9 2.8 13.9h-1.2c-8.3 0-14.5 5.3-16.9 14.5-2.8 10.7-3.6 17.4-.4 22.2 2.8 4.2 7.1 4.8 9.2 5.1.5.1 1 .2 1.2.2 1.9.7 4.8 1.3 13.6 1.3 10 0 22.6-.8 22.6-.8 1.7-.1 3.3-.7 4.6-1.8.9-.7 3.9-3.5 5.3-8.7 1.4 5.2 4.4 8 5.3 8.7 1.3 1.1 2.9 1.7 4.5 1.8.1 0 12.7.8 22.7.8 8.8 0 11.7-.6 13.6-1.3.2-.1.8-.2 1.2-.2 2.1-.3 6.4-.9 9.2-5.1 3.2-4.9 2.3-11.6-.4-22.2-2-7.6-6.5-12.5-12.6-14l.3-.6c.5-1.2 1-2.4 1.4-3.7.1-.3.2-.6.3-1.2.2-1 .5-2 .6-3.3.1-.4.1-.8.2-1.2.2-1.6.3-3.1.3-4.5 0-1 0-1.9-.1-2.9-.3-4.5-1.1-9.5-2.5-14.6 3 .6 3.9 1.3 4.3 2.5 3.8 10.2 12.3 16.5 22.1 16.5 8.4 0 16-4.6 20-11.9 3.6-6.6 1.9-11.7.6-14.2-1.3-2.4-3.3-4.3-5.9-5.9-.1-1.8-.6-3.7-1.6-5.4-2-3.3-5.3-5.2-9.2-5.2-3.6 0-7 1.6-9.5 3.3-2.2-.1-6.8-.8-15.6-4.3 9.8-5.5 15.4-12.8 15.9-20.9 22.5-13.1 33-37.1 31.9-73-.3-11-1.8-21.6-4.4-31.5 12.3-1.4 21.2-5.1 27.2-11.2 6.3-6.4 9-15.3 7.9-26.3-.4-4.4-2.8-8-6.6-10-2.4-1.3-5.2-1.9-8.8-1.9-8.4 0-21.2 3.7-37.8 10.9C209.3 13.7 184 .6 154.9 0h-2c-1.6 0-3.2 0-4.9.1-1.7.1-3.4.2-5.1.4-27.2 2.7-50.7 16-66.7 37.7C58.2 30.1 44.5 26 35.6 26c-3.6 0-6.4.6-8.8 1.9-3.8 2.1-6.2 5.6-6.6 10-1.1 11 1.6 19.9 7.9 26.3 6.5 6.5 16.4 10.3 30.3 11.4-3.4 12.8-4.9 26.4-4.5 40.6z"/><path fill="#3C1000" d="M235.5 267.7h-.3c-.9-.1-21.1-2.1-26.6-16.4-4-10.3-20.1-4.9-20.3-4.8-1.4.5-3-.3-3.5-1.7s.3-3 1.7-3.5c7.3-2.5 22.5-4.1 27.2 8 4.3 11.1 21.9 12.9 22 12.9 1.5.1 2.6 1.5 2.5 3-.1 1.4-1.3 2.5-2.7 2.5z"/><path fill="#4C3E37" d="M246.6 253.6s-13.5-1.5-14.6 11.3c-1.2 12.9 14.6 11.7 14.6 11.7l-2.5-5.2 6.8-5.1-5.9-5.8 4.9-3.9-3.3-3z"/><path fill="#3C1000" d="M245.6 279.4c-2.7 0-9.4-.5-13.4-4.8-2.3-2.5-3.3-5.9-2.9-9.9.9-10.2 8.9-13.9 16-13.9 1 0 1.6.1 1.6.1.6.1 1.1.3 1.5.7l3.3 3c.6.5.9 1.3.9 2.1s-.4 1.6-1 2.1l-2.5 2 3.7 3.7c.6.6.9 1.3.8 2.1-.1.8-.5 1.5-1.1 2l-5 3.8 1.5 3.2c.4.8.3 1.8-.1 2.5-.5.8-1.3 1.3-2.2 1.4.1-.1-.3-.1-1.1-.1zm-.3-23.1c-4.5 0-9.9 1.5-10.6 8.9-.2 2.5.3 4.3 1.5 5.7 1.5 1.6 3.9 2.4 6 2.8l-.5-1.1c-.6-1.2-.2-2.6.8-3.3l4.3-3.2-3.7-3.6c-.6-.5-.9-1.3-.8-2.1 0-.8.4-1.5 1-2l2.4-1.9-.2-.2h-.2z"/><path fill="#FFF" d="M225 217s5.9-2.3 3.7-5.8c-2.1-3.5-8.7 1.9-8.7 1.9-10.2 2.4-37.2-11.2-46.9-16.4-5.3-6.3-11.5-10.5-18.1-10.5-8.1 0-15.5 6.2-21.5 15-13.3 2.8-32.2 5.8-39.3 2 0 0-5-6.9-8-4-2.9 2.9 2.2 6.6 2.2 6.6s-15.8-2.8-13 8.5c2.9 11.2 18.3 16.3 27.4 3.3 5-7.2 14.7-5.6 24.4-5.1-4.8 10.4-7.6 21.8-7.6 30.4 0 12.8 6.5 18.4 16.2 20.8 1 5.9 1.8 13 .1 12.6-3-.7-26.7-23-31.9-3-5.2 20-.4 15.9 4.8 17.8 5.2 1.9 33 0 33 0s1.9-1.5 2.6-4.8c.6-2.7.3-16.1.2-21.2 3.3.3 6.8.3 10.5.3 1.6 0 3.2 0 4.8-.1-.1 6.4-.3 18.5.2 21 .7 3.3 2.6 4.8 2.6 4.8s27.8 1.9 33 0c5.2-1.9 10 2.2 4.8-17.8s-28.9 2.2-31.9 3c-1.6.4-1-5.9-.1-11.6 12.9-1.5 22-6.6 22-21.8 0-7.7-2.3-17.7-6.3-27.2 9.5 1.6 20.4 0 23.9 9.3 5.6 14.8 21.8 13.7 27.3 3.6C241 218.3 225 217 225 217z"/><path fill="#3C1000" d="M184.7 294.5c-9.7 0-22.2-.8-22.3-.8-.6 0-1.1-.2-1.5-.6-.3-.2-2.6-2.2-3.6-6.4-.4-1.9-.5-8.2-.3-18.8-3.5 0-6.9 0-9.7-.1.2 7.9.2 16.5-.3 18.9-.9 4.2-3.3 6.1-3.6 6.4-.4.3-1 .6-1.5.6-.1 0-12.5.8-22.3.8-8.1 0-10.6-.6-11.8-1-.7-.3-1.5-.4-2.3-.5-1.8-.3-4-.6-5.4-2.7-1.8-2.7-1.5-7.6 1.1-17.8 2.2-8.6 7.5-10.4 11.6-10.4 7.3 0 15.7 5.9 20.8 9.4.1.1.2.2.4.3-.1-1.3-.3-3.3-.7-6.1-11.1-3.3-16.6-10.8-16.6-23 0-8 2.3-18.2 6.3-27.9-2.2-.1-4.3-.3-6.3-.3-6.1 0-9.5 1.3-11.7 4.4-4 5.7-9.5 8.9-15.5 8.9-7.9 0-14.7-5.4-16.7-13.1-.9-3.4-.5-6.1 1.2-8.3 1.8-2.3 4.7-3.5 8.8-3.8-.1-.4-.2-.8-.2-1.2-.1-1.6.5-3.2 1.7-4.4 1-1 2.2-1.5 3.6-1.5 3.5 0 6.7 3.5 8.1 5.2 1.4.6 4 1.2 8.7 1.2 8.3 0 19.1-1.9 27.2-3.5 7.1-10 15-15.2 23.1-15.2 6.8 0 13.6 3.8 19.9 11 7.7 4.1 31.3 16.2 42.4 16.2.6 0 1.1 0 1.6-.1 1.4-1 4.7-3.2 7.7-3.2 2 0 3.6.9 4.6 2.5.9 1.5 1.1 3.1.6 4.7-.1.4-.3.7-.5 1.1 2.8.9 5.8 2.5 7.3 5.3 1 1.8 1.7 4.8-.6 8.9-3.1 5.6-8.9 9-15.2 9-7.6 0-14-4.8-17-12.9-2-5.4-7.1-6.1-15.1-6.8-.7-.1-1.3-.1-2-.2 3.1 8.5 4.8 17.1 4.8 24 0 18.1-12.2 22.7-22.4 24.2-.3 2.1-.5 3.7-.5 4.8.1-.1.3-.2.4-.3 5-3.5 13.5-9.4 20.8-9.4 4.1 0 9.4 1.8 11.6 10.4 2.7 10.3 3 15.1 1.1 17.8-1.4 2.1-3.6 2.5-5.4 2.7-.8.1-1.6.2-2.3.5-1.5.6-4 1.1-12.1 1.1zm-20.8-6.2c3.2.2 12.9.7 20.8.7 7.3 0 9.4-.5 9.9-.7 1.2-.4 2.4-.6 3.3-.7.6-.1 1.5-.2 1.7-.4.3-.4.9-2.4-1.9-13.4-1.4-5.6-4.1-6.3-6.3-6.3-5.6 0-13.4 5.5-17.6 8.4-2.5 1.8-3.6 2.5-4.6 2.8-.2.1-.6.1-.8.1-.9 0-1.8-.4-2.5-1.2-1-1.2-1.8-3.2-.2-13.6.2-1.2 1.2-2.1 2.4-2.3 13.9-1.7 19.6-7.2 19.6-19.1 0-7.3-2.3-17.1-6-26.2-.4-.9-.2-2 .4-2.7.6-.8 1.6-1.2 2.6-1 2 .3 4.2.5 6.3.7 7.7.7 16.4 1.5 19.7 10.3 2.3 6 6.6 9.4 11.9 9.4 4.4 0 8.4-2.4 10.5-6.2 1.3-2.4.7-3.4.6-3.7-1.3-2.3-6.5-3.5-8.9-3.6-1.3-.1-2.3-1.1-2.5-2.3-.2-1.3.5-2.5 1.7-2.9 1.2-.5 2.4-1.4 2.5-1.8-1.1 0-3.5 1.4-4.7 2.5-.3.3-.7.4-1.1.5-1 .2-2.1.4-3.4.4-12.2 0-35.8-11.9-45.4-17.1-.3-.2-.6-.4-.8-.6-3.7-4.3-9.4-9.5-16-9.5-8.1 0-15 7.5-19.2 13.8-.4.6-1 1-1.7 1.1-8.3 1.8-20.2 3.8-29.3 3.8-5.3 0-9.1-.7-11.8-2.1-.4-.2-.7-.5-.9-.8-1.3-1.8-3.3-3.5-4.1-3.6.1.4 1 1.6 2.1 2.4 1 .8 1.4 2.1.9 3.3-.5 1.2-1.7 1.8-3 1.6 0 0-1.5-.3-3.5-.3-3 0-5.3.6-6.1 1.7-.6.7-.7 2-.2 3.6 1.3 5.2 6.1 8.9 11.4 8.9 4.2 0 8.1-2.3 11-6.5 4.2-6 10.9-6.7 16.2-6.7 2.3 0 4.8.2 7.2.3 1.1.1 2.2.1 3.4.2.9 0 1.7.5 2.2 1.3.5.8.5 1.7.1 2.6-4.5 9.9-7.4 21.1-7.4 29.2 0 10.3 4.2 15.7 14.2 18.1 1.1.3 1.9 1.1 2.1 2.2 1.9 11.3 1.1 13.4 0 14.6-.6.7-1.5 1.2-2.5 1.2-.2 0-.6 0-.8-.1-1-.3-2.1-1-4.6-2.8-4.2-3-12.1-8.4-17.6-8.4-2.2 0-4.9.7-6.3 6.3-2.8 11-2.2 13.1-1.9 13.4.2.1 1.1.3 1.7.3.9.1 2.1.3 3.3.7.6.2 2.6.7 9.9.7 7.9 0 17.6-.6 20.8-.7.4-.5.9-1.4 1.2-2.8.3-1.6.4-9.8.1-20.6 0-.8.3-1.5.9-2.1.6-.5 1.3-.8 2.1-.7 2.9.2 6.2.3 10.3.3 1.6 0 3.2 0 4.8-.1.7 0 1.5.3 2 .8s.8 1.2.8 2c-.3 13.2-.1 19.1.1 20.3 0 1.7.5 2.6.9 3.1z"/><path fill="#4C3E37" d="M188.3 265.3c.7-.1 1.4-.2 2-.3-.7 0-1.4.1-2 .3z"/><path fill="#3C1000" d="M188.3 268c-1.3 0-2.4-.9-2.7-2.2-.3-1.4.6-2.8 2.1-3.1.8-.2 1.6-.3 2.4-.4 1.5-.1 2.7.9 3 2.3.2 1.4-.7 2.8-2.1 3.1-.7.2-1.5.3-2.3.4-.2-.1-.3-.1-.4-.1z"/><path fill="#4C3E37" d="M175.6 263.3c9-2.6 14.9-8.2 14.9-20.4 0-6.5-1.7-14.8-4.6-22.9h-.5c-12.6 0-22.8 10.2-22.8 22.8 0 9 5.3 16.8 13 20.5z"/><path fill="#3C1000" d="M175.6 266c-.4 0-.8-.1-1.2-.3-8.8-4.2-14.5-13.3-14.5-23 0-14.1 11.5-25.5 25.5-25.5h.5c1.1.1 2.3.8 2.6 1.8 3.1 8.6 4.8 17.1 4.8 23.8 0 12.3-5.5 19.9-16.9 23.1-.3 0-.6.1-.8.1zm8.3-43.3c-10.4.8-18.6 9.5-18.6 20 0 7.3 4.1 14.1 10.5 17.6 8.2-2.7 11.9-8.1 11.9-17.5 0-5.6-1.3-12.9-3.8-20.1z"/><path fill="#4C3E37" d="M133.5 201.1c-6.7 1.4-14.9 2.9-22.3 3.5-1.1 2.6-1.8 5.4-1.9 8.3 5.1-1.6 11.5-.8 17.9-.4-3.2 6.9-5.5 14.3-6.7 21 3.4 2 7.4 3.2 11.6 3.2 12.6 0 22.8-10.2 22.8-22.8 0-9.6-5.9-17.7-14.2-21.1-2.7 2.2-5 5.1-7.2 8.3z"/><path fill="#3C1000" d="M132 239.4c-4.5 0-9-1.2-13-3.6-1-.6-1.5-1.7-1.3-2.8 1-5.8 2.9-12.1 5.3-18-2.2-.1-4.3-.3-6.3-.3-2.8 0-5 .3-6.7.8-.8.3-1.8.1-2.5-.4s-1.1-1.4-1.1-2.3c.1-3.2.9-6.4 2.2-9.3.4-.9 1.3-1.5 2.3-1.6 5.9-.5 12.9-1.6 20.9-3.2 2.2-3.1 4.5-5.7 6.9-7.9.8-.7 1.9-.9 2.9-.5 9.7 3.9 15.9 13.2 15.9 23.7.1 13.9-11.4 25.4-25.5 25.4zm-8.5-7.4c2.7 1.3 5.6 1.9 8.5 1.9 11.1 0 20.1-9 20.1-20.1 0-7.6-4.2-14.5-11-17.9-1.9 1.9-3.7 4.1-5.4 6.7-.4.6-1 1-1.7 1.1-7.9 1.7-15 2.8-20.9 3.4-.3.8-.5 1.5-.7 2.3 3.2-.4 7.5-.2 11.5.1 1.1.1 2.2.1 3.3.2.9 0 1.7.5 2.2 1.3.5.8.5 1.7.1 2.6-2.6 5.9-4.7 12.3-6 18.4z"/><path fill="#FFF" d="M62.1 115.9C60.3 52.3 99 10.7 148.4 8.3c49.4-2.4 90.7 35.3 92.5 98.9 1.9 63.6-33.4 75.7-82.7 78.2-49.4 2.4-94.2-5.8-96.1-69.5z"/><path fill="#3C1000" d="M144.3 188.4c-38.6 0-83-8.2-84.9-72.4C57.6 53.6 94.1 8.2 148.3 5.6c1.5-.1 3.1-.1 4.6-.1 51.7 0 89 41.8 90.8 101.6 1.9 63.6-32.8 78.4-85.3 81-5.1.2-9.7.3-14.1.3zm8.6-177.5c-1.4 0-2.9 0-4.3.1-51 2.5-85.4 45.6-83.7 104.8 1.4 47 25.1 67.1 79.5 67.1 4.3 0 8.8-.1 13.7-.4 50.7-2.5 81.9-16 80.1-75.4-1.7-56.6-36.7-96.2-85.3-96.2z"/><path fill="#3C1000" d="M204.1 125.6c.3 6.8-5 12.5-11.8 12.8-6.8.3-12.5-5-12.8-11.8-.3-6.8 5-12.5 11.9-12.8 6.7-.3 12.4 5 12.7 11.8z"/><circle transform="matrix(.9993 -.03855 .03855 .9993 -4.68 7.667)" fill="#FFF" cx="196.5" cy="125.2" r="4.8"/><circle transform="rotate(-2.219 113.47 125.202) scale(1.00005)" fill="#3C1000" cx="113.5" cy="125.2" r="12.3"/><path fill="#FFF" d="M124.3 124.1c.1 2.6-2 4.8-4.6 4.9-2.6.1-4.8-2-5-4.6-.1-2.6 1.9-4.9 4.6-5 2.7 0 4.9 2 5 4.7zm86.3-70.4s59.5-30.9 61.1-14.9c1.6 16-4.9 32.9-54.9 28.5"/><path fill="#3C1000" d="M231.8 70.7c-4.7 0-9.8-.2-15.3-.7-1.5-.1-2.6-1.5-2.5-3 .1-1.5 1.4-2.6 3-2.5 24 2.1 39.8-.6 47.1-7.9 4.1-4.1 5.6-9.7 4.8-17.5-.1-.9-.4-1.2-.9-1.5-7.3-4-38.3 9.3-56.1 18.5-1.3.7-3 .2-3.7-1.2-.7-1.3-.2-3 1.2-3.7 8.1-4.2 49.3-25 61.3-18.5 2.2 1.2 3.5 3.2 3.8 5.8.9 9.5-1.2 16.6-6.4 21.9-6.9 6.9-18.8 10.3-36.3 10.3z"/><ellipse fill="#F2A5A2" cx="154.9" cy="178.9" rx="54.2" ry="23.9"/><path fill="#3C1000" d="M154.9 205.5c-31.9 0-56.9-11.7-56.9-26.6 0-14.9 25-26.6 56.9-26.6s56.9 11.7 56.9 26.6c-.1 14.9-25.1 26.6-56.9 26.6zm0-47.8c-30.8 0-51.4 11-51.4 21.2s20.7 21.2 51.4 21.2 51.4-11 51.4-21.2-20.7-21.2-51.4-21.2z"/><path fill="#4C3E37" d="M160.1 8.5c-3.8-.3-7.7-.4-11.7-.2-48 2.4-86 41.8-86.3 102.5 6.1 1.3 12.5 2 19 2 46.5 0 84.1-34.7 84.1-77.6 0-9.3-1.8-18.4-5.1-26.7z"/><path fill="#3C1000" d="M81.1 115.6c-6.5 0-13.1-.7-19.6-2.1-1.3-.3-2.2-1.4-2.2-2.7.3-59.4 36.9-102.7 89-105.2 4-.2 8-.1 12 .2 1 .1 1.9.7 2.3 1.7 3.5 8.9 5.3 18.2 5.3 27.8 0 44.2-38.9 80.3-86.8 80.3zm-16.3-7c5.4 1 10.8 1.5 16.2 1.5 44.9 0 81.4-33.6 81.4-74.9 0-8.3-1.5-16.4-4.3-24.1-3.2-.2-6.4-.2-9.6-.1-48.3 2.4-82.5 42.4-83.7 97.6z"/><path fill="#FFF" d="M89.4 53.7S29.9 22.8 28.3 38.8c-1.6 16 4.9 32.9 54.9 28.5"/><path fill="#3C1000" d="M68.2 70.7c-17.5 0-29.4-3.4-36.2-10.3-5.2-5.3-7.3-12.4-6.4-21.9.3-2.6 1.6-4.6 3.8-5.8 12-6.5 53.1 14.3 61.3 18.5 1.3.7 1.9 2.3 1.2 3.7-.7 1.3-2.3 1.9-3.7 1.2C70.3 46.8 39.3 33.6 32 37.5c-.5.3-.9.6-.9 1.5-.8 7.9.8 13.4 4.8 17.5 7.3 7.4 23.2 10 47.1 7.9 1.6-.1 2.8 1 3 2.5.1 1.5-1 2.8-2.5 3-5.5.5-10.6.8-15.3.8z"/><ellipse fill="#4C3E37" cx="126.8" cy="182.6" rx="7.9" ry="7.8"/><path fill="#3C1000" d="M126.8 193.2c-5.8 0-10.6-4.7-10.6-10.6 0-5.8 4.7-10.6 10.6-10.6 5.8 0 10.6 4.7 10.6 10.6-.1 5.9-4.8 10.6-10.6 10.6zm0-15.7c-2.8 0-5.1 2.3-5.1 5.1s2.3 5.1 5.1 5.1 5.1-2.3 5.1-5.1-2.3-5.1-5.1-5.1z"/><ellipse fill="#4C3E37" cx="184.3" cy="182.6" rx="7.9" ry="7.8"/><path fill="#3C1000" d="M184.3 193.2c-5.8 0-10.6-4.7-10.6-10.6 0-5.8 4.7-10.6 10.6-10.6 5.8 0 10.6 4.7 10.6 10.6 0 5.9-4.7 10.6-10.6 10.6zm0-15.7c-2.8 0-5.1 2.3-5.1 5.1s2.3 5.1 5.1 5.1 5.1-2.3 5.1-5.1c.1-2.8-2.2-5.1-5.1-5.1z"/><path fill="#FCCF00" d="M154.9 214c-17 0-30.8-13.8-30.8-30.8 0-1.5 1.2-2.7 2.7-2.7 1.5 0 2.7 1.2 2.7 2.7 0 14 11.4 25.4 25.4 25.4 14 0 25.4-11.4 25.4-25.4 0-1.5 1.2-2.7 2.7-2.7 1.5 0 2.7 1.2 2.7 2.7 0 17-13.9 30.8-30.8 30.8z"/><path fill="#3C1000" d="M154.9 215.3c-17.7 0-32.1-14.4-32.1-32.1 0-2.2 1.8-4 4-4s4 1.8 4 4c0 13.3 10.8 24.1 24.1 24.1s24.1-10.8 24.1-24.1c0-2.2 1.8-4 4-4s4 1.8 4 4c0 17.7-14.4 32.1-32.1 32.1zm-28.1-33.5c-.8 0-1.4.6-1.4 1.4 0 16.3 13.2 29.5 29.5 29.5s29.5-13.2 29.5-29.5c0-.8-.6-1.4-1.4-1.4-.8 0-1.4.6-1.4 1.4 0 14.7-12 26.7-26.7 26.7s-26.7-12-26.7-26.7c0-.8-.7-1.4-1.4-1.4z"/></svg>