<svg xmlns="http://www.w3.org/2000/svg" viewBox="0 0 300 300"><path fill="#3C1000" d="M58.6 280.2c.9.2 1.9.3 2.8.2h1.2c8.1 0 16-2.6 22.4-7.1-2 8.9-2.3 14.9.7 19.4 3 4.6 7.8 5.3 10.1 5.6.5.1 1.1.2 1.3.2 2.1.7 5.3 1.4 14.9 1.4 11 0 24.7-.9 24.8-.9 1.8-.1 3.6-.8 5-1.9 1-.8 4.3-3.8 5.8-9.5 1.5 5.7 4.8 8.7 5.8 9.5 1.4 1.2 3.2 1.8 5 1.9.1 0 13.9.9 24.8.9 9.6 0 12.8-.7 14.9-1.4.2-.1.9-.2 1.3-.2 2.3-.3 7-1 10-5.6 3.5-5.3 2.6-12.7-.5-24.3-2.1-8.2-7-13.6-13.7-15.3 2.1-4.4 3.2-9.7 3.2-15.8 0-5.7-1-12.3-2.8-19.2 3.3.6 4.2 1.4 4.7 2.8 4.2 11.1 13.5 18 24.2 18 9.1 0 17.5-5 21.9-13 4-7.2 2.1-12.8.6-15.5-1.4-2.6-3.6-4.7-6.4-6.4-.1-2-.7-4-1.8-5.9-2.2-3.6-5.9-5.7-10.1-5.7-3.9 0-7.6 1.8-10.4 3.7-3.6-.1-9.3-1.7-16.6-4.5 9.2-2.1 17.1-4.9 23.7-8.4 3.1 1.7 6.7 2.6 10.3 2.6 8.6 0 16.3-5 19.6-12.4 8.7-2.6 14.8-10.4 14.8-19.4 0-3.5-.9-6.9-2.7-9.8 1.7-3 2.7-6.4 2.7-9.8 0-8.6-5.7-16.1-13.8-19.1-.7-7.7-2.3-15.3-4.7-22.6 28.2-19.8 14.7-78.2 13-85.1-.6-2.6-2.3-4.7-4.7-5.9-2.3-1.2-5-1.8-8.1-1.8-11.5 0-31.5 9.4-59.6 28-13.1-5.6-27-8.5-41.2-8.6h-5.2c-13 .5-25.6 3.3-37.5 8.3C80.6 9.4 60.6 0 49.2 0c-3 0-5.7.6-8.1 1.8C38.8 3 37 5.1 36.4 7.7 34.7 14.4 21.5 72 48.8 92.3c-2.5 7.6-4.2 15.5-4.9 23.4-7.7 3.2-12.8 10.4-12.8 18.7 0 3.5.9 6.9 2.7 9.8-1.7 3-2.7 6.4-2.7 9.8 0 9 6.1 16.8 14.8 19.4 3.3 7.4 11 12.4 19.6 12.4.6 0 1.2 0 1.7-.1-.5.9-.9 1.8-1.2 2.7-3.6 1-6.5 2.9-8.6 5.6-2.1 2.7-4.2 7.3-2.4 14.2A24.81 24.81 0 0079.1 227c1.6 0 3.2-.2 4.8-.5-8.7 3.4-15 8.8-18.5 15.9-.6-3.5-2.2-6.7-4.7-9.2-3.3-3.5-7.9-5.4-12.9-5.6-9.6 0-17.7 7.8-18 17.4-.6 21.4 13.2 32 25.2 34.6 1.2.2 2.3.4 3.6.6zm42.3-65.3c.5-.8 1.4-2 6.4-2.2-1.1 3.3-1.9 6.5-2.6 9.8-5.6.4-10.7 1.2-15.2 2.4 4.3-2.1 8.2-5.5 11.4-10z"/><path fill="#FBC600" d="M62.6 271.4c-1.9 0-3.8-.2-5.7-.6-9.1-2-18.6-9.7-18.2-25.4.1-4.9 4.3-8.8 9.2-8.7 4.9.1 8.8 4.3 8.7 9.2-.2 6.5 2.8 7.1 4.1 7.4 4.5 1 10.5-1.8 12.1-5.6 8.2-19.5 43-16.8 49.9-16 4.9.5 8.5 4.9 8 9.9-.5 4.9-5 8.5-9.9 7.9-14.4-1.5-29.7 1-31.5 5.1-4.2 10.1-15.4 16.8-26.7 16.8z"/><path fill="#3C1000" d="M62.6 274.4c-2.1 0-4.3-.2-6.3-.7-10.3-2.2-21.1-10.8-20.6-28.4.2-6.4 5.6-11.6 12-11.6 6.9.2 12.1 5.7 11.9 12.3-.1 4 1 4.3 1.7 4.4 3 .6 7.7-1.5 8.7-3.9 6.4-15.2 26.2-18.4 41.8-18.4 5.1 0 9.2.4 11.2.6 3.2.3 6 1.9 8 4.4 2 2.5 2.9 5.6 2.6 8.8-.7 6.5-6.5 11.3-13.1 10.6-2.7-.3-5.5-.4-8.4-.4-12.2 0-19.2 2.5-20.1 3.8-4.5 10.9-16.7 18.5-29.4 18.5zm-14.8-34.7c-3.3 0-6 2.6-6.1 5.8-.5 17.5 12 21.6 15.9 22.4 1.6.4 3.3.5 5 .5 10.2 0 20.3-6.3 24-15 3-7.1 21.8-7.4 25.5-7.4 3 0 6.1.2 9 .5 3.3.4 6.2-2.1 6.6-5.3.2-1.6-.3-3.1-1.3-4.4-1-1.2-2.4-2-4-2.2-1.9-.2-5.7-.5-10.6-.5-11.2 0-30.9 1.9-36.3 14.8-1.8 4.3-7.5 7.6-12.9 7.6-.9 0-1.7-.1-2.5-.3-4.4-1-6.6-4.5-6.4-10.4 0-1.6-.5-3.1-1.6-4.3-1.2-1.1-2.7-1.8-4.3-1.8z"/><path fill="#FBC600" d="M227.2 209.2s6.4-2.5 4.1-6.4c-2.3-3.9-9.5 2-9.5 2-11.2 2.7-40.6-12.3-51.3-18-5.8-6.9-12.6-11.5-19.8-11.5-8.8 0-17 6.8-23.5 16.4-14.5 3.1-35.2 6.3-43 2.2 0 0-5.5-7.5-8.7-4.3-3.2 3.2 2.4 7.2 2.4 7.2s-17.3-3-14.2 9.2c3.1 12.3 20 17.8 29.9 3.6 5.5-7.9 16.1-6.1 26.6-5.5-5.2 11.4-8.3 23.9-8.3 33.2 0 14 7.1 20.2 17.8 22.7 1.1 6.5 2 14.2.1 13.8-3.2-.8-29.2-25.1-34.8-3.2-5.7 21.9-.4 17.4 5.3 19.4s36.1 0 36.1 0 2-1.6 2.8-5.3c.7-2.9.3-17.6.2-23.2 3.6.3 7.5.4 11.5.4 1.8 0 3.5 0 5.3-.1-.2 7-.4 20.3.2 22.9.8 3.6 2.8 5.3 2.8 5.3s30.4 2 36 0c5.7-2 10.9 2.4 5.3-19.4-5.7-21.9-31.6 2.4-34.8 3.2-1.8.4-1.1-6.4-.1-12.6 14.1-1.7 24.1-7.2 24.1-23.9 0-8.4-2.5-19.4-6.8-29.8 10.4 1.7 22.3 0 26.1 10.2 6.1 16.2 23.8 15 29.9 3.9 5.8-11-11.7-12.4-11.7-12.4z"/><path fill="#3C1000" d="M183.2 294c-10.7 0-24.2-.9-24.4-.9-.6 0-1.2-.3-1.7-.6-.3-.2-2.9-2.4-3.9-7-.2-.8-.7-3.1-.4-20.5h-2.2c-3.2 0-5.9-.1-8.4-.2.3 11.6.2 18.5-.3 20.7-1 4.5-3.6 6.7-3.9 7-.5.4-1.1.6-1.7.6-.1 0-13.7.9-24.4.9-8.8 0-11.6-.6-12.9-1.1-.8-.3-1.6-.4-2.5-.5-1.9-.3-4.4-.6-5.9-3-2-3-1.7-8.3 1.3-19.5 2.4-9.4 8.2-11.3 12.7-11.3 8 0 17.2 6.5 22.7 10.3.1.1.3.2.4.3-.1-1.5-.3-3.6-.8-6.6-12.2-3.6-18.1-11.8-18.1-25.1 0-8.7 2.5-19.9 6.9-30.5-2.4-.2-4.7-.3-6.9-.3-6.7 0-10.4 1.4-12.8 4.8-4.4 6.2-10.4 9.7-17 9.7-8.6 0-16.1-5.9-18.3-14.3-.9-3.7-.5-6.7 1.3-9.1 1.9-2.5 5.2-3.9 9.6-4.2-.1-.4-.2-.8-.2-1.3-.1-1.8.5-3.4 1.9-4.8 1.1-1.1 2.5-1.6 4-1.6 3.8 0 7.3 3.8 8.8 5.7 1.5.6 4.4 1.3 9.6 1.3 9.1 0 20.9-2 29.7-3.8 7.7-10.9 16.5-16.7 25.3-16.7 7.4 0 14.9 4.2 21.7 12.1 8.4 4.5 34.2 17.7 46.3 17.7.6 0 1.2 0 1.8-.1 1.5-1.1 5.1-3.5 8.4-3.5 2.1 0 3.9 1 5 2.8 1 1.6 1.2 3.4.6 5.1-.1.4-.3.8-.5 1.2 3.1 1 6.4 2.8 8 5.8 1.1 2 1.8 5.3-.6 9.8-3.3 6.1-9.7 9.9-16.7 9.9-8.3 0-15.3-5.3-18.6-14.2-2.2-5.9-7.7-6.7-16.5-7.4-.7-.1-1.5-.1-2.2-.2 3.4 9.3 5.2 18.7 5.2 26.2 0 19.8-13.3 24.8-24.5 26.5-.3 2.3-.5 4-.6 5.2.1-.1.3-.2.4-.3 5.5-3.9 14.7-10.3 22.7-10.3 4.4 0 10.2 2 12.7 11.3 2.9 11.2 3.2 16.5 1.3 19.5-1.6 2.3-4 2.7-5.9 3-.9.1-1.7.2-2.5.5-1.5.4-4.2 1-13 1zm-22.8-6.8c3.5.2 14.2.8 22.8.8 8 0 10.2-.5 10.9-.7 1.3-.5 2.6-.7 3.6-.8.6-.1 1.6-.2 1.8-.4.3-.4 1-2.7-2.1-14.7-1.6-6.1-4.5-6.9-6.9-6.9-6.1 0-14.7 6-19.3 9.2-2.8 1.9-3.9 2.7-5.1 3-.2.1-.6.1-.9.1-1 0-2-.5-2.7-1.3-1.1-1.3-2-3.5-.2-14.9.2-1.3 1.3-2.3 2.6-2.5 15.2-1.8 21.5-7.9 21.5-20.9 0-7.9-2.5-18.7-6.6-28.7-.4-1-.3-2.2.4-3 .7-.8 1.8-1.3 2.8-1.1 2.2.4 4.6.6 6.9.8 8.4.8 17.9 1.6 21.6 11.3 2.5 6.5 7.2 10.3 13 10.3 4.8 0 9.2-2.6 11.4-6.8 1.4-2.6.8-3.7.6-4.1-1.4-2.5-7.1-3.8-9.7-4-1.4-.1-2.5-1.2-2.7-2.5-.2-1.4.6-2.7 1.9-3.2 1.3-.5 2.6-1.5 2.7-2-1.2 0-3.8 1.6-5.2 2.7-.4.3-.8.5-1.2.6-1.1.3-2.4.4-3.7.4-13.4 0-39.2-13.1-49.7-18.7-.3-.2-.6-.4-.9-.7-4-4.7-10.3-10.4-17.5-10.4-8.9 0-16.4 8.2-21.1 15.1-.4.6-1.1 1.1-1.9 1.2-9.1 1.9-22.1 4.2-32.1 4.2-5.8 0-10-.7-12.9-2.3-.4-.2-.7-.5-1-.9-1.4-1.9-3.7-3.9-4.5-3.9.1.5 1.3 1.9 2.3 2.6 1.1.8 1.5 2.3 1 3.6-.5 1.3-1.9 2-3.3 1.8 0 0-1.7-.3-3.8-.3-3.3 0-5.8.7-6.7 1.9-.6.8-.7 2.1-.3 3.9 1.5 5.7 6.7 9.8 12.5 9.8 4.6 0 8.9-2.5 12.1-7.1 4.6-6.5 11.9-7.4 17.7-7.4 2.6 0 5.2.2 7.8.3 1.2.1 2.5.2 3.7.2 1 .1 1.9.6 2.4 1.4.5.8.6 1.9.2 2.8-5 10.8-8.1 23.1-8.1 32 0 11.3 4.6 17.2 15.5 19.8 1.2.3 2 1.2 2.2 2.4 2.1 12.4 1.2 14.6 0 16-.7.8-1.7 1.3-2.7 1.3-.2 0-.6 0-.9-.1-1.1-.3-2.3-1.1-5.1-3-4.6-3.2-13.2-9.2-19.3-9.2-2.4 0-5.3.8-6.9 6.9-3.1 12-2.4 14.3-2.1 14.7.2.1 1.2.3 1.8.4 1 .1 2.3.3 3.6.8.6.2 2.9.7 10.9.7 8.6 0 19.3-.6 22.8-.8.4-.6 1-1.5 1.3-3 .3-1.3.5-8 .1-22.5 0-.8.3-1.7.9-2.2.6-.6 1.5-.9 2.3-.8 3.2.2 6.7.4 11.2.4 1.8 0 3.5 0 5.2-.1.8 0 1.6.3 2.2.9.6.6.9 1.4.9 2.2-.3 14.4-.1 21 .1 22.2.9 1.7 1.4 2.7 1.9 3.2z"/><path fill="#FBC600" d="M255.1 144.2c3.7-2 6.2-5.6 6.2-9.8 0-6.3-5.5-11.4-12.3-11.4-.3 0-.7.1-1 .1v-1.3c-.5-11.8-3-23-7.3-33.3 32.1-11.1 15.4-78.7 15.4-78.7-10.4-5.2-44.2 15.9-62.9 28.5-14.1-6.9-30-10.4-46.8-9.8-13.9.5-27 3.9-38.7 9.6C88.9 25.4 55.4 4.6 45.1 9.8c0 0-16.4 66.6 14.7 78.4-4.5 10.8-7.2 22.5-7.5 34.8h-.1c-6.8 0-12.3 5.1-12.3 11.4 0 4.2 2.5 7.9 6.2 9.8-3.7 2-6.2 5.6-6.2 9.8 0 6.3 5.5 11.4 12.3 11.4.3 0 .5-.1.8-.1v.1c0 6.3 5.5 11.4 12.3 11.4 3.5 0 6.7-1.4 8.9-3.6 19.7 13.6 50.6 15.6 83.2 14.4 28.4-1.1 52.5-4.5 68.7-15.2 2.3 2.7 5.7 4.4 9.7 4.4 6.8 0 12.3-5.1 12.3-11.4v-.1c.3 0 .5.1.8.1 6.8 0 12.3-5.1 12.3-11.4.1-4.2-2.4-7.8-6.1-9.8z"/><path fill="#3C1000" d="M142.1 191c-31 0-52.6-4.5-67.6-14-2.6 1.8-5.8 2.8-9.1 2.8-7.4 0-13.6-5-15-11.5-7.6-.9-13.4-7-13.4-14.3 0-3.7 1.5-7.2 4.2-9.8-2.7-2.6-4.2-6.2-4.2-9.8 0-7 5.4-12.9 12.5-14.2.6-10.5 2.7-20.7 6.5-30.5C26.5 74.5 41.5 11.7 42.2 9c.2-.9.8-1.6 1.6-2 1.5-.6 3.3-1 5.4-1C62.3 6 88.1 21.4 108 34.6c12.1-5.6 25-8.6 38.3-9.2 16.4-.6 32.1 2.5 46.7 9.4C212.9 21.4 238.8 6 252 6c2.1 0 3.9.4 5.4 1.1.8.4 1.4 1.1 1.6 2 .7 2.8 16 66.5-14.5 81 3.7 9.6 5.8 19.7 6.3 30 7.6.9 13.4 7 13.4 14.3 0 3.7-1.5 7.2-4.2 9.8 2.7 2.6 4.2 6.1 4.2 9.8 0 7.3-5.9 13.4-13.4 14.3-1.4 6.6-7.6 11.5-15 11.5-3.7 0-7.3-1.3-10.1-3.6-18.3 11-44.6 13.5-68.2 14.4-5.5.3-10.5.4-15.4.4zm-67.8-20.6c.6 0 1.2.2 1.7.5 14 9.7 35 14.2 66.1 14.2 4.8 0 9.8-.1 15.3-.3 23.6-.9 50.1-3.4 67.2-14.7 1.3-.8 3-.6 3.9.6 1.8 2.1 4.5 3.3 7.4 3.3 5.1 0 9.3-3.7 9.4-8.3v-.2c0-.8.3-1.6.9-2.2.6-.6 1.4-.9 2.2-.8.2 0 .4 0 .5.1 5.2 0 9.4-3.8 9.4-8.4 0-3-1.7-5.7-4.6-7.2-1-.5-1.6-1.5-1.6-2.6s.6-2.1 1.6-2.6c2.9-1.6 4.6-4.2 4.6-7.2 0-4.6-4.2-8.4-9.4-8.4l-.7.1c-.8.1-1.6-.2-2.2-.7-.6-.5-1-1.3-1-2.1v-1.3c-.4-11.2-2.8-22-7.1-32.3-.3-.8-.3-1.6 0-2.4.3-.8 1-1.3 1.7-1.6 26.6-9.2 16.1-63.5 13.9-73.6-.5-.1-1-.1-1.5-.1-9.2 0-30.1 10.5-57.1 28.8-.9.6-2 .7-3 .2-14.2-6.9-29.4-10.1-45.4-9.5-13.1.5-25.8 3.6-37.6 9.3-1 .5-2.1.4-3-.2-26.8-18.4-47.5-28.9-56.7-28.9-.6 0-1.1 0-1.5.1-2.2 10-12.6 63.6 13.2 73.4.8.3 1.4.9 1.7 1.6.3.7.3 1.6 0 2.3-4.5 10.7-7 22.1-7.3 33.7 0 1.6-1.4 2.9-3 2.9h-.2c-5.1.1-9.2 3.8-9.2 8.4 0 3 1.7 5.7 4.6 7.2 1 .5 1.6 1.5 1.6 2.6s-.6 2.1-1.6 2.6c-2.9 1.5-4.6 4.2-4.6 7.2 0 4.7 4.2 8.4 9.4 8.4.2 0 .4-.1.6-.1.8-.1 1.6.2 2.2.8.6.6.9 1.4.9 2.2v.2c.1 4.6 4.2 8.3 9.4 8.3 2.6 0 5-1 6.8-2.7.6-.4 1.4-.6 2.1-.6z"/><path fill="#FFF" d="M192.7 151.8c0 16.8-17.2 21.6-38.8 21.6-21.6 0-39.5-4.8-39.5-21.6s17.5-30.4 39.2-30.4c21.5 0 39.1 13.6 39.1 30.4z"/><path fill="#FAD7B5" d="M164.7 136.5c.2 4.3-4.9 8.1-11.4 8.3-6.5.3-11.9-3.1-12-7.4-.2-4.4 4.9-8.1 11.4-8.3 6.5-.2 11.9 3.1 12 7.4z"/><path fill="#3C1000" d="M152.6 146.3c-7 0-12.6-3.9-12.8-8.8-.1-2.6 1.3-5.1 3.8-6.9 2.4-1.7 5.6-2.8 9-2.9 7.4-.3 13.3 3.7 13.5 8.8.1 2.6-1.2 5-3.8 6.9-2.4 1.7-5.6 2.8-9 2.9h-.7zm.8-15.8h-.6c-2.8.1-5.5.9-7.4 2.3-1.8 1.3-2.7 2.9-2.6 4.5.1 3.3 4.6 6.1 9.9 6.1h.6c2.8-.1 5.5-.9 7.4-2.4 1.8-1.3 2.7-2.9 2.6-4.5-.1-3.3-4.6-6-9.9-6zm53.9-12.8c.3 7.4-5.5 13.7-13 14-7.4.3-13.7-5.5-14-13-.3-7.4 5.5-13.7 13-14 7.4-.3 13.7 5.5 14 13z"/><circle transform="rotate(-2.204 107.228 121.536) scale(1.00004)" fill="#3C1000" cx="107.2" cy="121.5" r="13.5"/><circle transform="rotate(-87.557 88.833 152.768) scale(1.00001)" fill="#F096A0" cx="88.8" cy="152.8" r="13.1"/><path fill="#F096A0" d="M229.2 148.3c-.3 7.2-6.4 12.9-13.6 12.6-7.2-.3-12.8-6.4-12.5-13.7.3-7.2 6.4-12.9 13.6-12.6 7.2.3 12.8 6.4 12.5 13.7z"/><path fill="#FFF" d="M204.2 117c.1 2.9-2.1 5.3-5 5.4-2.9.1-5.3-2.1-5.4-5-.1-2.9 2.1-5.3 5-5.4 2.8-.1 5.3 2.1 5.4 5zm-85.1 3.3c.1 2.9-2.1 5.3-5 5.4-2.9.1-5.3-2.1-5.4-5-.1-2.9 2.1-5.3 5-5.4 2.8-.1 5.3 2.1 5.4 5z"/><path fill="#3C1000" d="M143.2 164.6c-3.2 0-6.3-1.2-8.7-3.4-2.5-2.3-4-5.5-4.1-8.9-.1-1.6 1.2-2.9 2.7-3 1.6-.1 2.9 1.2 3 2.7.1 1.9.9 3.7 2.3 5 1.4 1.3 3.3 2 5.2 1.9 1.9-.1 3.7-.9 5-2.3 1.3-1.4 2-3.2 1.9-5.2v-.1c0-1.5 1.2-2.8 2.7-2.8 1.5 0 2.9 1.2 3 2.7.2 4 3.5 7 7.5 6.9 1.9-.1 3.7-.9 5-2.3 1.3-1.4 2-3.2 1.9-5.2-.1-1.6 1.2-2.9 2.7-3 1.5-.1 2.9 1.1 3 2.7.3 7.1-5.2 13.1-12.3 13.4-4.1.2-7.7-1.6-10.2-4.4-.3.4-.6.7-.9 1.1-2.3 2.5-5.5 4-8.9 4.2h-.8z"/><path d="M233.9 75.2c2.4-11.9 5.6-31.2 3.7-39.3-2.1-9-20.3 3.8-29.8 11.1 10.4 7.5 19.3 17.1 26.1 28.2zM93.3 46.5c-8.4-6.8-29.8-22.8-32.1-13-2.2 9.1 2.1 32 4.4 43.2 7-11.9 16.5-22.2 27.7-30.2z" fill="#F39B00"/><path fill="#3C1000" d="M180.3 50.4c-.4 0-.8-.1-1.2-.2-32.2-13.9-56.7-.3-56.9-.2-1.4.8-3.2.3-4.1-1.1-.8-1.4-.3-3.2 1.1-4.1 1.1-.6 27.2-15.3 62.2-.2 1.5.7 2.2 2.4 1.6 3.9-.5 1.3-1.6 1.9-2.7 1.9zm-12.6 13.4c-.4 0-.8-.1-1.2-.3-19.7-8.8-28.3-.9-28.7-.6-1.2 1.1-3.1 1.1-4.2-.1-1.1-1.2-1.1-3 0-4.2.5-.5 11.6-11.2 35.3-.6 1.5.7 2.2 2.4 1.5 3.9-.5 1.3-1.6 1.9-2.7 1.9z"/><path fill="#3C1000" d="M150.5 74.3c-1.7 0-3-1.3-3-3l.1-42.9c0-1.6 1.3-3 3-3s3 1.3 3 3l-.1 42.9c0 1.7-1.4 3-3 3zM44.4 262.1c-1.1 0-2.4-.1-3.6-.4-1.6-.3-2.6-1.9-2.3-3.5.3-1.6 1.9-2.6 3.5-2.3 8.5 1.8 11.8-6.4 12.2-7.3.6-1.5 2.3-2.3 3.8-1.8 1.5.6 2.3 2.3 1.8 3.8-1.6 4.3-6.7 11.5-15.4 11.5zm16.2 12.3c-1.3 0-2.5-.9-2.9-2.2-.4-1.6.5-3.2 2.1-3.7 4-1.1 3.8-10.8 3.1-15-.3-1.6.8-3.2 2.5-3.4 1.6-.3 3.2.8 3.4 2.5.3 1.9 2.9 18.9-7.4 21.8h-.8zm22.6-8.1H83c-1.6-.1-2.9-1.5-2.8-3.2.5-6.4-5.8-13.3-8.2-15.4-1.2-1.1-1.4-3-.3-4.2s3-1.4 4.2-.3c.4.4 11 9.7 10.2 20.4 0 1.5-1.3 2.7-2.9 2.7zm13-12.5h-.4c-1.6-.2-2.8-1.8-2.5-3.4 1.4-9.5-7.8-11.8-8.2-11.9-1.6-.4-2.6-2-2.2-3.6.4-1.6 2-2.6 3.6-2.2 5.2 1.2 14.4 6.6 12.7 18.6-.3 1.4-1.5 2.5-3 2.5z"/><ellipse fill="#FFF" cx="150.3" cy="234.9" rx="25.6" ry="21.8"/></svg>