<svg xmlns="http://www.w3.org/2000/svg" viewBox="0 0 300 300"><path fill="#3C1000" d="M258.7 0c-9.3 0-23.3 7.2-43 21.9-26.6 19.9-37.6 44.4-42 62.9-7.9-2.1-16.1-3-24.4-2.6-10.2.4-20.3 2.7-29.6 6.7-3.3-18.2-12.3-42.2-36-63.3C64.2 8.4 50.3 0 41 0c-4.8 0-8.7 2.1-11 5.9-3.7 6-1.8 14.3.9 19.6.9 1.8 1.5 6.3 2.1 10.7 2 15.2 5.1 38 28.1 56.9 8.9 7.4 17.3 14.8 25 22.2-11.4 15.1-17.2 33.6-16.5 52.5.7 18.9 8 32.5 22 41.1l-.6.6c-1.2 1.2-2 2.6-2.5 4.1-2.8.8-5.1 2.3-6.7 4.3-1.6 2.1-3.2 5.7-1.9 11 2.2 8.6 9.9 14.6 18.7 14.6 6.7 0 12.7-3.4 17-9.5.4-.6 1.1-1.6 5-1.7-.6 1.7-1 3.4-1.5 5.1-8.6.6-15.5 7.8-15.5 16.6 0 5 2.2 9.5 5.8 12.6-2.4 2.1-4.2 5.2-5.2 9-2.3 9-3.1 14.7-.4 18.9 2.4 3.6 6 4.1 7.8 4.3.4.1.9.1 1 .2 1.6.6 4.1 1.1 11.6 1.1 8.5 0 19.2-.7 19.2-.7 1.4-.1 2.8-.6 3.9-1.5.8-.6 3.3-3 4.5-7.4 1.2 4.5 3.7 6.8 4.5 7.4 1.1.9 2.5 1.4 3.8 1.5.1 0 10.8.7 19.3.7 7.4 0 10-.5 11.6-1.1.2-.1.7-.1 1-.2 1.8-.3 5.4-.8 7.8-4.3 2.7-4.1 2-9.8-.3-18.9-1.7-6.4-5.5-10.5-10.7-11.8 1.6-3.4 2.5-7.5 2.5-12.2 0-4.4-.8-9.6-2.2-14.9 2.6.5 3.3 1.1 3.7 2.2 3.2 8.6 10.5 14 18.8 14 7.1 0 13.6-3.9 17-10.1 3.1-5.6 1.6-9.9.5-12-1.1-2-2.8-3.7-5-5-.1-1.6-.5-3.1-1.4-4.6-1.7-2.8-4.5-4.4-7.9-4.4-3 0-5.9 1.4-8.1 2.8-2.8-.1-7.4-1.3-13.3-3.6 21.7-5.2 43.2-18.1 41.8-54.4-.8-20.5-9.5-40.2-24-54.8 6.6-5.2 13.7-10.4 21-15.4C256.7 74.6 261.7 52 265 37.1c1-4.3 1.9-8.7 3-10.5 3.5-5.6 5.6-13.9 2.3-19.9C269.1 4 265.9 0 258.7 0z"/><circle fill="#FFF" cx="120.2" cy="253.9" r="9.6"/><path fill="#3C1000" d="M120.1 265.8c-6.6 0-12-5.4-12-12s5.4-12 12-12 12 5.4 12 12c0 6.7-5.4 12-12 12zm0-19.3c-4 0-7.3 3.3-7.3 7.3s3.3 7.3 7.3 7.3 7.3-3.3 7.3-7.3c.1-4-3.2-7.3-7.3-7.3z"/><path fill="#FFF" d="M213.6 229.5s5-2 3.2-5c-1.8-3-7.4 1.6-7.4 1.6-8.7 2.1-31.6-9.6-39.8-14-4.5-5.4-9.8-8.9-15.4-8.9-6.9 0-13.2 5.3-18.3 12.7-11.3 2.4-27.3 4.9-33.4 1.7 0 0-4.3-5.8-6.8-3.4-2.5 2.5 1.8 5.6 1.8 5.6s-13.5-2.3-11 7.2c2.4 9.5 15.5 13.9 23.2 2.8 4.3-6.1 12.5-4.7 20.7-4.3-4 8.8-6.5 18.6-6.5 25.8 0 10.9 5.5 15.6 13.8 17.7.8 5 1.6 11 .1 10.7-2.5-.6-22.7-19.5-27.1-2.5-4.4 17-.3 13.5 4.1 15.1 4.4 1.6 28 0 28 0s1.6-1.3 2.2-4.1c.5-2.3.3-13.6.1-18.1 2.8.2 5.8.3 8.9.3 1.4 0 2.8 0 4.1-.1-.1 5.4-.3 15.7.2 17.8.6 2.8 2.2 4.1 2.2 4.1s23.6 1.6 28 0c4.4-1.6 8.5 1.9 4.1-15.1s-24.5 1.9-27.1 2.5c-1.4.3-.8-5-.1-9.8 11-1.3 18.7-5.6 18.7-18.5 0-6.5-2-15.1-5.3-23.1 8.1 1.4 17.3 0 20.3 7.9 4.7 12.6 18.5 11.6 23.2 3 4.9-8.5-8.7-9.6-8.7-9.6z"/><path fill="#3C1000" d="M179.4 295.4c-8.3 0-18.8-.7-18.9-.7-.5 0-.9-.2-1.3-.5-.2-.2-2.2-1.9-3-5.4-.4-1.6-.4-7-.3-16h-1.7c-2.5 0-4.6 0-6.5-.1.2 9 .1 14.4-.2 16.1-.8 3.5-2.8 5.2-3 5.4-.4.3-.8.5-1.3.5-.1 0-10.7.7-18.9.7-6.9 0-9-.5-10-.8-.6-.2-1.2-.3-1.9-.4-1.5-.2-3.4-.5-4.6-2.3-1.5-2.3-1.3-6.4 1-15.1 1.9-7.3 6.4-8.8 9.8-8.8 6.2 0 13.3 5 17.6 8 .1.1.2.2.3.2-.1-1.1-.3-2.8-.6-5.2-9.5-2.8-14.1-9.2-14.1-19.5 0-6.8 2-15.4 5.3-23.7-1.9-.1-3.7-.2-5.4-.2-5.2 0-8.1 1.1-10 3.7-3.4 4.9-8.1 7.5-13.2 7.5-6.7 0-12.5-4.6-14.2-11.1-.7-2.9-.4-5.2 1-7 1.5-1.9 4-3 7.5-3.2-.1-.3-.2-.7-.2-1-.1-1.4.4-2.7 1.4-3.7.8-.8 1.9-1.3 3.1-1.3 3 0 5.7 3 6.8 4.4 1.2.5 3.4 1 7.4 1 7 0 16.3-1.6 23.1-3 6-8.5 12.8-12.9 19.6-12.9 5.8 0 11.6 3.2 16.9 9.4 6.5 3.5 26.6 13.7 36 13.7.5 0 1 0 1.4-.1 1.2-.9 4-2.7 6.5-2.7 1.7 0 3 .8 3.9 2.1.8 1.3.9 2.6.5 4-.1.3-.3.6-.4.9 2.4.8 4.9 2.1 6.2 4.5.8 1.5 1.4 4.1-.5 7.6-2.6 4.7-7.6 7.7-13 7.7-6.5 0-11.9-4.1-14.5-11-1.7-4.6-6-5.2-12.8-5.8-.6-.1-1.1-.1-1.7-.2 2.6 7.2 4.1 14.5 4.1 20.4 0 15.4-10.4 19.3-19 20.6-.3 1.8-.4 3.1-.5 4.1.1-.1.2-.2.3-.2 4.3-3 11.4-8 17.6-8 3.4 0 8 1.5 9.8 8.8 2.3 8.7 2.5 12.8 1 15.1-1.2 1.8-3.1 2.1-4.6 2.3-.7.1-1.3.2-1.9.4-.9.3-3 .8-9.9.8zm-17.7-5.3c2.7.2 11 .6 17.7.6 6.2 0 8-.4 8.4-.6 1-.4 2-.5 2.8-.6.5-.1 1.2-.2 1.4-.3.2-.3.8-2.1-1.6-11.4-1.2-4.7-3.5-5.3-5.4-5.3-4.7 0-11.4 4.7-15 7.2-2.2 1.5-3.1 2.1-3.9 2.3-.2 0-.5.1-.7.1-.8 0-1.6-.4-2.1-1-.9-1-1.5-2.7-.1-11.5.2-1 1-1.8 2-1.9 11.8-1.4 16.7-6.1 16.7-16.2 0-6.2-1.9-14.5-5.1-22.3-.3-.8-.2-1.7.3-2.3.5-.7 1.4-1 2.2-.8 1.7.3 3.5.5 5.3.6 6.5.6 13.9 1.3 16.8 8.8 1.9 5.1 5.6 8 10.1 8 3.7 0 7.1-2 8.9-5.3 1.1-2 .6-2.9.5-3.2-1.1-2-5.5-2.9-7.5-3.1-1.1-.1-2-.9-2.1-2-.2-1.1.4-2.1 1.4-2.5 1-.4 2-1.2 2.1-1.5-.9 0-3 1.2-4 2.1-.3.2-.6.4-.9.5-.9.2-1.8.3-2.9.3-10.4 0-30.4-10.1-38.5-14.5-.3-.1-.5-.3-.7-.6-3.1-3.7-8-8.1-13.6-8.1-6.9 0-12.7 6.4-16.3 11.7-.3.5-.9.8-1.4 1-7.1 1.5-17.2 3.3-24.9 3.3-4.5 0-7.8-.6-10-1.8-.3-.2-.6-.4-.8-.7-1.1-1.5-2.8-3-3.5-3 .1.4 1 1.4 1.8 2 .9.6 1.2 1.8.8 2.8-.4 1-1.5 1.6-2.5 1.4 0 0-1.3-.2-3-.2-2.6 0-4.5.5-5.2 1.5-.5.6-.6 1.7-.2 3.1 1.1 4.4 5.2 7.6 9.7 7.6 3.5 0 6.9-2 9.4-5.5 3.5-5.1 9.2-5.7 13.8-5.7 2 0 4.1.1 6.1.3.9.1 1.9.1 2.9.2.8 0 1.5.5 1.9 1.1.4.7.4 1.5.1 2.2-3.9 8.4-6.3 17.9-6.3 24.8 0 8.8 3.6 13.4 12 15.4.9.2 1.6 1 1.7 1.9 1.6 9.6.9 11.3 0 12.4-.5.6-1.3 1-2.1 1-.2 0-.5 0-.7-.1-.9-.2-1.8-.8-3.9-2.3-3.6-2.5-10.2-7.2-15-7.2-1.8 0-4.1.6-5.4 5.3-2.4 9.3-1.8 11.1-1.6 11.4.2.1.9.2 1.4.3.8.1 1.8.3 2.8.6.5.2 2.2.6 8.4.6 6.7 0 15-.5 17.7-.6.3-.4.8-1.2 1-2.3.2-1 .4-6.2.1-17.5 0-.7.2-1.3.7-1.7.5-.5 1.1-.7 1.8-.6 2.5.2 5.2.3 8.7.3 1.4 0 2.7 0 4-.1.6 0 1.2.2 1.7.7.4.4.7 1.1.7 1.7-.3 11.2-.1 16.3.1 17.3.2.7.7 1.4 1 1.9z"/><path fill="#FFF" d="M219.8 27.5c-28.3 21.1-37.9 47.6-40.9 66.3-9.1-3.4-19.1-5.1-29.4-4.7-13 .5-25 4.2-35.5 10.3-1.6-18.9-9.1-45.6-35.1-68.7C32.8-10.3 31.7 12 37 22.3c5.3 10.2-.5 41.6 28.4 65.4 12.9 10.6 22.9 20 30 27-12.4 14-19.7 32.6-18.9 52.8 1.6 41.6 39.7 47 81.6 45.3 41.9-1.6 71.8-9.6 70.2-51.2-.9-22.4-11.5-42.2-27.7-55.4 7.2-5.9 16.5-13 27.8-20.8 30.8-21.2 27.8-53 33.9-62.8 6.1-9.7 6.9-32-42.5 4.9z"/><path fill="#3C1000" d="M146.1 215.4c-32.6 0-70.3-5.4-71.9-47.8-.7-19.3 5.7-37.9 18.1-52.7-8.5-8.4-18-17-28.3-25.4-21.6-17.7-24.5-39.5-26.5-54-.7-5.2-1.3-9.7-2.6-12.2-2.3-4.5-3.5-10.9-1-15.1 1-1.7 3.1-3.6 7.1-3.6 8 0 21.3 8.2 39.5 24.4 25.1 22.3 33.3 48 35.5 66.7 10.3-5.4 21.8-8.4 33.5-8.9 9.5-.4 18.8.9 27.7 3.9 3.6-18.8 13.7-44.4 41.3-65.1 18.6-13.9 32.2-21 40.3-21 4.6 0 6.7 2.2 7.7 4 2.4 4.3.6 10.9-2.1 15.2-1.5 2.4-2.5 6.8-3.6 11.9-3.2 14.2-8 35.7-30.9 51.5-9 6.2-17.6 12.6-25.5 18.9 16 14 25.6 34 26.4 55.3 1.8 46.8-36.4 52.2-72.4 53.6-4.6.3-8.5.4-12.3.4zM41 9.3c-2 0-2.8.8-3.1 1.4-1.3 2.1-.8 6.7 1.2 10.5 1.7 3.2 2.3 7.8 3.1 13.7 2 14.5 4.6 34.4 24.8 51 11 9 21.1 18.2 30.1 27.2.9.9.9 2.3.1 3.2-12.6 14.2-19.1 32.3-18.3 51.1 1.2 30 21.9 43.4 67.3 43.4 3.7 0 7.6-.1 11.9-.2 43.1-1.7 69.5-10.4 68-48.8-.8-20.9-10.6-40.4-26.9-53.7-.5-.4-.9-1.1-.9-1.8s.3-1.4.9-1.8c8.6-7 18-14.1 28-20.9 21.5-14.8 25.8-34.4 29-48.7 1.3-5.8 2.3-10.3 4.2-13.4 2.3-3.7 3.2-8.3 2-10.5-.2-.4-.9-1.6-3.7-1.6-4.9 0-15.3 3.5-37.5 20.1-27.7 20.7-37.1 46.7-40 64.8-.1.7-.5 1.3-1.1 1.6-.6.3-1.3.4-2 .2-9.1-3.4-18.7-4.9-28.5-4.5-12.1.5-24 3.9-34.4 10-.7.4-1.5.4-2.2.1-.7-.4-1.2-1.1-1.2-1.9-1.5-18.1-8.7-44.4-34.3-67.2C54.7 12.3 44.9 9.3 41 9.3z"/><path fill="#FAD7B5" d="M163.7 178.6c.1 3.4-3.8 6.3-8.9 6.5-5 .2-9.2-2.4-9.3-5.8-.1-3.4 3.8-6.3 8.9-6.5 5-.1 9.2 2.5 9.3 5.8z"/><path fill="#3C1000" d="M154.3 186.2c-5.4 0-9.8-3-9.9-6.8-.1-2 1-3.9 3-5.4 1.8-1.3 4.3-2.1 7-2.2 5.7-.2 10.3 2.9 10.5 6.8.1 2-1 3.9-2.9 5.4-1.8 1.4-4.3 2.2-7 2.3l-.7-.1zm.6-12.2h-.5c-2.2.1-4.3.7-5.8 1.8-1.4 1-2.1 2.2-2 3.5.1 2.6 3.5 4.7 7.7 4.7h.5c2.2-.1 4.3-.7 5.8-1.8 1.4-1 2.1-2.2 2-3.5-.1-2.6-3.5-4.7-7.7-4.7z"/><circle transform="rotate(-2.204 186.268 164.392) scale(1.00004)" fill="#3C1000" cx="186.3" cy="164.4" r="10.5"/><circle transform="rotate(-2.204 119.058 166.991) scale(1.00004)" fill="#3C1000" cx="119.1" cy="167" r="10.5"/><circle transform="rotate(-87.558 104.775 191.24) scale(1.00001)" fill="#F9D3C1" cx="104.8" cy="191.2" r="10.2"/><path fill="#F9D3C1" d="M213.7 187.7c-.2 5.6-5 10-10.6 9.7-5.6-.2-9.9-5-9.7-10.6.2-5.6 5-10 10.6-9.8 5.6.4 10 5.1 9.7 10.7z"/><circle transform="matrix(.9993 -.03855 .03855 .9993 -6.166 7.457)" fill="#FFF" cx="190.3" cy="163.6" r="4.1"/><path fill="#FFF" d="M128.3 166c.1 2.2-1.7 4.1-3.9 4.2-2.2.1-4.1-1.7-4.2-3.9-.1-2.2 1.7-4.1 3.9-4.2 2.2-.1 4.1 1.7 4.2 3.9z"/><path fill="#3C1000" d="M147 200.4c-2.5 0-4.9-.9-6.8-2.6-2-1.8-3.1-4.3-3.2-6.9 0-1.2.9-2.3 2.1-2.3 1.2 0 2.3.9 2.3 2.1.1 1.5.7 2.9 1.8 3.9s2.5 1.5 4 1.5c1.5-.1 2.9-.7 3.9-1.8s1.5-2.5 1.5-4v-.1c0-1.2.9-2.2 2.1-2.2 1.3-.1 2.3.9 2.3 2.1.1 3.1 2.8 5.5 5.8 5.3 3.1-.1 5.5-2.7 5.3-5.8-.1-1.2.9-2.3 2.1-2.3 1.3 0 2.3.9 2.3 2.1.2 5.5-4.1 10.2-9.6 10.4-3.2.1-6-1.2-7.9-3.4-.2.3-.4.6-.7.8-1.8 2-4.3 3.1-6.9 3.2h-.4z"/><path fill="#F9D3C1" d="M100.9 110.9l3.9-5.1S82.3 60.6 70 52.2C57.8 43.8 59.7 40 57.8 43.8c-2 3.9-7.8 18.2 43.1 67.1zm92.2-4.5l-3.9-5.1s22.5-45.2 34.8-53.6c12.2-8.4 10.3-12.2 12.2-8.4 2 3.9 7.8 18.2-43.1 67.1z"/></svg>