<svg xmlns="http://www.w3.org/2000/svg" viewBox="0 0 300 300"><path fill="#3C1000" d="M249.3 74.5c-1.9-1-4.2-1.5-7.1-1.5-6.9 0-17.2 3-30.7 8.9-2.3-3-4.7-5.9-7.3-8.5l9.1-16.9 23.7-5.7c3.2-.8 5.8-2.7 7.5-5.5 1.7-2.8 2.2-6 1.4-9.2-1.3-5.4-6.3-9.3-11.9-9.3-1 0-1.9.1-2.8.3l-2.6.6 5.2-9.7c1.5-2.9 1.9-6.2.9-9.3-.9-3.1-3-5.7-5.9-7.2C227 .6 225 .1 223 .1c-2.9 0-5.7 1-7.9 2.9-3-2.5-7.2-3.5-11.2-2.4-6.4 1.9-10.1 8.7-8.2 15.1l4.1 14L184 59.1c-11.1-5.4-23.4-7.8-36.4-7.1-11 .5-21.4 3.1-30.8 7.8l-16.1-30 4.1-14.1C106.7 9.3 103 2.5 96.5.6 92.6-.5 88.3.5 85.3 3c-1.8-2-4.6-3-7.5-3-2 0-4 .5-5.8 1.4-2.9 1.5-5 4.1-5.9 7.2-.9 3.1-.6 6.4.9 9.3l5.2 9.7-2.6-.6c-.9-.2-1.9-.3-2.8-.3-5.6 0-10.6 3.9-11.9 9.3-.8 3.2-.3 6.4 1.4 9.2 1.7 2.8 4.4 4.7 7.5 5.5l23.7 5.7L97.1 74c-2.7 2.7-5.2 5.6-7.5 8.8C75 76.3 64 72.9 56.7 72.9c-2.9 0-5.2.5-7.1 1.5-3.1 1.7-5 4.6-5.4 8.1-.9 9 1.3 16.1 6.4 21.3 5.2 5.3 13.3 8.3 24.6 9.3-2.8 10.3-4 21.3-3.6 32.8.8 27.4 10.9 50.4 28.8 65.7-1.1-.5-2.4-.8-3.7-.8-2.3 0-4.4.9-6 2.5-1.1 1.1-1.9 2.4-2.4 3.9-2.7.8-4.8 2.2-6.4 4.1-1.5 2-3.1 5.4-1.8 10.5 2.1 8.2 9.4 13.9 17.8 13.9 6.4 0 12.1-3.2 16.2-9.1.4-.6 1.1-1.5 4.8-1.7-2.1 6.5-3.3 13-3.3 18.4 0 4.3.8 8.1 2.3 11.3h-.9c-6.8 0-11.7 4.3-13.7 11.7-2.2 8.6-3 14.1-.3 18 2.3 3.4 5.8 3.9 7.4 4.1.4.1.8.1 1 .2 1.5.5 3.9 1.1 11 1.1 8.1 0 18.3-.7 18.4-.7 1.4-.1 2.6-.6 3.7-1.4.8-.6 3.2-2.8 4.3-7.1 1.1 4.3 3.6 6.5 4.3 7.1 1.1.9 2.3 1.3 3.7 1.4.1 0 10.3.7 18.4.7 7.1 0 9.5-.5 11-1.1.2-.1.6-.1 1-.2 1.7-.2 5.2-.8 7.4-4.1.5-.7.8-1.4 1.1-2.2 7.3 4 14.5 6.1 21.7 6.1 15.6 0 25-9.8 25.4-10.2 1.7-1.8 2.2-4.4 1.4-6.8-.9-2.4-3-4-5.4-4.3-.2 0-23.4-3.1-32.5-18.7-.8-1.3-1.6-2.6-2.6-3.9.7.1 1.5.1 2.3.1 6.8 0 13-3.7 16.2-9.6 2.9-5.4 1.6-9.5.5-11.5-1-1.9-2.6-3.5-4.8-4.8-.1-1.5-.5-3-1.3-4.4-1.6-2.7-4.3-4.2-7.5-4.2-2.9 0-5.7 1.3-7.7 2.7-1.5 0-4.6-.5-10.2-2.5 8.6-5 15.9-11.6 21.8-19.8.3-.4.6-.9.8-1.4 11.2-16.2 16.8-37.2 16.1-60.8-.3-8.9-1.5-17.5-3.6-25.6 9.9-1.2 17.2-4.1 22.1-9.1 5.1-5.2 7.3-12.4 6.4-21.3-.5-3-2.4-5.9-5.5-7.6zm-61.2 167.2c-1.1-.6-2.3-1.2-3.5-1.7-.1-.2-.1-.4-.2-.6 2.5.5 3.1 1 3.5 2.1.1 0 .1.1.2.2z"/><path fill="#75AC75" d="M161.9 240.5s27.6 2.6 38.6 21.4c11 18.8 37.5 21.9 37.5 21.9s-16.9 18.3-43.6 0c-26.7-18.3-42.6-17.6-42.6-17.6"/><path fill="#3C1000" d="M217.4 294.1c-6.8 0-15-2.1-24.3-8.5-25.8-17.6-41.1-17.2-41.2-17.2-1.2 0-2.3-.9-2.3-2.1-.1-1.2.9-2.3 2.1-2.3.7 0 16.9-.5 43.9 18 18.2 12.5 31.4 7.1 37.3 3.2-8.4-1.9-25.7-7.4-34.3-22.1-10.3-17.6-36.6-20.3-36.9-20.3-1.2-.1-2.1-1.2-2-2.4.1-1.2 1.2-2.1 2.4-2 1.2.1 28.9 2.9 40.3 22.5 10.3 17.6 35.6 20.8 35.8 20.8.8.1 1.5.7 1.8 1.4.3.8.1 1.7-.5 2.3-.1 0-8.3 8.7-22.1 8.7z"/><path fill="#75AC75" d="M207.8 232.7s4.7-1.9 3-4.7c-1.7-2.9-7.1 1.5-7.1 1.5-8.3 2-30.1-9.1-38-13.3-4.3-5.1-9.3-8.5-14.7-8.5-6.6 0-12.6 5.1-17.4 12.1-10.8 2.3-26.1 4.7-31.8 1.7 0 0-4.1-5.6-6.5-3.2-2.4 2.4 1.8 5.3 1.8 5.3s-12.9-2.2-10.5 6.9c2.3 9.1 14.8 13.2 22.2 2.7 4.1-5.8 12-4.5 19.7-4.1-3.9 8.4-6.2 17.7-6.2 24.6 0 10.4 5.3 14.9 13.2 16.9.8 4.8 1.5 10.5.1 10.2-2.4-.6-21.6-18.6-25.8-2.4-4.2 16.2-.3 12.9 3.9 14.4s26.7 0 26.7 0 1.5-1.2 2.1-3.9c.5-2.2.2-13 .1-17.2 2.7.2 5.5.3 8.5.3 1.3 0 2.6 0 3.9-.1-.1 5.2-.3 15 .2 17 .6 2.7 2.1 3.9 2.1 3.9s22.5 1.5 26.7 0c4.2-1.5 8.1 1.8 3.9-14.4-4.2-16.2-23.4 1.8-25.8 2.4-1.3.3-.8-4.8-.1-9.4 10.5-1.3 17.9-5.3 17.9-17.7 0-6.2-1.9-14.4-5.1-22.1 7.7 1.3 16.5 0 19.4 7.6 4.5 12 17.6 11.1 22.2 2.9 4.4-8.4-8.6-9.4-8.6-9.4z"/><path fill="#3C1000" d="M175.2 295.6c-7.9 0-18-.7-18.1-.7-.5 0-.9-.2-1.2-.5-.2-.2-2.1-1.8-2.9-5.2-.3-1.5-.4-6.7-.3-15.2h-1.6c-2.4 0-4.4 0-6.2-.1.1 6.4.2 13.4-.2 15.3-.8 3.4-2.7 5-2.9 5.2-.4.3-.8.4-1.2.5-.1 0-10.2.7-18.1.7-6.6 0-8.6-.5-9.5-.8-.6-.2-1.2-.3-1.8-.4-1.4-.2-3.2-.5-4.4-2.2-1.5-2.2-1.2-6.1.9-14.5 1.8-6.9 6.1-8.4 9.4-8.4 5.9 0 12.7 4.8 16.8 7.6.1.1.2.1.3.2-.1-1.1-.2-2.7-.6-4.9-9-2.7-13.4-8.8-13.4-18.6 0-6.5 1.9-14.7 5.1-22.6-1.8-.1-3.5-.2-5.1-.2-5 0-7.7 1-9.5 3.6-3.2 4.6-7.7 7.2-12.6 7.2-6.4 0-12-4.4-13.6-10.6-.7-2.7-.4-5 1-6.7 1.4-1.8 3.8-2.9 7.2-3.1-.1-.3-.1-.6-.2-1-.1-1.3.4-2.6 1.4-3.5.8-.8 1.8-1.2 2.9-1.2 2.8 0 5.4 2.8 6.5 4.2 1.1.5 3.2 1 7.1 1 6.7 0 15.5-1.5 22-2.8 5.7-8.1 12.2-12.4 18.7-12.4 5.5 0 11.1 3.1 16.1 9 6.3 3.3 25.4 13.1 34.3 13.1.5 0 .9 0 1.3-.1 1.1-.8 3.8-2.6 6.2-2.6 1.6 0 2.9.7 3.7 2 .7 1.2.9 2.5.5 3.8-.1.3-.2.6-.4.9 2.3.7 4.7 2 5.9 4.3.8 1.5 1.4 3.9-.5 7.3-2.5 4.5-7.2 7.3-12.4 7.3-6.2 0-11.3-3.9-13.8-10.5-1.6-4.4-5.7-4.9-12.3-5.5-.5 0-1.1-.1-1.6-.2 2.5 6.9 3.9 13.8 3.9 19.4 0 14.7-9.9 18.4-18.1 19.7-.2 1.7-.4 3-.4 3.9.1-.1.2-.1.3-.2 4.1-2.9 10.9-7.6 16.8-7.6 3.3 0 7.6 1.5 9.4 8.4 2.2 8.3 2.4 12.2.9 14.5-1.2 1.7-2.9 2-4.4 2.2-.7.1-1.3.2-1.8.4-.9.1-3 .6-9.5.6zm-16.9-5.1c2.6.2 10.5.6 16.9.6 5.9 0 7.6-.4 8-.5 1-.4 1.9-.5 2.7-.6.5-.1 1.2-.2 1.4-.3.2-.3.8-2-1.5-10.9-1.2-4.5-3.3-5.1-5.1-5.1-4.5 0-10.9 4.5-14.3 6.8-2.1 1.4-2.9 2-3.8 2.2-.2 0-.5.1-.7.1-.8 0-1.5-.3-2-.9-.8-1-1.5-2.6-.1-11 .2-1 .9-1.7 1.9-1.8 11.3-1.4 15.9-5.8 15.9-15.5 0-5.9-1.8-13.8-4.9-21.2-.3-.7-.2-1.6.3-2.2.5-.6 1.3-.9 2.1-.8 1.6.3 3.4.4 5.1.6 6.2.6 13.3 1.2 16 8.4 1.8 4.8 5.3 7.6 9.7 7.6 3.5 0 6.8-1.9 8.5-5 1.1-1.9.6-2.7.5-3-1-1.9-5.3-2.8-7.2-3-1-.1-1.9-.9-2-1.9-.2-1 .4-2 1.4-2.4 1-.4 1.9-1.1 2-1.5-.9 0-2.8 1.2-3.8 2-.3.2-.6.4-.9.4-.8.2-1.7.3-2.8.3-9.9 0-29-9.7-36.8-13.8-.2-.1-.5-.3-.7-.5-3-3.5-7.6-7.7-13-7.7-6.6 0-12.1 6.1-15.6 11.2-.3.5-.8.8-1.4.9-6.8 1.4-16.4 3.1-23.8 3.1-4.3 0-7.4-.5-9.5-1.7-.3-.2-.6-.4-.8-.6-1.1-1.4-2.7-2.9-3.3-2.9.1.4.9 1.4 1.7 1.9.8.6 1.1 1.7.7 2.7-.4.9-1.4 1.5-2.4 1.3 0 0-1.3-.2-2.8-.2-2.5 0-4.3.5-5 1.4-.5.6-.5 1.6-.2 2.9 1.1 4.2 5 7.3 9.3 7.3 3.4 0 6.6-1.9 9-5.3 3.4-4.8 8.8-5.5 13.1-5.5 1.9 0 3.9.1 5.8.3.9.1 1.8.1 2.7.2.7 0 1.4.4 1.8 1.1.4.6.4 1.4.1 2.1-3.7 8-6 17.1-6 23.7 0 8.4 3.4 12.8 11.5 14.7.9.2 1.5.9 1.7 1.8 1.5 9.2.9 10.8 0 11.8-.5.6-1.2.9-2 .9-.2 0-.5 0-.7-.1-.8-.2-1.7-.8-3.8-2.2-3.4-2.4-9.8-6.8-14.3-6.8-1.8 0-3.9.6-5.1 5.1-2.3 8.9-1.8 10.6-1.5 10.9.2.1.9.2 1.3.3.8.1 1.7.2 2.7.6.5.2 2.1.5 8 .5 6.4 0 14.3-.4 16.9-.6.3-.4.7-1.1 1-2.2.3-1.3.3-7.8.1-16.7 0-.6.2-1.2.7-1.7.5-.4 1.1-.6 1.7-.6 2.3.2 5 .3 8.3.3 1.3 0 2.6 0 3.9-.1.6 0 1.2.2 1.6.6.4.4.7 1 .7 1.6-.2 10.7-.1 15.6.1 16.5.2 1 .7 1.7 1 2.1z"/><path fill="#FCD451" d="M151.8 223.8c-13 0-24 19.9-27.6 36.1 3.5 9.5 14.5 10.8 27.6 10.8 13 0 24-1.3 27.6-10.8-3.6-16.2-14.6-36.1-27.6-36.1z"/><path fill="#3C1000" d="M151.8 272.9c-12.1 0-25.5-.9-29.7-12.2-.1-.4-.2-.8-.1-1.2 3.2-14.6 14.1-37.9 29.7-37.9s26.5 23.2 29.7 37.9c.1.4.1.8-.1 1.2-4.1 11.2-17.4 12.2-29.5 12.2zm-25.3-13.2c3.1 7.3 12 8.7 25.3 8.7s22.1-1.5 25.3-8.7c-3.8-16.3-14.4-33.7-25.3-33.7s-21.6 17.4-25.3 33.7z"/><path fill="#3C1000" d="M152.7 244.5c-7.4 0-13.1-1.8-13.4-1.9-1.2-.4-1.8-1.6-1.4-2.8.4-1.2 1.6-1.8 2.8-1.4.1 0 11.9 3.8 23.1 0 1.2-.4 2.4.2 2.8 1.4.4 1.2-.2 2.4-1.4 2.8-4.3 1.4-8.7 1.9-12.5 1.9zm-2.6 14.2c-10.3 0-15.4-4-15.7-4.3-.9-.8-1.1-2.2-.3-3.1.8-.9 2.2-1.1 3.1-.3.2.1 9.9 7.5 30.6-.4 1.1-.4 2.4.1 2.9 1.3.4 1.1-.1 2.4-1.3 2.9-7.7 2.9-14.2 3.9-19.3 3.9z"/><path fill="#75AC75" d="M78.2 145.9c-1.5-51.6 29.9-85.3 70-87.3 40-2 73.5 28.6 75 80.2s-27 83.2-67.1 85.2c-40.1 1.9-76.4-26.6-77.9-78.1z"/><path fill="#3C1000" d="M152.2 226.3c-35.6 0-74.6-25.1-76.2-80.3-1.5-50.6 28.2-87.4 72.1-89.6 1.3-.1 2.5-.1 3.7-.1 41.9 0 72.2 33.9 73.6 82.4 1.5 50.2-26.3 85.4-69.2 87.5-1.3 0-2.7.1-4 .1zm-.4-165.6c-1.2 0-2.3 0-3.5.1-41.4 2-69.3 37-67.9 85 1.5 52.2 38.3 76 71.8 76 1.2 0 2.5 0 3.8-.1 40.9-2 66.4-34.6 65-82.9-1.4-46-29.8-78.1-69.2-78.1z"/><circle transform="rotate(-2.218 183.313 141.197)" fill="#3C1000" cx="183.3" cy="141.2" r="10"/><circle transform="matrix(.9993 -.03855 .03855 .9993 -5.276 7.318)" fill="#FFF" cx="187.1" cy="140.5" r="3.9"/><circle transform="rotate(-2.219 119.821 140.467) scale(1.00005)" fill="#3C1000" cx="119.8" cy="140.5" r="10"/><path fill="#FFF" d="M128.6 139.5c.1 2.1-1.6 3.9-3.7 4-2.1.1-3.9-1.6-4-3.7-.1-2.1 1.6-3.9 3.7-4 2.1-.1 3.9 1.6 4 3.7z"/><path fill="#75AC75" d="M198.6 95.3s48.2-25.1 49.5-12.1c1.3 13-4 26.7-44.5 23.1"/><path fill="#3C1000" d="M215.7 109.1c-3.8 0-7.9-.2-12.4-.6-1.2-.1-2.1-1.2-2-2.4.1-1.2 1.2-2.1 2.4-2 19.4 1.7 32.3-.5 38.2-6.4 3.3-3.3 4.5-7.8 3.9-14.2-.1-.7-.3-1-.8-1.2-5.9-3.2-31.1 7.5-45.5 15-1.1.6-2.4.1-3-.9-.6-1.1-.1-2.4.9-3 6.6-3.4 40-20.3 49.7-15 1.8 1 2.9 2.6 3.1 4.7.8 7.7-.9 13.5-5.2 17.8-5.4 5.5-15.1 8.2-29.3 8.2z"/><path fill="#75AC75" d="M100.3 95.3S52.1 70.2 50.8 83.2c-1.3 13 4 26.7 44.5 23.1"/><path fill="#3C1000" d="M83.1 109.1c-14.2 0-23.9-2.7-29.4-8.3-4.2-4.3-5.9-10.1-5.2-17.8.2-2.1 1.3-3.7 3.1-4.7 9.7-5.3 43.1 11.6 49.7 15 1.1.6 1.5 1.9.9 3s-1.9 1.5-3 .9c-14.5-7.5-39.6-18.2-45.5-15-.4.2-.7.5-.8 1.2-.6 6.4.6 10.9 3.9 14.2 5.9 6 18.8 8.1 38.2 6.4 1.2-.1 2.3.8 2.4 2 .1 1.2-.8 2.3-2 2.4-4.3.5-8.5.7-12.3.7z"/><path fill="#FCD451" d="M154.1 175.7c-24.3-.1-44.5 7.4-58 22.2 14.7 18 36.7 27.2 60 26.1 21.4-1.1 39.5-10.6 51.5-27.1-12.2-14.8-30.9-21.1-53.5-21.2z"/><path fill="#3C1000" d="M152.2 226.3c-22.8 0-43.9-9.8-57.9-27-.7-.9-.7-2.1.1-2.9 13.7-15 34.2-22.9 59.3-22.9h.3c24.7.1 43.3 7.4 55.2 21.9.6.8.7 1.9.1 2.7-12.3 17-31.2 26.9-53.2 28-1.2.1-2.6.2-3.9.2zM99 198c13.1 15.2 32.4 23.9 53.2 23.9 1.2 0 2.5 0 3.7-.1 20-1 37.2-9.8 48.8-24.8-11.1-12.6-28.2-18.9-50.7-19h-.3c-23-.1-41.8 6.9-54.7 20z"/><circle fill="#4C3E37" cx="130.6" cy="202.4" r="6.4"/><path fill="#3C1000" d="M130.6 211c-4.7 0-8.6-3.8-8.6-8.6 0-4.7 3.9-8.6 8.6-8.6 4.7 0 8.6 3.8 8.6 8.6s-3.9 8.6-8.6 8.6zm0-12.7c-2.3 0-4.2 1.9-4.2 4.1s1.9 4.1 4.2 4.1c2.3 0 4.2-1.9 4.2-4.1s-1.9-4.1-4.2-4.1z"/><circle fill="#4C3E37" cx="177.3" cy="202.4" r="6.4"/><path fill="#3C1000" d="M177.3 211c-4.7 0-8.6-3.8-8.6-8.6 0-4.7 3.9-8.6 8.6-8.6s8.6 3.8 8.6 8.6-3.9 8.6-8.6 8.6zm0-12.7c-2.3 0-4.2 1.9-4.2 4.1s1.9 4.1 4.2 4.1c2.3 0 4.2-1.9 4.2-4.1s-1.9-4.1-4.2-4.1z"/><path fill="#FBC600" d="M239.6 37.6c-.7-2.9-3.7-4.8-6.7-4.1l-17 4.1 12.2-22.8c.7-1.3.8-2.8.4-4.2-.4-1.4-1.4-2.6-2.7-3.3-.8-.4-1.7-.7-2.6-.7-2 0-3.9 1.1-4.9 2.9l-3.7 6.9-1.7-5.9c-.8-2.8-4-4.6-6.9-3.7-2.9.9-4.6 3.9-3.7 6.9l4.9 16.7-24.9 46.5c-.7 1.3-.8 2.8-.4 4.2.4 1.4 1.4 2.6 2.7 3.3.8.4 1.7.7 2.6.7 2 0 3.9-1.1 4.9-2.9L209 50.7l26.6-6.4c1.4-.3 2.7-1.2 3.4-2.5.7-1.3.9-2.8.6-4.2z"/><path fill="#3C1000" d="M187.1 87.3c-1.3 0-2.5-.3-3.7-.9-1.8-1-3.1-2.6-3.7-4.6-.6-2-.4-4.1.6-5.9l24.5-45.7-4.6-15.8c-1.2-4.1 1.1-8.4 5.2-9.6 4.1-1.2 8.5 1.3 9.6 5.2l.2.7 1.2-2.2c1.4-2.5 4-4.1 6.8-4.1 1.3 0 2.5.3 3.7.9 1.8 1 3.2 2.6 3.8 4.6.6 2 .4 4.1-.6 5.9l-9.9 18.4 12.2-2.9c.6-.1 1.2-.2 1.8-.2 3.5 0 6.7 2.5 7.6 5.9.5 2 .2 4.1-.9 5.9-1.1 1.8-2.8 3-4.8 3.5l-25.7 6.2L194 83.2c-1.4 2.5-4 4.1-6.9 4.1zm20.4-78.4c-.3 0-.6 0-.9.1-1.7.5-2.8 2.4-2.2 4.1l4.9 16.7c.2.6.1 1.2-.2 1.7L184.2 78c-.4.8-.5 1.7-.3 2.5.3.8.8 1.5 1.6 2 1.6.8 3.7.2 4.5-1.4l16.9-31.5c.3-.6.8-1 1.4-1.1l26.6-6.4c.9-.2 1.6-.7 2.1-1.5s.6-1.6.4-2.5c-.4-1.7-2.3-2.9-4-2.5l-17 4.1c-.8.2-1.7-.1-2.3-.8-.5-.7-.6-1.6-.2-2.4l12.2-22.8c.4-.8.5-1.7.3-2.5-.3-.8-.8-1.5-1.6-2-1.6-.8-3.7-.2-4.5 1.4l-3.7 6.9c-.4.8-1.3 1.2-2.2 1.2-.9-.1-1.6-.7-1.9-1.6l-1.7-5.9c-.4-1.3-1.8-2.3-3.3-2.3z"/><path fill="#FBC600" d="M93.8 30.4l4.9-16.7c.9-2.9-.8-6-3.8-6.9-2.9-.8-6 .9-6.9 3.7l-1.7 5.9-3.7-6.9c-1-1.8-2.8-2.9-4.9-2.9-.9 0-1.8.2-2.6.7-1.3.7-2.3 1.9-2.7 3.3-.4 1.4-.3 2.9.4 4.2L85 37.6l-17-4.1c-2.9-.7-6 1.2-6.7 4.1-.3 1.4-.1 2.9.7 4.2.8 1.3 2 2.1 3.4 2.5L92 50.7l17 31.4c1 1.8 2.8 2.9 4.9 2.9.9 0 1.8-.2 2.6-.7 1.3-.7 2.3-1.9 2.7-3.3.4-1.4.3-2.9-.4-4.2l-25-46.4z"/><path fill="#3C1000" d="M113.9 87.3c-2.9 0-5.5-1.6-6.8-4.1L90.6 52.6 65 46.4c-2-.5-3.7-1.7-4.8-3.5-1.1-1.8-1.4-3.8-.9-5.9.8-3.4 4-5.9 7.6-5.9.6 0 1.2.1 1.8.2l12.2 3L71 15.8c-1-1.8-1.2-3.9-.6-5.9.6-2 1.9-3.6 3.8-4.6 1.1-.6 2.4-.9 3.7-.9 2.9 0 5.5 1.6 6.8 4.1l1.2 2.2.1-.7c1-3.3 4-5.5 7.5-5.5.7 0 1.4.1 2.1.3 4.1 1.2 6.5 5.5 5.3 9.6l-4.6 15.8 24.5 45.7c1 1.8 1.2 3.9.6 5.9-.6 2-1.9 3.6-3.8 4.6-1.2.6-2.4.9-3.7.9zM66.8 35.5c-1.5 0-2.9 1.1-3.3 2.5-.2.9-.1 1.8.4 2.5.5.8 1.2 1.3 2.1 1.5l26.6 6.4c.6.1 1.1.6 1.4 1.1L110.9 81c.8 1.6 3 2.2 4.5 1.4.8-.4 1.4-1.1 1.6-2 .3-.9.2-1.7-.2-2.5L91.9 31.4c-.3-.5-.3-1.1-.2-1.7L96.6 13c.5-1.8-.5-3.6-2.3-4.1-1.6-.5-3.6.6-4.1 2.2L88.5 17c-.3.9-1 1.5-1.9 1.6-.9.1-1.8-.4-2.2-1.2l-3.7-6.9c-.8-1.6-2.9-2.2-4.5-1.4-.8.4-1.4 1.1-1.6 2-.3.9-.2 1.7.2 2.5L87 36.4c.4.8.3 1.7-.2 2.4s-1.4 1-2.3.8l-17-4.1c-.2.1-.4 0-.7 0zm126.5 162.8h-.5c-1.2-.3-2-1.4-1.7-2.6.1-.3 1.4-6.8 8.3-10.4 7-3.7 16.9-3 29.4 2.1 9.8 4.1 18.3 4.6 25.3 1.7 8.7-3.7 12-11.7 12-11.8.5-1.1 1.7-1.7 2.9-1.2 1.1.5 1.7 1.7 1.2 2.9-.2.4-4 9.8-14.4 14.2-8.1 3.4-17.8 2.9-28.8-1.6s-19.8-5.3-25.6-2.3c-5 2.6-6.1 7.2-6.1 7.4-.1.9-1 1.6-2 1.6zm-86.6 0c-1 0-1.9-.7-2.2-1.8-.1-.2-1.1-4.8-6.1-7.4-5.7-3-14.6-2.2-25.6 2.3-11 4.5-20.7 5.1-28.8 1.6-10.4-4.4-14.2-13.8-14.4-14.2-.4-1.1.1-2.4 1.2-2.9 1.1-.4 2.4.1 2.9 1.2 0 .1 3.4 8.1 12 11.8 7 2.9 15.5 2.4 25.3-1.7 12.5-5.1 22.4-5.9 29.4-2.1 6.8 3.6 8.2 10.1 8.3 10.4.2 1.2-.5 2.4-1.7 2.6 0 .2-.1.2-.3.2z"/></svg>