<svg xmlns="http://www.w3.org/2000/svg" viewBox="0 0 300 300"><path fill="#3C1000" d="M108.3 194.5h-2.7c-4.9 0-13 0-17.4 7.3-1.2 2-1.6 4.3-1 6.5.5 2.2 1.9 4.1 3.9 5.3 2.1 1.3 4.7 1.6 6.9.9.2 1.3.8 2.6 1.6 3.7-2 7.9-3 18.4 2.1 29 .5 1 .9 1.9 1.4 2.7.7 1.1 1.4 2.3 2.4 3.5l.6.7c.9 1.1 1.7 2.1 2.5 2.8.1.1.1.2.2.2 9.9 9.9 26.2 15.5 50.1 17.1l.6.1h.3c4.9.3 10.1.5 15.5.5 14.8 0 29.4-1.1 41.4-2.1 3.1-.2 5.9-.5 8.5-.6 10.5-.7 18.7-5 23.8-12.5 10.3-15.1 3.7-37.2 2.9-39.6-1.3-4-5.3-6.6-9.6-5.9-4.3.7-7.3 4.3-7.3 8.5 0 .1-.2 6.3-5 11-4.1 4.1-10.6 6.1-19.4 6.1h-1.3c-5.4-.1-8.6-.5-10.4-.9.6-1.6 1.5-3.6 2.2-5.1 2.6-5.8 5.8-13.1 7.4-22.3 1.4-8.1 1.5-15.8.4-23.2 29.7-10.1 43.5-31.4 42.2-64.8C249.3 68.3 204 25 148.4 25c-1.3 0-2.6 0-4 .1-27.5 1-53 12.7-71.8 32.7-18.7 20.1-28.5 46.2-27.4 73.6 1.3 36.3 22 57 63.1 63.1z"/><path fill="#8ABDE6" d="M192.9 170s11.8 14 7.3 40.1c-4.5 26.1-25.4 37.7 9.2 38.4 34.6.7 34.5-25.7 34.5-25.7s12.2 38.7-19.1 40.8c-31.3 2.2-97.6 10.1-114.2-18-16.5-27.9 25.6-62.5 3.4-75.6"/><path fill="#3C1000" d="M175.5 269.2c-28.1 0-56.7-4.2-67.3-22.1-9-15.2-2.2-31.6 3.7-46.1 6.1-14.9 9.2-23.5.7-28.5-1.4-.8-1.8-2.6-1-3.9.8-1.4 2.6-1.8 4-1 13.2 7.8 7.4 22 1.7 35.7-5.4 13.2-11.6 28.2-4.1 40.9 14.2 24.1 69.6 19.8 102.6 17.3 3.2-.2 6.2-.5 8.9-.7 6.9-.5 12-3 15-7.4 3.5-5.1 4-12 3.6-17.8-1.2 2.2-2.8 4.4-4.9 6.5-6.6 6.5-16.4 9.7-29 9.4-12.7-.3-18.7-1.9-21.2-5.9-2.7-4.3-.4-9.6 2.6-16.3 2.3-5.3 5.3-11.8 6.6-19.6 4.2-24.3-6.5-37.6-6.6-37.8-1-1.2-.9-3 .4-4.1 1.2-1 3-.9 4.1.4.5.6 12.6 15.3 7.9 42.5-1.5 8.5-4.5 15.4-7 20.9-2.1 4.7-4.1 9.2-3 10.8.8 1.3 4.4 3 16.5 3.2 11 .2 19.4-2.4 24.8-7.7 6.6-6.5 6.7-14.9 6.7-15 0-1.4 1-2.6 2.4-2.9 1.4-.2 2.8.6 3.2 2 .3.9 6.7 21.6-2.2 34.6-4.1 6-10.6 9.3-19.4 9.9-2.7.2-5.7.4-8.8.7-12 .9-26.4 2-40.9 2z"/><path fill="#FCD451" d="M177.1 183.9h-56.6c-1.5 12.3-13 29-13.7 45.3.5 4 1.2 8.2 2 12.4.5 1.3 1.1 2.7 1.9 4 8 13.6 27.8 18.8 49.6 20.2-7.3-9.4-16.3-33.7.2-47.7 20.8-17.5 16.6-34.2 16.6-34.2z"/><path fill="#3C1000" d="M160.2 268.8h-.2c-27.4-1.8-44.4-8.9-51.9-21.7-.8-1.3-1.5-2.7-2.1-4.4-.1-.2-.1-.3-.1-.5-.8-4.1-1.4-8.3-2-12.5v-.5c.4-9.7 4.5-19.5 8-28.1 2.6-6.4 5.1-12.5 5.8-17.5.2-1.4 1.4-2.5 2.9-2.5h56.6c1.3 0 2.5.9 2.8 2.2.2.8 4.4 18.6-17.6 37.2-15.2 12.9-6.3 35.4.2 43.7.7.9.8 2.1.3 3.1-.7.9-1.6 1.5-2.7 1.5zm-48.7-28c.5 1.3 1 2.3 1.6 3.3 5.9 10 19.8 16.1 41.5 18.3-6.5-11.9-11.8-33.2 4-46.5 15-12.7 16.2-24.4 16-29.2h-51.7c-1.1 5.1-3.3 10.6-5.7 16.4-3.5 8.5-7.1 17.3-7.6 25.9.5 4.1 1.2 8 1.9 11.8z"/><path fill="#3C1000" d="M142.3 205.7c-19 0-26.2-9.3-26.6-9.8-1-1.3-.7-3.1.6-4 1.3-.9 3.1-.7 4 .6.2.2 11.3 13.7 43.8 3.9 1.5-.5 3.1.4 3.6 1.9s-.4 3.1-1.9 3.6c-9.3 2.7-17.1 3.8-23.5 3.8zm-9.7 41.3c-12.5 0-21.8-9.7-25.4-15.9-.8-1.4-.3-3.1 1-3.9 1.4-.8 3.1-.3 3.9 1 .4.7 10.4 17.1 26.2 12.1 1.5-.5 3.1.4 3.6 1.9s-.4 3.1-1.9 3.6c-2.4.8-5 1.2-7.4 1.2zm-2.1-24.2c-4.9 0-9.1-1.2-12.5-3.5-6.9-4.7-7.7-12.4-7.7-12.7-.2-1.6 1-3 2.6-3.1 1.6-.2 3 1 3.1 2.6 0 .3.7 5.4 5.3 8.6 4.3 2.9 10.8 3.2 19.3.8 1.5-.4 3.1.5 3.6 2 .4 1.5-.5 3.1-2 3.6-4.2 1.1-8.1 1.7-11.7 1.7z"/><path fill="#8ABDE6" d="M53.8 131.1c-2-51.8 38.8-95.4 90.9-97.3 52.2-2 96 38.4 98 90.2 2 51.8-35.2 61.7-87.4 63.6-52.1 1.9-99.5-4.8-101.5-56.5z"/><path fill="#3C1000" d="M140.7 190.7c-40.7 0-87.7-6.8-89.7-59.6-1-25.8 8.2-50.5 25.9-69.4 17.7-18.9 41.8-29.9 67.8-30.9 54.1-2 99 39.6 101 93 2.2 58.3-45.4 64.9-90.2 66.6-5.4.2-10.2.3-14.8.3zm7.7-154.2c-1.2 0-2.4 0-3.6.1-24.5.9-47.1 11.2-63.8 29.1-16.6 17.8-25.3 41-24.4 65.3 1.4 37.4 27.3 54 84 54 4.6 0 9.3-.1 14.6-.3 53.6-2 86.4-12.9 84.6-60.6-1.8-49.1-42-87.6-91.4-87.6z"/><circle transform="matrix(.9993 -.03858 .03858 .9993 -4.679 7.429)" fill="#3C1000" cx="190.1" cy="124.9" r="13"/><circle transform="matrix(.9993 -.03859 .03859 .9993 -4.867 4.207)" fill="#3C1000" cx="106.5" cy="128.2" r="13"/><ellipse transform="rotate(-87.565 88.791 158.348)" fill="#F9D3C1" cx="88.8" cy="158.3" rx="12.7" ry="12.6"/><ellipse transform="rotate(-87.565 208.018 158.348)" fill="#F9D3C1" cx="208" cy="158.3" rx="12.7" ry="12.6"/><path fill="#FFF" d="M200.2 123.8c.1 2.8-2.1 5.1-4.8 5.2-2.8.1-5.1-2.1-5.2-4.8-.1-2.8 2.1-5.1 4.8-5.2 2.7-.1 5.1 2 5.2 4.8zM118 127c.1 2.8-2.1 5.1-4.8 5.2-2.8.1-5.1-2.1-5.2-4.8-.1-2.8 2.1-5.1 4.8-5.2 2.7-.2 5.1 2 5.2 4.8z"/><path fill="#9D0000" d="M95.6 209.2c-.5 0-1-.1-1.5-.4-1.4-.8-1.8-2.6-1-4 2.8-4.6 8.2-4.6 14.9-4.5 7 .1 16.6.2 29.1-4.1 5.7-1.9 9.7-5.2 11.8-9.9 4.7-10.2-.6-23.6-.7-23.7-.6-1.5.1-3.2 1.6-3.8 1.5-.6 3.2.1 3.8 1.6.3.6 6.3 15.8.6 28.3-2.8 6.1-7.9 10.5-15.2 12.9-13.5 4.5-23.6 4.4-31 4.4-5.9-.1-8.9 0-9.9 1.7-.6 1-1.5 1.5-2.5 1.5z"/><path fill="#9D0000" d="M106.5 216c-.5 0-1.1-.1-1.6-.5a3 3 0 01-.9-4l6.4-10a3 3 0 014-.9 3 3 0 01.9 4l-6.4 10c-.5 1-1.4 1.4-2.4 1.4z"/><path fill="#3C1000" d="M141.3 169.8c-3.1 0-6.1-1.2-8.4-3.3-2.5-2.2-3.9-5.3-4-8.6-.1-1.5 1.1-2.8 2.6-2.9 1.5-.1 2.8 1.1 2.9 2.6.1 1.9.9 3.6 2.2 4.8 1.4 1.3 3.1 1.9 5 1.8 3.8-.2 6.8-3.4 6.6-7.2v-.1c0-1.5 1.2-2.7 2.6-2.8 1.6 0 2.8 1.1 2.9 2.6.1 1.9.9 3.6 2.2 4.8 1.4 1.3 3.1 1.9 5 1.8 3.8-.2 6.8-3.4 6.6-7.2-.1-1.5 1.1-2.8 2.6-2.9 1.6 0 2.8 1.1 2.9 2.6.3 6.9-5.1 12.7-11.9 13-3.4.1-6.5-1-8.9-3.3-.3-.3-.6-.6-.9-1-2.2 2.9-5.6 4.9-9.5 5-.1.3-.3.3-.5.3z"/><ellipse fill="#0098DD" cx="153.2" cy="54.3" rx="19.7" ry="11.5"/><ellipse fill="#0098DD" cx="124.4" cy="62.5" rx="11.4" ry="5.6"/></svg>