<svg xmlns="http://www.w3.org/2000/svg" viewBox="0 0 300 300"><path fill="#3C1000" d="M261.6 41.6c-2.1-1.2-4.7-1.7-8-1.7-7.7 0-19.2 3.3-34.3 9.9-9.7-13-22.4-22.7-37-28.2-.7-1.4-1.5-2.7-2.5-3.8 1.4-1.7 1.9-4 1.4-6.2s-2-4.2-4.1-5.1c-1.4-.6-14.2-6.5-24.8-6.5-7.6 0-11.8 3-14 5.9-8.5.4-20.8 2.8-25 12.2-1 2.3-.8 4.9.5 7-12 5.9-22.6 14.7-30.8 25.8-16.3-7.3-28.6-11-36.7-11-3.2 0-5.8.6-8 1.7-3.5 1.9-5.6 5.1-6 9.1-1 10 1.4 18 7.2 23.8 5.8 5.9 14.9 9.3 27.4 10.4-3.1 11.5-4.4 23.8-4.1 36.7 1 34.1 14.9 62.1 39.3 78.9 0 0 .2.2.3.2.9.6 1.7 1.1 2.6 1.7 2.2 1.4 4.4 2.7 6.7 3.8-1.4.1-2.8.1-4 .1-2.6 0-4.2-.2-5.1-.4-2.2-2.4-5.8-5.4-10.2-5.4-2.5 0-4.9 1-6.8 2.8-1.3 1.3-2.2 2.7-2.6 4.3-3 .9-5.4 2.4-7.1 4.6-1.7 2.2-3.5 6.1-2 11.8 2.4 9.1 10.5 15.5 19.9 15.5 7.1 0 13.5-3.6 18.1-10.1.5-.6 1.2-1.7 5.3-1.9-2.4 7.3-3.7 14.5-3.7 20.5 0 4.8.9 9 2.5 12.6h-1.1c-7.6 0-13.1 4.8-15.3 13.1-2.5 9.7-3.3 15.7-.4 20.1 2.5 3.8 6.4 4.4 8.3 4.6.4.1.9.1 1.1.2 1.7.6 4.4 1.2 12.3 1.2 9 0 20.5-.8 20.5-.8 1.5-.1 3-.7 4.1-1.6.8-.7 3.6-3.2 4.8-7.9 1.2 4.8 4 7.2 4.8 7.9 1.2.9 2.6 1.5 4.1 1.6.1 0 11.5.8 20.6.8 7.9 0 10.6-.6 12.3-1.2.2-.1.7-.1 1.1-.2 1.9-.3 5.8-.8 8.3-4.6 2.9-4.4 2.1-10.5-.4-20.1-1-4-2.8-7.1-5.2-9.3 1.1.1 2.3.1 3.5.1 12.7.1 19.9 3.8 21.7 6.3-1.1 2.7-.5 5.8 1.5 7.9.8.8 1.7 1.4 2.8 1.8v.4c.3 2.9 2.2 5.3 4.9 6.3 2.4.8 5.1.4 7-1.1 1.8 1.3 4.1 1.7 6.3 1.1.6-.2 13.5-4.1 9.8-22.6-.4-2.1-4.3-19.8-19.7-30.6.8-3.8-.3-6.7-1.2-8.3-1.2-2.1-2.9-3.9-5.3-5.3-.1-1.7-.6-3.3-1.5-4.9-1.8-3-4.8-4.7-8.4-4.7-3.2 0-6.3 1.5-8.6 3-3.8-.1-10.5-2.2-19.2-6 .6-.3 1.2-.6 1.7-.9l.2-.1c11.4-5.8 21.1-14 28.6-24.4.4-.5.6-1 .9-1.6 12.5-18.1 18.7-41.5 18-67.9-.3-10-1.6-19.5-4-28.6 11.1-1.3 19.2-4.6 24.6-10.1 5.7-5.8 8.2-13.8 7.2-23.8.5-3.7-1.6-6.9-5.1-8.8z"/><path fill="#745C30" d="M178.7 245.8s1.6 11.3 21.4 11.4c19.9.2 32 8.2 28.5 16.5l4.1-1.5.8 8.2 5.5-5.6 3.4 5.4s7-2 4.6-14.1c-2.4-12.1-17.8-46.8-65-26"/><path fill="#3C1000" d="M233.5 283c-.3 0-.6 0-.8-.1-.9-.3-1.5-1.1-1.6-2.1l-.5-5-1.1.4c-.9.3-2 .1-2.6-.6-.7-.7-.9-1.8-.5-2.7.7-1.6.5-3.1-.5-4.7-2.7-4.1-11.7-8.3-25.8-8.4-21.7-.2-23.8-13-23.9-13.6-.2-1.4.8-2.6 2.1-2.8 1.4-.2 2.6.7 2.8 2.1.1.4 1.8 9.2 19 9.3 14.2.1 25.6 4.2 29.9 10.7 1 1.5 1.5 3 1.7 4.6l.2-.1c.7-.3 1.5-.2 2.2.2.6.4 1.1 1.1 1.1 1.9l.3 2.9 1.7-1.8c.5-.5 1.3-.8 2-.7.8.1 1.4.5 1.8 1.1l2 3.3c1.2-1.3 2.6-4.2 1.4-10.1-1.4-6.9-7-20.3-19.3-26.7-11.1-5.8-25.3-4.9-42.3 2.5-1.3.6-2.7 0-3.3-1.3-.6-1.2 0-2.7 1.3-3.3 18.4-8.1 34-8.9 46.6-2.4 17.2 9 21.5 28 21.9 30.1 2.8 14.1-6 16.8-6.3 16.9-1.1.3-2.2-.1-2.8-1.1l-1.7-2.7-3.3 3.3c-.5.6-1.1.9-1.7.9z"/><path fill="#B69457" d="M216.8 224.8s5.3-2.1 3.4-5.3c-1.9-3.2-7.9 1.7-7.9 1.7-9.3 2.2-33.7-10.2-42.5-14.9-4.8-5.7-10.4-9.5-16.4-9.5-7.3 0-14.1 5.6-19.5 13.5-12 2.5-29.1 5.2-35.6 1.8 0 0-4.6-6.2-7.2-3.6-2.7 2.6 2 6 2 6s-14.4-2.5-11.8 7.7c2.6 10.2 16.6 14.8 24.8 3 4.6-6.5 13.4-5 22.1-4.6-4.3 9.4-6.9 19.8-6.9 27.5 0 11.6 5.9 16.7 14.7 18.8.9 5.4 1.7 11.8.1 11.4-2.7-.7-24.2-20.8-28.9-2.7-4.7 18.1-.3 14.4 4.4 16.1 4.7 1.7 29.9 0 29.9 0s1.7-1.3 2.4-4.4c.5-2.4.3-14.5.1-19.3 3 .2 6.2.3 9.5.3 1.5 0 2.9 0 4.4-.1-.1 5.8-.3 16.8.2 19 .7 3 2.3 4.4 2.3 4.4s25.2 1.7 29.9 0c4.7-1.7 9.1 2 4.4-16.1-4.7-18.1-26.2 2-28.9 2.7-1.5.4-.9-5.3-.1-10.5 11.7-1.4 20-6 20-19.8 0-7-2.1-16.1-5.7-24.7 8.6 1.4 18.5 0 21.7 8.4 5.1 13.4 19.7 12.4 24.8 3.2 4.8-8.8-9.7-10-9.7-10z"/><path fill="#3C1000" d="M180.4 295.1c-8.8 0-20.1-.7-20.2-.8-.5 0-1-.2-1.4-.5-.2-.2-2.4-2-3.2-5.8-.4-1.7-.5-7.4-.3-17h-1.8c-2.6 0-4.9 0-6.9-.1.2 7.1.2 15-.3 17.1-.8 3.8-3 5.6-3.2 5.8-.4.3-.9.5-1.4.5-.1 0-11.4.8-20.2.8-7.3 0-9.6-.5-10.7-.9-.6-.2-1.3-.3-2.1-.4-1.6-.2-3.6-.5-4.9-2.5-1.6-2.5-1.4-6.9 1-16.1 2-7.8 6.8-9.4 10.5-9.4 6.6 0 14.2 5.3 18.8 8.5.1.1.2.2.3.2-.1-1.2-.3-3-.7-5.5-10.1-3-15-9.8-15-20.8 0-7.2 2.1-16.5 5.7-25.3-2-.1-3.9-.3-5.7-.3-5.6 0-8.6 1.2-10.6 4-3.6 5.2-8.6 8-14.1 8-7.1 0-13.4-4.9-15.1-11.8-.8-3-.4-5.6 1.1-7.5 1.6-2.1 4.3-3.2 8-3.5-.1-.3-.2-.7-.2-1.1-.1-1.5.4-2.9 1.5-4 .9-.9 2-1.4 3.3-1.4 3.2 0 6.1 3.2 7.3 4.7 1.3.5 3.6 1.1 7.9 1.1 7.5 0 17.3-1.7 24.6-3.2 6.4-9 13.6-13.8 20.9-13.8 6.1 0 12.4 3.5 18 10 7 3.7 28.4 14.6 38.4 14.6.5 0 1 0 1.5-.1 1.3-.9 4.2-2.9 6.9-2.9 1.8 0 3.3.8 4.1 2.3.8 1.4 1 2.8.5 4.2-.1.3-.3.7-.4 1 2.5.8 5.3 2.3 6.6 4.8.9 1.6 1.5 4.4-.5 8.1-2.8 5.1-8.1 8.2-13.8 8.2-6.9 0-12.7-4.4-15.4-11.7-1.8-4.9-6.4-5.5-13.7-6.2-.6-.1-1.2-.1-1.8-.2 2.8 7.7 4.3 15.5 4.3 21.7 0 16.4-11.1 20.6-20.3 22-.3 1.9-.4 3.3-.5 4.3.1-.1.2-.2.3-.2 4.6-3.2 12.2-8.5 18.8-8.5 3.7 0 8.5 1.6 10.5 9.4 2.4 9.3 2.7 13.7 1 16.1-1.3 1.9-3.3 2.2-4.9 2.5-.7.1-1.4.2-2.1.4-.9.6-3.1 1.2-10.4 1.2zm-18.9-5.7c2.9.2 11.7.7 18.9.7 6.6 0 8.5-.4 9-.6 1.1-.4 2.2-.6 3-.7.5-.1 1.3-.2 1.5-.3.2-.3.9-2.2-1.7-12.2-1.3-5-3.7-5.7-5.7-5.7-5 0-12.1 5-16 7.6-2.3 1.6-3.3 2.3-4.2 2.5-.2 0-.5.1-.7.1-.9 0-1.7-.4-2.2-1-.9-1.1-1.7-2.9-.1-12.3.2-1.1 1.1-1.9 2.1-2.1 12.6-1.5 17.8-6.5 17.8-17.3 0-6.6-2-15.5-5.5-23.7-.3-.8-.2-1.8.4-2.5.6-.7 1.5-1 2.3-.9 1.8.3 3.8.5 5.7.7 7 .6 14.9 1.3 17.9 9.4 2 5.4 6 8.5 10.8 8.5 3.9 0 7.6-2.2 9.5-5.6 1.2-2.1.7-3.1.5-3.4-1.1-2.1-5.9-3.1-8-3.3-1.1-.1-2.1-1-2.3-2.1-.2-1.1.5-2.2 1.5-2.7 1.1-.4 2.1-1.3 2.2-1.6-1 0-3.1 1.3-4.3 2.2-.3.2-.6.4-1 .5-.9.2-1.9.3-3.1.3-11.1 0-32.4-10.8-41.1-15.5-.3-.1-.5-.3-.7-.6-3.3-3.9-8.5-8.6-14.5-8.6-7.4 0-13.5 6.8-17.4 12.5-.4.5-.9.9-1.5 1-7.6 1.6-18.3 3.5-26.6 3.5-4.8 0-8.3-.6-10.7-1.9-.3-.2-.6-.4-.8-.7-1.2-1.6-3-3.2-3.7-3.2.1.4 1 1.5 1.9 2.1.9.7 1.3 1.9.8 3-.4 1.1-1.6 1.7-2.7 1.5 0 0-1.4-.2-3.1-.2-2.8 0-4.8.6-5.6 1.6-.5.7-.6 1.8-.2 3.3 1.2 4.7 5.6 8.1 10.4 8.1 3.8 0 7.3-2.1 10-5.9 3.8-5.4 9.8-6.1 14.7-6.1 2.1 0 4.3.1 6.5.3 1 .1 2 .1 3 .2.8 0 1.6.5 2 1.2s.5 1.6.1 2.3c-4.1 9-6.7 19.1-6.7 26.5 0 9.3 3.8 14.3 12.8 16.4 1 .2 1.7 1 1.9 2 1.7 10.2 1 12.1 0 13.2-.6.7-1.4 1.1-2.2 1.1-.2 0-.5 0-.7-.1-.9-.2-1.9-.9-4.2-2.5-3.8-2.7-10.9-7.6-16-7.6-2 0-4.4.6-5.7 5.7-2.6 10-2 11.8-1.7 12.2.2.1 1 .2 1.5.3.9.1 1.9.3 3 .7.5.2 2.4.6 9 .6 7.2 0 16-.5 18.9-.7.3-.5.8-1.3 1.1-2.5.3-1.4.4-8.8.1-18.6 0-.7.3-1.4.8-1.9s1.2-.7 1.9-.7c2.6.2 5.6.3 9.3.3 1.5 0 2.9 0 4.3-.1.7 0 1.3.2 1.8.7.5.5.7 1.1.7 1.8-.3 11.9-.1 17.4.1 18.4.1 1.1.5 2 .9 2.4z"/><path fill="#B69457" d="M70.4 121.4c-1.7-57.6 33.4-95.3 78.2-97.5 44.7-2.2 82.1 32 83.8 89.6 1.7 57.6-30.2 93-74.9 95.2-44.8 2.1-85.4-29.7-87.1-87.3z"/><path fill="#3C1000" d="M153.1 211.2c-39.8 0-83.4-28.1-85.2-89.8-1.6-56.5 31.5-97.7 80.5-100.1 1.4-.1 2.8-.1 4.2-.1 46.8 0 80.6 37.9 82.2 92.1 1.6 56.1-29.4 95.4-77.3 97.7-1.4.2-2.9.2-4.4.2zm-.5-185c-1.3 0-2.6 0-3.9.1-46.2 2.3-77.4 41.3-75.8 95 1.7 58.4 42.8 85 80.2 85 1.4 0 2.8 0 4.2-.1 45.7-2.2 74.2-38.6 72.6-92.6-1.5-51.5-33.3-87.4-77.3-87.4z"/><circle transform="rotate(-2.219 187.812 116.163) scale(1.00005)" fill="#3C1000" cx="187.8" cy="116.2" r="11.2"/><circle transform="matrix(.9993 -.03855 .03855 .9993 -4.304 7.491)" fill="#FFF" cx="192.1" cy="115.3" r="4.3"/><circle transform="rotate(-2.218 116.889 115.337)" fill="#3C1000" cx="116.9" cy="115.3" r="11.2"/><path fill="#FFF" d="M126.7 114.3c.1 2.4-1.8 4.4-4.2 4.5-2.4.1-4.4-1.8-4.5-4.1-.1-2.4 1.8-4.4 4.2-4.5 2.4-.1 4.4 1.7 4.5 4.1z"/><path fill="#B69457" d="M204.9 64.9s53.9-28 55.3-13.5c1.4 14.5-4.4 29.8-49.7 25.8"/><path fill="#3C1000" d="M224.1 80.4c-4.2 0-8.9-.2-13.8-.7-1.4-.1-2.4-1.3-2.2-2.7.1-1.4 1.3-2.3 2.7-2.2 21.7 1.9 36.1-.5 42.7-7.2 3.7-3.7 5.1-8.8 4.4-15.9-.1-.8-.4-1.1-.9-1.4-6.6-3.6-34.7 8.4-50.9 16.8-1.2.6-2.7.2-3.3-1.1-.6-1.2-.2-2.7 1.1-3.3 7.4-3.8 44.7-22.6 55.5-16.8 2 1.1 3.2 2.9 3.4 5.2.8 8.6-1 15.1-5.8 19.9-6.3 6.3-17.1 9.4-32.9 9.4z"/><path fill="#B69457" d="M95.1 64.9s-53.9-28-55.3-13.5C38.4 66 44.2 81.2 89.5 77.2"/><path fill="#3C1000" d="M75.9 80.4c-15.9 0-26.7-3.1-32.8-9.3-4.7-4.8-6.6-11.3-5.8-19.9.2-2.3 1.4-4.1 3.4-5.2 10.8-5.9 48.1 12.9 55.5 16.8 1.2.6 1.7 2.1 1.1 3.3-.6 1.2-2.1 1.7-3.3 1.1-16.2-8.4-44.2-20.4-50.9-16.8-.5.3-.8.6-.9 1.4-.7 7.1.7 12.2 4.4 15.9 6.6 6.7 21 9.1 42.7 7.2 1.4-.1 2.6.9 2.7 2.2.1 1.4-.9 2.6-2.2 2.7-5 .3-9.6.6-13.9.6z"/><path fill="#F8C78C" d="M155.2 154.7c-27.1-.1-49.7 8.3-64.8 24.8 16.4 20.1 41 30.4 67 29.1 23.9-1.2 44.1-11.8 57.5-30.3-13.6-16.5-34.4-23.5-59.7-23.6z"/><path fill="#3C1000" d="M153.1 211.2c-25.5 0-49.1-11-64.6-30.1-.8-1-.7-2.3.1-3.2 15.3-16.7 38.2-25.6 66.3-25.6h.4c27.6.1 48.3 8.3 61.7 24.5.7.9.8 2.1.1 3-13.8 19-34.9 30.1-59.4 31.3-1.6.1-3.1.1-4.6.1zm-59.4-31.6c14.6 17 36.2 26.7 59.4 26.7 1.3 0 2.8 0 4.2-.1 22.3-1.1 41.6-10.9 54.5-27.7-12.4-14-31.5-21.2-56.6-21.2h-.3c-25.8-.1-46.9 7.6-61.2 22.3z"/><circle fill="#4C3E37" cx="128.9" cy="184.6" r="7.1"/><path fill="#3C1000" d="M128.9 194.2c-5.3 0-9.6-4.3-9.6-9.6s4.3-9.6 9.6-9.6 9.6 4.3 9.6 9.6-4.3 9.6-9.6 9.6zm0-14.3c-2.6 0-4.6 2.1-4.6 4.6s2.1 4.6 4.6 4.6c2.6 0 4.6-2.1 4.6-4.6s-2-4.6-4.6-4.6z"/><circle fill="#4C3E37" cx="181.1" cy="184.6" r="7.1"/><path fill="#3C1000" d="M181.1 194.2c-5.3 0-9.6-4.3-9.6-9.6s4.3-9.6 9.6-9.6 9.6 4.3 9.6 9.6-4.3 9.6-9.6 9.6zm0-14.3c-2.6 0-4.6 2.1-4.6 4.6s2.1 4.6 4.6 4.6c2.6 0 4.6-2.1 4.6-4.6s-2-4.6-4.6-4.6z"/><path fill="#745C30" d="M142.9 13.3s-19-.8-22.8 7.9h6.6s-6.1 8.8-6.6 18l8.8-2.2s3.4 18 9.6 25l4.4-8.3 9.8 10.1 2.5-10.5 12.3 1.8s4.8-10.1 0-16.4h9.2s4.4-14.2-7.4-19.5l4.8-5.7c-.1-.3-28.1-13.4-31.2-.2z"/><path fill="#3C1000" d="M152.7 66.1c-.7 0-1.3-.3-1.8-.8l-7.4-7.6-2.8 5.3c-.4.7-1.1 1.2-1.9 1.3-.8.1-1.6-.2-2.2-.8-5.1-5.8-8.4-18.2-9.6-23.6l-6.3 1.6c-.8.2-1.6 0-2.2-.5-.6-.5-.9-1.3-.9-2 .3-6 2.8-11.8 4.7-15.4h-2.2c-.8 0-1.6-.4-2.1-1.1-.5-.7-.5-1.6-.2-2.4 3.6-8.2 17-9.3 23.3-9.4 1.3-3 4.4-5.8 11.2-5.8 9.6 0 22.2 5.8 22.7 6.1.7.3 1.2 1 1.4 1.7.2.7 0 1.5-.5 2.1l-2.9 3.4c8 5.5 7.6 15.8 6 20.9-.3 1-1.3 1.7-2.4 1.7h-5.2c2.1 6.9-1.6 14.6-1.7 15-.5 1-1.5 1.5-2.6 1.4l-10-1.4-2 8.3c-.2.9-.9 1.6-1.8 1.8-.2.2-.4.2-.6.2zm-9.8-15c.7 0 1.3.3 1.8.8l6.6 6.8 1.5-6.1c.3-1.2 1.5-2 2.8-1.9l10.3 1.5c1-2.8 2.4-8.5-.4-12.2-.6-.7-.7-1.8-.2-2.6.4-.8 1.3-1.4 2.2-1.4h7.2c.6-3.5 1.1-11.4-6.5-14.7-.7-.3-1.2-.9-1.4-1.7-.2-.8 0-1.6.5-2.1l2.7-3.2c-4.1-1.7-11.7-4.3-17.6-4.3-6.1 0-6.8 2.9-7 3.9-.3 1.2-1.3 2-2.5 1.9h-1.1c-5.3 0-11.6.8-15.7 2.9h.7c.9 0 1.8.5 2.2 1.3.4.8.4 1.8-.2 2.6 0 .1-4.3 6.2-5.7 13.3l5.3-1.3c.7-.2 1.4 0 1.9.3.6.4 1 .9 1.1 1.6 0 .1 2.5 13 6.9 20.7l2.5-4.7c.4-.7 1.1-1.2 1.8-1.3.1-.1.2-.1.3-.1z"/></svg>