<svg xmlns="http://www.w3.org/2000/svg" viewBox="0 0 300 300"><path fill="#3C1000" d="M281.4 107.4c-1.4-12.4-8.6-23.2-19.3-29.3.6-2.8 1-5.7 1-8.6 0-20.8-16.4-37.9-37-38.9-5.6-15-20.1-25.2-36.4-25.2-8.1 0-15.8 2.5-22.3 7C160.1 4.6 149.8 0 138.8 0c-10.1 0-19.7 3.9-26.9 10.9-3.3-.9-6.6-1.3-10-1.3-17.4 0-32.5 11.5-37.3 27.8-18.2 3.5-31.5 19.3-31.5 38.2 0 2.9.3 5.8 1 8.6-7.6 5.5-13 13.5-15.2 22.7-4.6 5.4-7.4 11.9-8.1 19-.9 9.3 1.8 18.3 7.7 25.5 2.9 3.6 6.6 6.4 10.7 8.4 4.7 16.6 20 28.3 37.5 28.3 1.5 0 3-.1 4.6-.3 2.6 2.8 5.6 5.2 8.9 7.4-1 1.2-1.7 2.5-2.1 3.9-3.3.9-5.9 2.6-7.8 5.1-1.9 2.4-3.8 6.6-2.2 12.9 2.6 10 11.5 17 21.8 17 7.8 0 14.8-3.9 19.8-11.1.5-.7 1.3-1.8 5.8-2-2.6 8-4 15.9-4 22.4 0 5.2.9 9.8 2.8 13.8h-1.2c-8.2 0-14.3 5.2-16.7 14.3-2.7 10.5-3.6 17.2-.4 22 2.7 4.1 7 4.7 9.1 5 .5.1 1 .1 1.2.2 1.9.7 4.8 1.3 13.4 1.3 9.9 0 22.3-.8 22.4-.8 1.7-.1 3.2-.7 4.5-1.8.9-.7 3.9-3.4 5.2-8.6 1.4 5.2 4.3 7.9 5.2 8.6 1.3 1 2.9 1.6 4.5 1.8.1 0 12.6.8 22.4.8 8.7 0 11.6-.6 13.4-1.3.2-.1.8-.2 1.2-.2 2.1-.3 6.3-.9 9.1-5 3.2-4.8 2.3-11.4-.4-22-1.9-7.4-6.3-12.3-12.4-13.8 1.9-4 2.9-8.7 2.9-14.2 0-5.2-.9-11.2-2.5-17.4 3 .6 3.8 1.3 4.3 2.5 3.8 10 12.2 16.3 21.9 16.3 8.3 0 15.8-4.5 19.8-11.7 3.6-6.5 1.9-11.6.6-14-1.3-2.3-3.2-4.3-5.8-5.8-.1-1.8-.6-3.6-1.6-5.3-2-3.3-5.3-5.1-9.1-5.1-3.5 0-6.9 1.6-9.4 3.3-1.8 0-5.3-.6-11.4-2.7 11.6-3.2 20.5-7.7 27.5-13.9 3.2.8 6.5 1.3 9.7 1.3 21.2 0 38.5-17 38.9-38.1.4-.4.7-.8 1-1.2 5.9-7.2 8.6-16.3 7.7-25.5-.8-7.1-3.5-13.5-7.9-18.8z"/><path fill="#FFF" d="M223.7 218s5.8-2.3 3.7-5.8c-2.1-3.5-8.6 1.8-8.6 1.8-10.1 2.4-36.7-11.1-46.3-16.3-5.2-6.2-11.4-10.4-17.9-10.4-8 0-15.4 6.2-21.3 14.8-13.1 2.8-31.8 5.7-38.8 2 0 0-5-6.8-7.9-3.9-2.9 2.9 2.1 6.5 2.1 6.5S73 204 75.9 215.1c2.8 11.1 18.1 16.1 27 3.3 5-7.1 14.6-5.5 24.1-5-4.7 10.3-7.5 21.6-7.5 30 0 12.7 6.4 18.2 16.1 20.6 1 5.9 1.8 12.9.1 12.4-2.9-.7-26.4-22.7-31.5-2.9-5.1 19.8-.4 15.7 4.8 17.6s32.6 0 32.6 0 1.8-1.5 2.6-4.8c.6-2.6.3-15.9.2-21 3.3.3 6.7.3 10.4.3 1.6 0 3.2 0 4.8-.1-.1 6.3-.3 18.3.2 20.7.7 3.3 2.6 4.8 2.6 4.8s27.5 1.8 32.6 0c5.1-1.8 9.9 2.2 4.8-17.6-5.1-19.8-28.6 2.2-31.5 2.9-1.6.4-1-5.8-.1-11.4 12.8-1.5 21.8-6.5 21.8-21.6 0-7.6-2.3-17.5-6.2-26.9 9.4 1.6 20.2 0 23.6 9.2 5.5 14.7 21.5 13.5 27 3.5 5.2-9.9-10.7-11.1-10.7-11.1z"/><path fill="#3C1000" d="M183.9 294.6c-9.6 0-21.9-.8-22-.8-.6 0-1.1-.2-1.5-.6-.3-.2-2.6-2.2-3.5-6.3-.2-.7-.6-2.8-.3-18.6h-2c-2.9 0-5.4-.1-7.6-.2.2 10.5.1 16.8-.3 18.7-.9 4.1-3.2 6.1-3.5 6.3-.4.3-1 .6-1.5.6-.1 0-12.4.8-22 .8-8 0-10.5-.6-11.6-1-.7-.3-1.5-.4-2.3-.5-1.8-.3-3.9-.6-5.4-2.7-1.8-2.7-1.5-7.5 1.1-17.6 2.2-8.5 7.4-10.3 11.5-10.3 7.2 0 15.5 5.8 20.5 9.3.1.1.2.2.4.3-.1-1.3-.3-3.2-.7-6-11-3.3-16.4-10.7-16.4-22.7 0-7.9 2.3-18 6.2-27.6-2.2-.1-4.3-.3-6.2-.3-6.1 0-9.4 1.3-11.6 4.4-3.9 5.6-9.4 8.8-15.3 8.8-7.8 0-14.6-5.3-16.5-12.9-.9-3.3-.4-6.1 1.2-8.2 1.7-2.2 4.7-3.5 8.7-3.8-.1-.4-.2-.8-.2-1.2-.1-1.6.5-3.1 1.7-4.3 1-1 2.2-1.5 3.6-1.5 3.4 0 6.6 3.4 8 5.2 1.4.6 4 1.2 8.6 1.2 8.2 0 18.9-1.8 26.8-3.5 7-9.9 14.9-15.1 22.9-15.1 6.7 0 13.5 3.8 19.6 10.9 7.6 4.1 30.9 16 41.9 16 .6 0 1.1 0 1.6-.1 1.4-1 4.6-3.2 7.6-3.2 1.9 0 3.5.9 4.5 2.5.9 1.5 1.1 3.1.6 4.6-.1.4-.3.7-.5 1.1 2.8.9 5.8 2.5 7.2 5.2 1 1.8 1.7 4.8-.6 8.8-3 5.5-8.8 8.9-15.1 8.9-7.5 0-13.8-4.8-16.8-12.8-2-5.3-7-6-14.9-6.7-.7-.1-1.3-.1-2-.2 3 8.4 4.7 16.9 4.7 23.7 0 17.9-12.1 22.4-22.1 24-.3 2.1-.5 3.6-.5 4.7.1-.1.2-.2.4-.3 5-3.5 13.3-9.3 20.5-9.3 4 0 9.3 1.8 11.5 10.3 2.6 10.1 2.9 14.9 1.1 17.6-1.4 2.1-3.6 2.4-5.4 2.7-.8.1-1.5.2-2.3.5-1.3.6-3.8 1.2-11.8 1.2zm-20.6-6.1c3.2.2 12.8.7 20.6.7 7.2 0 9.3-.5 9.8-.7 1.2-.4 2.4-.6 3.3-.7.6-.1 1.4-.2 1.7-.4.3-.4.9-2.4-1.9-13.3-1.4-5.5-4.1-6.2-6.2-6.2-5.5 0-13.3 5.4-17.4 8.4-2.5 1.8-3.6 2.5-4.6 2.7-.2.1-.6.1-.8.1-.9 0-1.8-.4-2.4-1.1-1-1.2-1.8-3.1-.2-13.4.2-1.2 1.1-2.1 2.3-2.3 13.8-1.6 19.4-7.1 19.4-18.9 0-7.2-2.2-16.9-6-25.9-.4-.9-.2-1.9.4-2.7.6-.8 1.6-1.1 2.6-1 2 .3 4.1.5 6.2.7 7.6.7 16.2 1.5 19.5 10.2 2.2 5.9 6.5 9.3 11.8 9.3 4.3 0 8.3-2.3 10.3-6.1 1.3-2.3.7-3.3.6-3.7-1.2-2.3-6.4-3.4-8.8-3.6-1.3-.1-2.3-1.1-2.5-2.3-.2-1.2.5-2.4 1.7-2.9s2.3-1.4 2.4-1.8c-1.1 0-3.4 1.4-4.7 2.4-.3.3-.7.4-1.1.5-1 .2-2.1.4-3.4.4-12.1 0-35.4-11.8-44.9-16.9-.3-.2-.6-.4-.8-.6-3.6-4.3-9.3-9.4-15.8-9.4-8 0-14.8 7.4-19 13.6-.4.6-1 1-1.7 1.1-8.3 1.7-20 3.8-29 3.8-5.2 0-9-.7-11.6-2-.4-.2-.7-.5-.9-.8-1.3-1.7-3.3-3.5-4.1-3.5.1.4 1 1.6 2.1 2.3 1 .7 1.4 2.1.9 3.2-.5 1.2-1.7 1.8-2.9 1.6 0 0-1.5-.3-3.4-.3-3 0-5.2.6-6.1 1.7-.6.7-.7 1.9-.2 3.6 1.3 5.1 6.1 8.8 11.3 8.8 4.1 0 8-2.3 10.9-6.5 4.1-5.9 10.7-6.7 16-6.7 2.3 0 4.7.2 7.1.3 1.1.1 2.2.1 3.3.2.9 0 1.7.5 2.2 1.3.5.8.5 1.7.1 2.5-4.5 9.8-7.3 20.9-7.3 28.9 0 10.2 4.2 15.5 14 17.9 1 .3 1.8 1.1 2 2.2 1.9 11.2 1.1 13.2 0 14.4-.6.7-1.5 1.2-2.4 1.2-.2 0-.6 0-.8-.1-1-.3-2.1-1-4.6-2.7-4.2-2.9-11.9-8.3-17.4-8.3-2.2 0-4.8.7-6.2 6.2-2.8 10.9-2.1 12.9-1.9 13.3.2.1 1.1.3 1.6.3.9.1 2.1.3 3.3.7.6.2 2.6.7 9.8.7 7.8 0 17.4-.5 20.6-.7.4-.5.9-1.4 1.2-2.7.3-1.2.4-7.2.1-20.3 0-.8.3-1.5.8-2 .6-.5 1.3-.8 2.1-.7 2.8.2 6.1.3 10.1.3 1.6 0 3.2 0 4.7-.1.8 0 1.5.3 2 .8s.8 1.2.8 2c-.3 13-.1 18.9.1 20.1.5 1.5 1 2.3 1.3 2.9z"/><path fill="#FFF" d="M210.7 151.9c0 17 13.8 30.8 30.8 30.8s30.8-13.8 30.8-30.8c0-7.3-2.6-14-6.8-19.3 5-5.5 8-12.7 8-20.7 0-13.8-9-25.4-21.5-29.4 1.8-4 2.9-8.3 2.9-13 0-17-13.8-30.8-30.8-30.8-1.4 0-2.8.1-4.2.3-2.6-14.5-15.1-25.5-30.3-25.5-9.5 0-17.9 4.3-23.6 11-5.2-9.8-15.4-16.4-27.3-16.4-10 0-18.9 4.8-24.5 12.2-3.8-1.7-8-2.6-12.4-2.6C86 17.7 73 29.6 71.2 44.8c-16.7.4-30.1 14-30.1 30.8 0 4.4.9 8.5 2.6 12.3C33.3 92.8 26 103.4 26 115.8c0 9.6 4.4 18.2 11.4 23.9-1 3-1.5 6.2-1.5 9.6 0 17 13.8 30.8 30.8 30.8s30.8-13.8 30.8-30.8"/><path fill="#3C1000" d="M241.6 185.4c-18.5 0-33.5-15-33.5-33.5 0-1.5 1.2-2.7 2.7-2.7 1.5 0 2.7 1.2 2.7 2.7 0 15.5 12.6 28.1 28.1 28.1 15.5 0 28.1-12.6 28.1-28.1 0-6.5-2.2-12.6-6.2-17.6-.8-1-.8-2.5.1-3.5 4.7-5.2 7.3-11.9 7.3-18.9 0-12.3-7.9-23.1-19.6-26.8-.7-.2-1.3-.8-1.7-1.5-.3-.7-.3-1.5 0-2.2 1.8-3.8 2.6-7.8 2.6-11.9 0-15.5-12.6-28.1-28.1-28.1-1.1 0-2.3.1-3.8.3-1.4.2-2.8-.8-3-2.2-2.4-13.5-14-23.2-27.7-23.2-8.3 0-16.2 3.7-21.5 10-.6.7-1.5 1-2.3.9-.9-.1-1.7-.6-2.1-1.4-4.9-9.2-14.4-15-24.9-15-8.8 0-17 4.1-22.4 11.1-.8 1-2.1 1.3-3.2.8-3.6-1.6-7.4-2.4-11.3-2.4C87.7 20.4 75.7 31 74 45.1c-.2 1.3-1.3 2.3-2.6 2.4-15.4.4-27.5 12.7-27.5 28.1 0 3.9.8 7.6 2.3 11.2.6 1.3 0 2.9-1.3 3.5-9.9 4.6-16.2 14.6-16.2 25.5 0 8.5 3.8 16.4 10.4 21.8.9.7 1.2 1.9.9 2.9-.9 2.9-1.4 5.8-1.4 8.7 0 15.5 12.6 28.1 28.1 28.1 15.5 0 28.1-12.6 28.1-28.1 0-1.5 1.2-2.7 2.7-2.7 1.5 0 2.7 1.2 2.7 2.7 0 18.5-15 33.5-33.5 33.5s-33.5-15-33.5-33.5c0-2.9.4-5.8 1.2-8.7-7-6.4-11-15.3-11-24.8 0-12.1 6.6-23.3 17.1-29.2-1.2-3.5-1.9-7.2-1.9-11C38.5 58 51.7 43.8 69 42.2c3-15.7 16.7-27.3 32.9-27.3 4 0 7.9.7 11.6 2.1 6.4-7.4 15.5-11.6 25.4-11.6 11.2 0 21.5 5.5 27.7 14.7 6.2-5.9 14.5-9.3 23.1-9.3 15.4 0 28.7 10.5 32.5 25.2.7-.1 1.4-.1 2-.1 18.5 0 33.5 15 33.5 33.5 0 3.9-.7 7.8-2 11.4 12.4 5.2 20.6 17.3 20.6 30.9 0 7.6-2.6 14.9-7.3 20.8 3.9 5.6 6.1 12.4 6.1 19.2 0 18.7-15 33.7-33.5 33.7z"/><path fill="#FCECDC" d="M224.3 135.9c-11.4-2-20.1-11.9-20.1-23.9 0-2 .3-4 .7-5.8-1.4.2-2.8.4-4.3.4-8.4 0-15.8-4.2-20.1-10.7-2.1.6-4.3.9-6.5.9-7.1 0-13.5-3.1-17.9-7.9-4.2 3.6-9.7 5.8-15.7 5.8-5.4 0-10.3-1.8-14.3-4.7-3.9 8.1-12.2 13.7-21.8 13.7-1 0-2-.1-2.9-.2-1.6 10-9.2 18-19.1 20 0 .4.1.7.1 1.1 0 11.3-7.7 20.7-18.1 23.4v.4c1.8 48.5 46.2 54.7 95 52.9 44.7-1.7 77.6-9.6 81.4-48-8.1-2.7-14.3-9.2-16.4-17.4z"/><path fill="#3C1000" d="M145.5 204.1c-.1 0-.1 0 0 0-38.1 0-82.1-6.3-84-55.7v-.3c0-1.2.8-2.5 2-2.8 9.5-2.5 16.1-11 16.1-20.8v-1c-.1-1.3.9-2.5 2.2-2.8 8.8-1.8 15.6-8.9 17-17.8.2-1.4 1.6-2.4 3-2.3.9.1 1.7.2 2.6.2 8.3 0 15.7-4.7 19.4-12.2.3-.7 1-1.2 1.8-1.4.8-.2 1.6 0 2.2.4 3.7 2.7 8.1 4.2 12.7 4.2 5.1 0 10.1-1.8 14-5.2 1.1-.9 2.8-.8 3.7.2 5.4 5.9 13.7 8.5 21.7 6.2 1.1-.3 2.3.1 3 1.1 4 6 10.7 9.5 17.9 9.5 1.2 0 2.5-.1 3.8-.4.9-.2 1.8.2 2.4.8.6.7.9 1.6.6 2.5-.4 1.8-.7 3.5-.7 5.2 0 10.5 7.5 19.4 17.9 21.2 1.1.2 1.9 1 2.2 2 1.8 7.2 7.4 13.1 14.5 15.3 1.2.4 2 1.6 1.9 2.8-4 39.4-36.5 48.7-84 50.5-5.1.5-9.6.6-13.9.6zM67 149.9c2.1 33.8 26.4 48.8 78.5 48.8 4.3 0 8.7-.1 13.6-.3 45.1-1.7 74.1-9.7 78.6-43.5-7.4-3-13.1-9.2-15.5-16.8-12.1-2.9-20.7-13.6-20.7-26.2 0-.9.1-1.8.2-2.8-8.8.3-16.9-3.6-22.2-10.3-8.6 1.8-17.3-.8-23.5-6.5-8.4 5.9-20 6.5-28.9 1.4-5 8-13.8 12.9-23.5 12.5-2.3 9.2-9.4 16.6-18.5 19.2-.6 11.2-7.7 20.8-18.1 24.5z"/><path fill="#F7C6AC" d="M165.5 159.1c.2 3.9-4.5 7.3-10.3 7.5-5.8.2-10.7-2.8-10.9-6.7-.2-3.9 4.5-7.3 10.3-7.5 5.9-.2 10.7 2.8 10.9 6.7z"/><path fill="#3C1000" d="M154.6 168c-6.3 0-11.4-3.5-11.5-8-.1-2.3 1.1-4.6 3.4-6.2 2.2-1.6 5-2.5 8.1-2.6 6.6-.3 12 3.3 12.2 7.9.1 2.3-1.1 4.6-3.4 6.2-2.2 1.6-5 2.5-8.1 2.6l-.7.1zm.7-14.3h-.6c-2.6.1-5 .8-6.7 2.1-1.6 1.2-2.4 2.6-2.4 4.1.1 3 4.1 5.5 8.9 5.5h.6c2.6-.1 5-.9 6.7-2.1 1.6-1.2 2.4-2.6 2.4-4.1-.1-3-4.1-5.5-8.9-5.5zm48.6-11.6c.3 6.7-5 12.4-11.7 12.7-6.7.3-12.4-5-12.7-11.7-.3-6.7 5-12.4 11.7-12.7 6.8-.3 12.5 5 12.7 11.7z"/><circle transform="rotate(-2.204 113.54 145.592) scale(1.00004)" fill="#3C1000" cx="113.5" cy="145.6" r="12.2"/><ellipse transform="rotate(-87.557 96.916 173.816) scale(1.00001)" fill="#F9D3C1" cx="96.9" cy="173.8" rx="11.9" ry="11.8"/><ellipse transform="rotate(-87.557 211.368 173.817) scale(1.00001)" fill="#F9D3C1" cx="211.4" cy="173.8" rx="11.9" ry="11.8"/><circle transform="matrix(.9993 -.03855 .03855 .9993 -5.316 7.678)" fill="#FFF" cx="196.4" cy="141.7" r="4.7"/><path fill="#FFF" d="M124.2 144.5c.1 2.6-1.9 4.8-4.5 4.9-2.6.1-4.8-1.9-4.9-4.5-.1-2.6 1.9-4.8 4.5-4.9 2.6-.2 4.8 1.9 4.9 4.5z"/><path fill="#3C1000" d="M146.1 184.5c-2.9 0-5.7-1.1-7.9-3.1-2.3-2.1-3.6-5-3.8-8.1-.1-1.4 1-2.6 2.5-2.7 1.4-.1 2.6 1 2.7 2.5.1 1.7.8 3.3 2.1 4.5 1.3 1.2 2.9 1.8 4.7 1.7 1.7-.1 3.3-.8 4.5-2.1 1.2-1.3 1.8-2.9 1.7-4.7v-.1c0-1.4 1.1-2.5 2.5-2.6 1.5 0 2.6 1 2.7 2.5.2 3.6 3.2 6.4 6.8 6.2 3.6-.2 6.4-3.2 6.2-6.8-.1-1.4 1-2.6 2.5-2.7 1.5 0 2.6 1 2.7 2.5.3 6.4-4.7 11.9-11.1 12.1-3.7.1-7-1.4-9.2-4-.2.3-.5.7-.8 1-2.1 2.3-5 3.6-8.1 3.8-.4.1-.6.1-.7.1z"/><path fill="#CCA778" d="M271.4 108.8c11.4 9.3 13.1 26.2 3.8 37.6-7.9 9.7-22.3 11.2-32 3.2-8.4-6.8-9.6-19.2-2.8-27.5 4.6-5.6 12-7.5 18.5-5.4-7.4-3.3-16.4-1.5-21.7 5.1-2.4 2.9-6.6 3.3-9.5 1-2.9-2.4-3.3-6.6-1-9.5 11.1-13.6 31.2-15.6 44.7-4.5zm-19.6 30.4c4 3.2 9.8 2.6 13-1.3 3.2-3.9 3.8-9 2-13.3.1 1.6-.4 3.3-1.5 4.7-2.4 2.9-6.6 3.3-9.5 1-1.5-1.2-3.7-1-4.9.5-2.1 2.4-1.7 6.3.9 8.4z"/><path fill="#3C1000" d="M257.6 157.5c-5.8 0-11.6-2-16.1-5.7-4.6-3.8-7.5-9.1-8.1-15-.4-3.5.1-7 1.3-10.2-2.9.9-6.4.3-8.8-1.7-2-1.6-3.2-3.9-3.4-6.4-.3-2.5.5-5 2.1-6.9 6.6-8 16.3-12.7 26.7-12.7 7.9 0 15.6 2.8 21.8 7.8 6.1 5 9.9 12 10.7 19.9.8 7.8-1.5 15.5-6.5 21.6-4.8 5.8-12 9.3-19.7 9.3zm-4-38.9c-4.3 0-8.4 1.9-11.1 5.2-2.8 3.5-4.2 7.9-3.7 12.4s2.6 8.5 6.1 11.4c3.6 2.9 8.1 4.5 12.7 4.5 6.1 0 11.7-2.7 15.6-7.4 4.1-5 5.9-11.2 5.3-17.6-.6-6.4-3.7-12.2-8.7-16.2-5.2-4.2-11.7-6.5-18.3-6.5-8.8 0-17 3.9-22.5 10.7-.7.8-1 1.9-.9 3 .1 1.1.6 2 1.5 2.7 1.7 1.4 4.3 1.1 5.7-.6 4-4.9 9.9-7.7 16.3-7.7 3 0 5.9.6 8.7 1.9 1.3.6 1.9 2.1 1.4 3.4-.5 1.3-2 2-3.4 1.6-1.7-.6-3.2-.8-4.7-.8zm4 25.4c-2.7 0-5.4-1-7.6-2.7-1.8-1.5-2.9-3.6-3.2-5.9-.2-2.3.5-4.6 1.9-6.4 2.1-2.5 6.2-3 8.7-.9 1.7 1.4 4.3 1.1 5.7-.6.6-.8 1-1.8.9-2.8-.1-1.3.8-2.5 2.1-2.8 1.3-.3 2.6.4 3.1 1.6 2.2 5.4 1.2 11.5-2.5 16-2.1 2.9-5.5 4.5-9.1 4.5zm-4-11.9c-.1 0-.4 0-.6.3-.6.7-.8 1.6-.7 2.5.1.9.5 1.7 1.2 2.3 1.2 1 2.6 1.5 4.1 1.5 2 0 3.8-.9 5.1-2.4.7-.9 1.2-1.8 1.6-2.8-3.2 1.6-7.4 1.2-10.2-1.1-.2-.3-.4-.3-.5-.3z"/><path fill="#CCA778" d="M28.6 108.8c13.6-11.1 33.6-9 44.7 4.5 2.4 2.9 1.9 7.1-1 9.5-2.9 2.4-7.1 1.9-9.5-1-5.4-6.6-14.3-8.4-21.7-5.1 6.5-2.1 13.9-.2 18.5 5.4 6.8 8.4 5.6 20.7-2.8 27.5-9.7 7.9-24.1 6.5-32-3.2-9.4-11.4-7.7-28.3 3.8-37.6zm19.6 30.4c2.6-2.1 3-5.9.9-8.5-1.2-1.5-3.4-1.7-4.9-.5-2.9 2.4-7.1 1.9-9.5-1-1.1-1.4-1.6-3-1.5-4.7-1.7 4.3-1.1 9.5 2 13.3 3.2 4 9.1 4.6 13 1.4z"/><path fill="#3C1000" d="M42.4 157.5c-7.7 0-14.9-3.4-19.7-9.3-5-6.1-7.3-13.8-6.5-21.6.8-7.8 4.6-14.9 10.7-19.9 6.1-5 13.9-7.8 21.8-7.8 10.4 0 20.2 4.6 26.7 12.7 1.6 2 2.3 4.4 2.1 6.9-.3 2.5-1.5 4.8-3.4 6.4-2.4 2-5.9 2.6-8.8 1.7 1.2 3.2 1.7 6.7 1.3 10.2-.6 5.9-3.5 11.2-8.1 15-4.5 3.6-10.3 5.7-16.1 5.7zm6.2-53.2c-6.7 0-13.2 2.3-18.3 6.5-5 4.1-8.1 9.8-8.7 16.2-.6 6.4 1.2 12.7 5.3 17.6 3.8 4.7 9.5 7.4 15.6 7.4 4.6 0 9.1-1.6 12.7-4.5 3.5-2.8 5.6-6.9 6.1-11.4s-.9-8.9-3.7-12.4c-2.7-3.3-6.8-5.2-11.1-5.2-1.5 0-3 .2-4.4.7-1.3.5-2.8-.2-3.4-1.6-.5-1.3.1-2.8 1.4-3.4 2.7-1.2 5.6-1.9 8.7-1.9 6.3 0 12.3 2.8 16.3 7.7 1.4 1.7 4 1.9 5.7.6.8-.7 1.4-1.7 1.5-2.7.1-1.1-.2-2.1-.9-3-5.8-6.7-14-10.6-22.8-10.6zM42.4 144c-3.6 0-7-1.6-9.3-4.4-3.7-4.5-4.6-10.6-2.5-16 .5-1.2 1.8-1.9 3.1-1.6 1.3.3 2.2 1.5 2.1 2.8-.1 1 .3 2 .9 2.8 1.4 1.7 4 1.9 5.7.6 2.5-2.1 6.6-1.7 8.7.9 1.5 1.8 2.2 4.1 1.9 6.4-.2 2.3-1.4 4.4-3.2 5.9-2 1.6-4.7 2.6-7.4 2.6zm-6.7-10.6c.4 1 .9 1.9 1.6 2.8 2.2 2.7 6.5 3.1 9.2.9.7-.6 1.1-1.4 1.2-2.3.1-.9-.2-1.8-.7-2.5-.5-.6-.8-.4-1.1-.1-2.9 2.4-7.1 2.8-10.2 1.2z"/></svg>