<svg xmlns="http://www.w3.org/2000/svg" viewBox="0 0 300 300"><path fill="#3C1000" d="M250.9 21.5c-11.4 0-22.1 3.8-30.8 10.9C199.9 15.7 174.4 7 147.8 8c-24.5.9-47.7 10.1-66.1 26-8.9-8-20.5-12.5-32.7-12.5-27 0-49 22-49 49.1 0 25.8 20 47 45.2 48.9 1.5 27.9 14.8 43.8 30.6 52.8-2.2.4-4.2 1.5-5.8 3.1-1.5 1.5-2.6 3.3-3.2 5.2-3.6 1-6.5 2.9-8.6 5.6-2.1 2.7-4.2 7.3-2.4 14.2 2.8 11 12.7 18.8 24.1 18.8 1.6 0 3.2-.2 4.8-.5-8.7 3.4-14.9 8.8-18.5 15.9-.6-3.4-2.2-6.6-4.6-9.2-3.3-3.5-7.8-5.5-13-5.6-9.6 0-17.7 7.8-17.9 17.4-.6 21.4 13.3 31.9 25.3 34.5 2.5.5 5 .8 7.6.8 8.1 0 16-2.6 22.4-7.1-2 8.9-2.3 14.9.7 19.4 3 4.6 7.8 5.2 10 5.6.5.1 1.1.2 1.3.2 2.1.7 5.3 1.4 14.9 1.4 10.9 0 24.7-.9 24.7-.9 1.8-.1 3.6-.8 5-1.9 1-.8 4.3-3.8 5.8-9.5 1.5 5.7 4.8 8.7 5.8 9.5 1.4 1.2 3.2 1.8 5 1.9.1 0 13.9.9 24.8.9 9.6 0 12.8-.7 14.9-1.4.2-.1.8-.2 1.3-.2 2.3-.3 7-1 10-5.6 3.5-5.3 2.6-12.6-.4-24.3-2.1-8.2-7-13.6-13.7-15.2 2.1-4.4 3.2-9.7 3.2-15.7 0-5.7-1-12.3-2.8-19.2 3.3.6 4.2 1.4 4.7 2.8 4.2 11.1 13.5 18 24.2 18 9.1 0 17.5-5 21.9-13 4-7.2 2.1-12.8.6-15.5-1.4-2.6-3.6-4.7-6.4-6.4-.1-2-.7-4-1.8-5.9-2.2-3.6-5.8-5.7-10.1-5.7-3.9 0-7.6 1.8-10.4 3.7-4.5-.1-12.4-2.6-22.3-6.8 30.7-5.5 59.5-20 61.5-62.4A48.92 48.92 0 00300 70.7c0-27.2-22-49.2-49.1-49.2zM101.8 207c.5-.8 1.4-2 6.4-2.2-1.1 3.3-1.9 6.5-2.6 9.8-5.6.4-10.6 1.2-15.2 2.4 4.3-2.1 8.2-5.5 11.4-10z"/><path fill="#B79A51" d="M63.5 263.5c-1.9 0-3.8-.2-5.7-.6-9.1-2-18.6-9.7-18.2-25.4.1-4.9 4.3-8.8 9.2-8.7 4.9.1 8.8 4.2 8.7 9.2-.2 6.5 2.8 7.1 4.1 7.4 4.5 1 10.5-1.8 12.1-5.6 8.2-19.5 43-16.8 49.9-16 4.9.5 8.5 4.9 7.9 9.9-.5 4.9-5 8.5-9.9 7.9-14.4-1.5-29.7 1-31.4 5.1-4.2 10.1-15.4 16.8-26.7 16.8z"/><path fill="#3C1000" d="M63.5 266.5c-2.1 0-4.3-.2-6.3-.7-10.3-2.2-21-10.8-20.6-28.4.2-6.4 5.5-11.6 12-11.6 3.5.1 6.4 1.4 8.6 3.7 2.2 2.3 3.4 5.3 3.3 8.5-.1 4 1 4.3 1.7 4.4 3 .6 7.7-1.5 8.7-3.9 6.4-15.2 26.2-18.4 41.7-18.4 5.1 0 9.2.4 11.2.6 6.5.7 11.3 6.6 10.6 13.1-.7 6.5-6.5 11.3-13.1 10.6-2.7-.3-5.5-.4-8.4-.4-12.2 0-19.2 2.5-20 3.8-4.5 11.1-16.6 18.7-29.4 18.7zm-14.7-34.7c-3.3 0-6 2.6-6.1 5.8-.5 17.5 12 21.6 15.9 22.4 1.6.3 3.3.5 5 .5 10.2 0 20.3-6.3 23.9-15 3-7.1 21.8-7.4 25.5-7.4 3 0 6.1.2 9 .5 3.3.4 6.2-2 6.6-5.3.3-3.3-2-6.2-5.3-6.6-1.9-.2-5.7-.5-10.6-.5-11.2 0-30.8 1.9-36.2 14.7-1.8 4.3-7.5 7.6-12.9 7.6-.9 0-1.7-.1-2.5-.3-4.4-.9-6.6-4.5-6.4-10.4 0-1.6-.5-3.1-1.6-4.3-1.3-1-2.7-1.6-4.3-1.7z"/><path fill="#B79A51" d="M228 201.4s6.4-2.5 4.1-6.4c-2.3-3.9-9.5 2-9.5 2-11.2 2.7-40.6-12.3-51.2-18-5.8-6.9-12.6-11.5-19.8-11.5-8.8 0-17 6.8-23.5 16.3-14.5 3.1-35.2 6.3-42.9 2.2 0 0-5.5-7.5-8.7-4.3-3.2 3.2 2.4 7.2 2.4 7.2s-17.3-3-14.2 9.2c3.1 12.3 20 17.8 29.9 3.6 5.5-7.9 16.1-6.1 26.6-5.5-5.2 11.4-8.3 23.9-8.3 33.2 0 14 7.1 20.1 17.8 22.7 1.1 6.5 2 14.2.1 13.7-3.2-.8-29.1-25.1-34.8-3.2-5.7 21.9-.4 17.4 5.3 19.4s36 0 36 0 2-1.6 2.8-5.3c.6-2.9.3-17.6.2-23.2 3.6.3 7.5.4 11.4.4 1.8 0 3.5 0 5.3-.1-.2 7-.4 20.3.2 22.9.8 3.6 2.8 5.3 2.8 5.3s30.4 2 36 0c5.7-2 10.9 2.4 5.3-19.4-5.7-21.9-31.6 2.4-34.8 3.2-1.8.4-1.1-6.4-.1-12.6 14.1-1.7 24.1-7.2 24.1-23.8 0-8.4-2.5-19.4-6.8-29.8 10.4 1.7 22.3 0 26.1 10.2 6.1 16.2 23.8 15 29.9 3.9 5.8-10.9-11.7-12.3-11.7-12.3z"/><path fill="#3C1000" d="M184 286.1c-10.6 0-24.2-.9-24.4-.9-.6 0-1.2-.3-1.7-.6-.3-.2-2.9-2.4-3.9-6.9-.5-2.1-.6-9-.4-20.5h-2.2c-3.2 0-5.9-.1-8.4-.2.2 8.6.3 18.1-.3 20.7-1 4.5-3.6 6.7-3.9 7-.5.4-1.1.6-1.7.6-.1 0-13.7.9-24.4.9-8.8 0-11.6-.6-12.9-1.1-.8-.3-1.6-.4-2.5-.5-1.9-.3-4.4-.6-5.9-3-2-3-1.6-8.3 1.3-19.5 2.4-9.4 8.2-11.3 12.7-11.3 8 0 17.2 6.5 22.7 10.3.1.1.3.2.4.3-.1-1.5-.3-3.6-.8-6.6-12.2-3.6-18.1-11.8-18.1-25.1 0-8.7 2.5-19.9 6.9-30.5-2.4-.2-4.7-.3-6.9-.3-6.7 0-10.4 1.4-12.8 4.8-4.4 6.2-10.4 9.7-17 9.7-8.6 0-16.1-5.9-18.3-14.3-.9-3.7-.5-6.7 1.3-9.1 1.9-2.5 5.2-3.9 9.6-4.2-.1-.4-.2-.8-.2-1.3-.1-1.8.5-3.4 1.9-4.8 1.1-1.1 2.5-1.6 4-1.6 3.8 0 7.3 3.8 8.8 5.7 1.5.7 4.4 1.3 9.6 1.3 9 0 20.9-2 29.7-3.8 7.7-10.9 16.4-16.6 25.3-16.6 7.4 0 14.9 4.2 21.7 12.1 8.4 4.5 34.2 17.7 46.3 17.7.6 0 1.2 0 1.8-.1 1.5-1.1 5.1-3.5 8.4-3.5 2.1 0 3.9 1 5 2.8 1 1.6 1.2 3.4.6 5.1-.1.4-.3.8-.5 1.2 3.1 1 6.4 2.8 8 5.8 1.1 2 1.8 5.3-.6 9.8-3.3 6.1-9.7 9.9-16.7 9.9-8.3 0-15.3-5.3-18.6-14.1-2.2-5.9-7.7-6.7-16.5-7.4-.7-.1-1.5-.1-2.2-.2 3.4 9.3 5.2 18.7 5.2 26.2 0 19.8-13.3 24.8-24.4 26.5-.3 2.3-.5 4-.6 5.2.1-.1.3-.2.4-.3 5.5-3.9 14.7-10.3 22.7-10.3 4.4 0 10.2 2 12.7 11.3 2.9 11.2 3.2 16.5 1.3 19.5-1.6 2.3-4 2.7-5.9 3-.9.1-1.7.3-2.5.5-1.5.1-4.3.7-13.1.7zm-22.8-6.8c3.5.2 14.2.8 22.8.8 8 0 10.2-.5 10.9-.7 1.3-.5 2.6-.7 3.6-.8.6-.1 1.6-.2 1.8-.4.3-.4 1-2.7-2.1-14.7-1.6-6.1-4.5-6.9-6.9-6.9-6.1 0-14.7 6-19.3 9.2-2.8 1.9-3.9 2.7-5.1 3-.2.1-.6.1-.9.1-1 0-2-.5-2.7-1.3-1.1-1.3-2-3.5-.2-14.8.2-1.3 1.3-2.3 2.6-2.5 15.2-1.8 21.4-7.9 21.4-20.9 0-7.9-2.5-18.6-6.6-28.6-.4-1-.3-2.2.4-3 .7-.8 1.8-1.3 2.8-1.1 2.2.4 4.6.6 6.8.8 8.4.8 17.9 1.6 21.6 11.3 2.5 6.5 7.2 10.3 13 10.3 4.8 0 9.1-2.6 11.4-6.8 1.4-2.6.8-3.7.6-4.1-1.4-2.5-7.1-3.8-9.7-4-1.4-.1-2.5-1.2-2.7-2.5-.2-1.4.6-2.7 1.9-3.2 1.3-.5 2.6-1.5 2.7-2-1.2 0-3.8 1.6-5.2 2.7-.3.3-.8.5-1.2.6-1.1.3-2.3.4-3.7.4-13.4 0-39.1-13-49.6-18.6-.3-.2-.6-.4-.9-.7-4-4.7-10.3-10.4-17.5-10.4-8.9 0-16.3 8.2-21 15-.4.6-1.1 1.1-1.8 1.2-9.1 1.9-22.1 4.2-32.1 4.2-5.8 0-10-.7-12.9-2.3-.4-.2-.7-.5-1-.9-1.4-1.9-3.7-3.9-4.5-3.9.1.5 1.3 1.9 2.3 2.6 1.1.8 1.5 2.3 1 3.6-.5 1.3-1.9 2-3.3 1.8 0 0-1.7-.3-3.8-.3-3.3 0-5.8.7-6.7 1.9-.6.8-.7 2.1-.3 3.9 1.5 5.7 6.7 9.8 12.5 9.8 4.6 0 8.9-2.5 12.1-7.1 4.6-6.5 11.9-7.4 17.7-7.4 2.6 0 5.2.2 7.8.3 1.2.1 2.4.2 3.7.2 1 0 1.9.6 2.4 1.4.5.8.6 1.9.2 2.8-5 10.8-8.1 23.1-8.1 31.9 0 11.3 4.6 17.2 15.5 19.8 1.2.3 2 1.2 2.2 2.4 2.1 12.3 1.2 14.6 0 16-.7.8-1.7 1.3-2.7 1.3-.2 0-.6-.1-.9-.1-1.1-.3-2.3-1.1-5.1-3-4.6-3.2-13.2-9.2-19.3-9.2-2.4 0-5.3.8-6.9 6.9-3.1 12-2.4 14.3-2.1 14.7.2.1 1.2.3 1.8.4 1 .1 2.3.3 3.6.8.6.2 2.9.7 10.8.7 8.6 0 19.3-.6 22.8-.8.4-.6 1-1.5 1.3-3 .4-1.7.4-10.8.1-22.5 0-.8.3-1.7.9-2.2.6-.6 1.4-.9 2.3-.8 3.2.3 6.7.4 11.2.4 1.8 0 3.5 0 5.2-.1.9-.1 1.6.3 2.2.9.6.6.9 1.4.9 2.2-.3 14.4-.1 20.9.1 22.2.9 1.6 1.5 2.6 1.9 3.1z"/><path fill="#B79A51" d="M250.9 30.5c-12.3 0-23.2 5.5-30.6 14.2-18.5-18-44.2-28.8-72.1-27.7-26.4 1-49.9 12.3-66.8 29.8-7.3-9.9-19-16.3-32.2-16.3C26.9 30.5 9 48.4 9 70.6c0 22.2 18 40.1 40.1 40.1 1.7 0 3.4-.1 5.1-.4-.1 2.4-.1 4.8 0 7.3 2 53.6 51 60.5 105 58.4 53.8-2 92.2-12.2 90.4-65.4.5 0 .9.1 1.4.1 22.2 0 40.1-18 40.1-40.1-.1-22.2-18-40.1-40.2-40.1z"/><path fill="#3C1000" d="M143.9 179.4c-42.1 0-90.8-7-92.8-61.6 0-1.3-.1-2.6-.1-4.1-.7 0-1.3.1-2 .1-23.7-.1-43-19.4-43-43.2 0-23.8 19.3-43.1 43.1-43.1 12.6 0 24.3 5.4 32.5 14.8C99.5 24.9 123 14.9 148.1 14c27-1 52.5 8.4 72.1 26.4 8.1-8.2 19.1-12.9 30.7-12.9 23.8 0 43.1 19.3 43.1 43.1 0 23.2-18.4 42.2-41.4 43.1.2 57-48 63.7-93.4 65.4-5.4.2-10.5.3-15.3.3zm-89.8-72c.7 0 1.5.3 2 .8.6.6 1 1.4 1 2.3-.1 2.7-.1 4.9 0 7 1.5 38.6 28.2 55.9 86.8 55.9 4.7 0 9.7-.1 15.1-.3 55.3-2.1 89.2-13.2 87.6-62.3 0-.8.3-1.6.9-2.2.6-.6 1.4-.9 2.2-.9h1.2c20.5 0 37.2-16.7 37.2-37.2 0-20.5-16.7-37.2-37.2-37.2-10.9 0-21.2 4.8-28.3 13.1-.5.6-1.3 1-2.1 1.1-.9 0-1.6-.3-2.2-.8-18.7-18.2-43.7-27.8-69.9-26.9-24.7.9-47.7 11.2-64.8 28.9-.6.6-1.5 1-2.3.9-.9-.1-1.7-.5-2.2-1.2-7.1-9.6-18-15.1-29.8-15.1-20.5 0-37.2 16.7-37.2 37.2 0 20.5 16.7 37.2 37.2 37.2 1.4 0 2.9-.1 4.7-.3h.1z"/><path fill="#FAD6AE" d="M197.5 74c-4.3-21.5-23.3-31.6-46.1-31.6S109.6 52.5 105.3 74c-17.5 10.1-28.7 25.7-28.7 43.3 0 30.4 33.5 55 74.8 55s74.8-24.6 74.8-55c0-17.6-11.2-33.2-28.7-43.3z"/><path fill="#F09493" d="M166.1 129.6c.2 4.3-4.9 8.1-11.4 8.3-6.5.3-11.8-3.1-12-7.4-.2-4.4 4.9-8.1 11.4-8.3 6.5-.2 11.9 3.1 12 7.4z"/><path fill="#3C1000" d="M154 139.4c-7 0-12.6-3.9-12.7-8.8-.1-2.6 1.2-5 3.8-6.9 2.4-1.7 5.6-2.8 9-2.9 7.3-.3 13.3 3.7 13.5 8.8.1 2.6-1.2 5-3.8 6.9-2.4 1.7-5.6 2.8-9 2.9h-.8zm.8-15.8h-.6c-2.8.1-5.5.9-7.4 2.3-1.8 1.3-2.7 2.9-2.6 4.5.1 3.3 4.6 6.1 9.9 6.1h.6c2.8-.1 5.5-.9 7.4-2.4 1.8-1.3 2.7-2.9 2.6-4.5-.1-3.2-4.6-6-9.9-6z"/><circle transform="rotate(-87.557 99.202 137.34) scale(1.00001)" fill="#EF959F" cx="99.2" cy="137.3" r="13.1"/><circle transform="rotate(-87.558 205.578 133.685) scale(1.00001)" fill="#EF959F" cx="205.6" cy="133.7" r="13.1"/><path fill="#3C1000" d="M144.6 157.7c-6.9 0-12.6-5.4-12.9-12.3-.1-1.6 1.2-2.9 2.7-3 1.5-.1 2.9 1.2 3 2.7.1 1.9.9 3.7 2.3 5 1.4 1.3 3.2 2 5.2 1.9 4-.2 7-3.5 6.9-7.5v-.1c0-1.5 1.2-2.8 2.7-2.8 1.5 0 2.9 1.2 3 2.7.1 1.9.9 3.7 2.3 5 1.4 1.3 3.2 2 5.2 1.9 4-.2 7-3.5 6.9-7.5-.1-1.6 1.2-2.9 2.7-3 1.5-.1 2.9 1.2 3 2.7.3 7.1-5.2 13.1-12.3 13.4-3.4.1-6.7-1.1-9.3-3.4-.3-.3-.7-.6-1-1-2.2 3-5.8 5.1-9.8 5.2-.2.1-.4.1-.6.1z"/><path d="M72.4 57.4c-4.5-6.1-11.7-10-19.8-10C39.1 47.4 28 58.4 28 72c0 13.6 11 24.6 24.6 24.6 1 0 2-.1 3-.2 2.7-14.3 8.5-27.6 16.8-39zm171.8-10c-6.1 0-11.7 2.2-16 5.9 9.9 12.2 16.8 26.9 19.8 43 11.8-1.8 20.8-12 20.8-24.3 0-13.6-11-24.6-24.6-24.6z" fill="#FAD6AE"/><circle transform="rotate(-2.204 195.165 111.312) scale(1.00004)" fill="#3C1000" cx="195.2" cy="111.3" r="13.5"/><circle transform="rotate(-2.204 108.675 114.66) scale(1.00004)" fill="#3C1000" cx="108.7" cy="114.7" r="13.5"/><path fill="#FFF" d="M205.5 110.1c.1 2.9-2.1 5.3-5 5.4-2.9.1-5.3-2.1-5.4-5-.1-2.9 2.1-5.3 5-5.4 2.9-.1 5.3 2.2 5.4 5zm-85 3.3c.1 2.9-2.1 5.3-5 5.4-2.9.1-5.3-2.1-5.4-5-.1-2.9 2.1-5.3 5-5.4 2.9-.1 5.3 2.1 5.4 5z"/><ellipse fill="#FAD6AE" cx="151.5" cy="224.3" rx="27.2" ry="23.7"/></svg>