<svg xmlns="http://www.w3.org/2000/svg" viewBox="0 0 300 300"><path fill="#3C1000" d="M218.3 59.2c2.6-3.9 4-8.2 4.2-12.4.2-5.4-1.6-13.5-11.2-21.3-4.8-3.9-10.6-5.1-15.9-3.4-2.1-3.6-5.1-7.1-9.1-10.3-5.9-4.8-13-5.8-19.5-2.9-8.2-8.9-21.2-11.4-35.9-6.7-9 2.9-12.6 8.8-14 13.3-2.1 6.5-.9 14.6 3.5 24-42.1 13.8-70.8 54.3-69.1 98.8.9 24.1 11 41.4 30 51.7-28.2 2.6-32.2 8.3-33.3 14.3-1.8 9 2.8 15.9 8.6 20.1-.4 3.5.3 6.7 1.9 9.5 2.8 4.8 7.7 7.5 14.8 8.2 3.1 7.1 9 11.3 16 11.3 3.7 0 7.6-1.1 11.7-3.5 3 1.5 6.6 3 10.2 3.5.2.6.5 1.2.8 1.8-2.6-.1-5.1.2-7.3 1-3.9 1.4-9 5-11.3 13.9-2.9 11-3.8 17.9-.4 22.9 2.9 4.3 7.3 5 9.5 5.3.5.1 1.1.2 1.3.2 1.8.6 5 1.4 14.5 1.4 9.2 0 19.9-.7 22.9-.9 1.7-.1 3.4-.7 4.7-1.8 1-.8 4.1-3.6 5.5-9 1.4 5.4 4.5 8.3 5.5 9 1.4 1.1 3 1.7 4.7 1.8 3.1.2 13.7.9 22.9.9 9.5 0 12.7-.7 14.5-1.3.2-.1.8-.2 1.3-.2 2.1-.3 6.6-1 9.5-5.3 3.3-5 2.4-11.9-.4-22.9-1.8-7-5.4-10.7-8.7-12.7 10.5-5.2 17.2-14.7 18.2-26.8 1.4-15.6-10.3-26.2-21.9-32.9 28.6-5.7 57.6-21.1 55.8-67.1-1.4-27.6-13.8-53.4-34.5-71.5z"/><path fill="#FFF" d="M172.3 197s39.9 10.2 37.9 33-26.6 23.1-26.6 23.1L172.3 197z"/><path fill="#3C1000" d="M183.6 256c-1.3 0-2.5-.9-2.8-2.3l-11.3-56.2c-.2-1 .1-1.9.8-2.6.7-.7 1.7-.9 2.6-.7 1.7.4 42.2 11.1 40 36-1.7 20.2-19.9 25.7-29.3 25.8zm-7.6-54.9l9.9 49.1c5.7-.7 20.1-4.1 21.5-20.4 1.3-16-21.6-25.4-31.4-28.7z"/><path fill="#FFF" d="M132.5 197.1s-74.3-1.4-76.4 9c-2 10.4 10.4 14.2 10.4 14.2s-8.7 15 13 13.6c0 0 2.2 20.3 21.1 6.4 0 0 17 11.6 19.4 0 2.3-11.7 12.5-43.2 12.5-43.2z"/><path fill="#3C1000" d="M113.9 248.1c-4.9 0-10.4-2.9-13.2-4.6-4.3 2.9-8.1 4.3-11.6 4.3-7.2 0-10.7-6.3-12-11.2h-.5c-6.8 0-11.4-1.9-13.5-5.5-1.9-3.3-1.3-6.9-.4-9.4-5-2.5-11.1-7.8-9.4-16.2.6-3.1 2.2-11.3 70.4-11.3 5.4 0 8.8.1 8.8.1.9 0 1.7.5 2.2 1.2.5.7.7 1.7.4 2.5-.1.3-10.2 31.5-12.4 42.8-.9 4.6-4.1 7.3-8.8 7.3zm-13.3-10.8c.6 0 1.1.2 1.6.5 1.9 1.3 7.8 4.7 11.7 4.7 1.7 0 2.8-.5 3.3-2.9 1.9-9.4 8.7-31.1 11.4-39.8h-4.9c-48.5 0-63.6 4.5-64.9 6.9-1.5 7.7 8.1 10.7 8.5 10.8.8.2 1.5.9 1.8 1.7.3.8.3 1.7-.2 2.4-.6 1.1-2.1 4.6-.9 6.7 1.2 2.1 5.1 3 11.2 2.6 1.5-.2 2.8 1 3 2.5 0 .3 1.1 8.8 6.8 8.8 2.6 0 5.9-1.5 9.8-4.4.6-.3 1.2-.5 1.8-.5z"/><path fill="#FBC600" d="M132.7 254.4s4.7 21.8 1.6 21c-3.1-.8-27.5-23.7-32.9-3.1-5.4 20.6-.4 16.4 5 18.3 5.3 1.9 34 0 34 0s1.9-1.5 2.7-5c.8-3.4.1-24.1.1-24.1"/><path fill="#3C1000" d="M118.1 294.4c-5.5 0-10.5-.3-12.6-1-.7-.3-1.5-.4-2.4-.5-1.8-.3-4.1-.6-5.6-2.8-1.9-2.8-1.6-7.8 1.2-18.4 1.4-5.2 4-8.6 7.8-10 8.3-3.1 19.1 4.5 25.6 9 .1.1.3.2.4.3-.3-3.8-1.3-10.4-2.5-16-.3-1.5.6-3 2.2-3.3 1.5-.3 3 .6 3.3 2.2 4.4 20.5 2.3 22.5 1.3 23.5-.8.8-2 1.1-3.1.8-1.1-.3-2.2-1-4.8-2.9-4.8-3.4-14.8-10.4-20.4-8.3-2 .7-3.4 2.7-4.3 6.1-2.9 11.3-2.2 13.5-1.9 13.9.2.1 1.1.3 1.7.4 1 .1 2.2.3 3.4.8 3.2 1.1 20.1.7 31.7-.1.4-.5.9-1.5 1.2-2.8.5-2.1.3-14.9 0-23.4-.1-1.6 1.2-2.9 2.7-2.9 1.5-.1 2.9 1.2 2.9 2.7.1 3.5.6 21.2-.2 24.8-1 4.3-3.4 6.3-3.7 6.6-.4.4-1 .6-1.6.6-2.8 0-13.4.7-22.3.7z"/><path fill="#FBC600" d="M169.6 254.4s-4.7 21.8-1.6 21c3.1-.8 27.5-23.7 32.9-3.1 5.3 20.6.4 16.4-5 18.3-5.3 1.9-34 0-34 0s-1.9-1.5-2.7-5c-.8-3.4-.1-25.7-.1-25.7"/><path fill="#3C1000" d="M184.3 294.4c-9 0-19.5-.7-22.5-.9-.6 0-1.1-.2-1.6-.6-.3-.2-2.7-2.3-3.7-6.6-.8-3.6-.3-22.6-.2-26.4 0-1.6 1.3-2.8 2.9-2.7 1.6 0 2.8 1.3 2.7 2.9-.3 9.1-.4 22.8 0 25 .3 1.4.8 2.3 1.2 2.8 11.7.7 28.5 1.2 31.7.1 1.3-.5 2.5-.6 3.4-.8.6-.1 1.5-.2 1.7-.4.3-.4 1-2.5-2-13.8-.9-3.4-2.3-5.4-4.3-6.1-5.6-2.1-15.6 5-20.4 8.3-2.6 1.8-3.7 2.6-4.8 2.9-1.1.3-2.3 0-3.1-.8-1-1-3.1-3 1.3-23.5.3-1.5 1.8-2.5 3.3-2.2 1.5.3 2.5 1.8 2.2 3.3-1.2 5.6-2.3 12.2-2.5 16 .1-.1.3-.2.4-.3 6.4-4.5 17.2-12.1 25.6-9 3.8 1.4 6.4 4.8 7.8 10 2.7 10.6 3.1 15.6 1.2 18.4-1.5 2.2-3.8 2.5-5.6 2.8-.8.1-1.6.2-2.4.5-1.9.8-6.8 1.1-12.3 1.1z"/><path fill="#FFF" d="M190.7 241c0 20.8-16.4 23.2-36.6 23.2-20.2 0-36.6-2.4-36.6-23.2s16.4-58.5 36.6-58.5c20.2 0 36.6 37.7 36.6 58.5z"/><path fill="#3C1000" d="M154.1 267c-19.1 0-39.4-2-39.4-26 0-21 16.6-61.3 39.4-61.3 22.8 0 39.4 40.3 39.4 61.3 0 24-20.4 26-39.4 26zm0-81.7c-17.4 0-33.8 34.7-33.8 55.7 0 17.1 11.9 20.3 33.8 20.3s33.8-3.2 33.8-20.3c-.1-20.9-16.4-55.7-33.8-55.7z"/><path fill="#E50012" d="M203.6 62.2c12.2-8.7 14.6-20.1 2.3-30.1-6.2-5.1-11.6-.9-15.5 4.5.6-6-2.3-12.3-9.5-18.1-6.3-5.1-11.9-2.2-16.2 2.7-5.1-11.1-15.6-15.8-31.3-10.8-21.9 7 2.6 39.2 2.6 39.2s55.8-3.4 67.6 12.6z"/><path fill="#3C1000" d="M203.6 65c-.9 0-1.7-.4-2.3-1.1-5.5-7.5-24.9-11.8-53.3-11.8-7 0-11.8.3-11.8.3-.9.1-1.8-.4-2.4-1.1-.6-.8-15.7-20.8-11.6-34 1.5-4.6 4.9-7.8 10.3-9.6 14.8-4.7 26.4-1.5 32.9 8.8 5.6-4.7 11.8-4.8 17.3-.3 5.9 4.8 8.7 9.6 9.9 13.8 4.9-4 10.3-4 15.1-.1 7.8 6.3 9.3 12.6 9.1 16.7-.2 6.4-4.2 12.6-11.6 17.9-.5.3-1.1.5-1.6.5zM148 46.4c20.2 0 45.7 2.1 55.9 11.9 4.6-3.8 7.1-7.9 7.2-11.9.1-4.2-2.3-8.2-7.1-12.2-1.4-1.1-2.6-1.6-3.9-1.6-2.9 0-5.7 3-7.6 5.6-.7 1-2.1 1.4-3.3 1-1.2-.5-1.9-1.7-1.8-2.9.6-5.4-2.3-10.6-8.4-15.7-4.2-3.4-7.9-2.6-12.3 2.4-.6.7-1.6 1.1-2.5.9-.9-.1-1.8-.7-2.1-1.6-4.8-10.4-14.5-13.6-27.9-9.3-3.6 1.2-5.8 3.1-6.7 5.9-2.5 8 5.6 21.7 9.8 27.7 2.1 0 5.9-.2 10.7-.2z"/><path fill="#FFF" d="M59.6 138.1c-1.9-50.6 37.8-93.1 88.8-95 50.9-1.9 93.8 37.5 95.7 88.1 1.9 50.6-34.4 60.2-85.3 62.1-51 1.8-97.3-4.7-99.2-55.2z"/><path fill="#3C1000" d="M144.4 196.3c-39.8 0-85.6-6.6-87.6-58.2-2-52 39.1-96 91.5-98 52.8-2 96.6 38.6 98.6 90.8 2.1 56.9-44.3 63.4-88 65.1-5.3.2-10 .3-14.5.3zm7.5-150.5c-1.2 0-2.3 0-3.5.1-49.2 1.8-87.8 43.1-86 92.1 1.4 36.5 26.7 52.7 82 52.7 4.5 0 9.1-.1 14.2-.3 52.3-2 84.4-12.6 82.6-59.2-1.8-47.9-41-85.4-89.3-85.4z"/><path fill="#3C1000" d="M205.4 131.6c.3 7-5.2 12.9-12.2 13.2-7 .3-12.9-5.2-13.2-12.2-.3-7 5.2-12.9 12.2-13.2 7-.3 12.9 5.2 13.2 12.2z"/><circle transform="matrix(.9993 -.03859 .03859 .9993 -5.136 4.387)" fill="#3C1000" cx="111.1" cy="135.2" r="12.7"/><ellipse transform="rotate(-87.565 93.744 164.702)" fill="#F9D3C1" cx="93.7" cy="164.7" rx="12.4" ry="12.3"/><path fill="#F9D3C1" d="M226.1 160.5c-.3 6.8-6 12.1-12.8 11.8-6.8-.3-12.1-6.1-11.8-12.9.3-6.8 6-12.1 12.8-11.8 6.8.2 12.1 6 11.8 12.9z"/><path fill="#FFF" d="M202.5 131c.1 2.7-2 5-4.7 5.1-2.7.1-5-2-5.1-4.7-.1-2.7 2-5 4.7-5.1 2.7-.2 5 2 5.1 4.7zm-80.2 3.1c.1 2.7-2 5-4.7 5.1-2.7.1-5-2-5.1-4.7-.1-2.7 2-5 4.7-5.1 2.7-.2 5 2 5.1 4.7z"/><path fill="#E50012" d="M149.6 143.8s-35.1 41.4 3.9 36.8c39-4.6 5.7-36.3 3.8-38"/><path fill="#3C1000" d="M148.1 183.7c-7.4 0-12.2-2.1-14.5-6.3-6.1-11.4 11.8-33.1 13.9-35.6 1-1.2 2.8-1.3 4-.3 1.2 1 1.3 2.8.3 4-6.8 8.1-16.5 23.2-13.2 29.2 2 3.6 9 3.6 14.6 3 6.4-.8 14.3-2.7 16-7.9 2.6-7.9-9.1-20.9-13.8-25.3-1.1-1.1-1.2-2.8-.2-4 1.1-1.1 2.8-1.2 4-.2 2 1.9 19.5 18.5 15.4 31.1-2.1 6.4-9.1 10.4-20.7 11.7-2.1.5-4 .6-5.8.6z"/><path fill="#FCCF00" d="M179.7 149c.4 7.8-11.4 10.5-25.4 10.9-14 .4-25.1-1.5-25.4-9.3-.4-7.8 10.7-14.4 24.8-14.9 14-.4 25.6 5.5 26 13.3z"/><path fill="#3C1000" d="M150.7 161.3c-15.3 0-22.9-3.5-23.2-10.6-.1-2.8 1-5.5 3.2-7.9 4.5-4.9 13.3-8.1 22.9-8.4h1.5c14.4 0 25.6 6.3 25.9 14.6.1 2.2-.6 4.2-2.2 5.8-3.6 3.9-11.9 6.1-24.6 6.5h-3.5zm4.4-24.2h-1.5c-8.9.3-17 3.2-21 7.5-1.7 1.9-2.6 3.9-2.5 5.9.2 5.4 7.1 8.1 20.5 8.1 1.2 0 2.3 0 3.6-.1 14.9-.5 20.6-3.3 22.7-5.6 1-1.1 1.5-2.4 1.4-3.9-.2-6.5-10.7-11.9-23.2-11.9z"/></svg>