<svg xmlns="http://www.w3.org/2000/svg" viewBox="0 0 300 300"><path fill="#3C1000" d="M239.5 22.8c-5.6 0-10 2.5-13.2 5.1-21.9-19-49.8-29-79.6-27.9-26.8 1-52.1 11.2-72 29-3.2-3.1-8-6.2-14.3-6.2-8 0-15.4 4.9-22 14.5C25.8 55.9-1.7 114.7 9 143.4c3.3 8.9 9.9 14.8 18.9 17.1 7.6 2 15 1.1 21.6-2.3 4.7 6.4 10.6 11.9 17.8 16.3-.3.2-.5.5-.8.7-1.6 1.6-2.8 3.5-3.4 5.6-3.9 1.1-7 3.1-9.2 6-2.2 2.9-4.5 7.8-2.6 15.2 3 11.8 13.6 20.1 25.7 20.1 9.2 0 17.5-4.7 23.4-13.1.6-.8 1.5-2.2 6.9-2.4-3 9.4-4.7 18.8-4.7 26.5 0 6.2 1.1 11.6 3.3 16.3h-1.4c-9.8 0-17 6.2-19.7 16.9-3.2 12.5-4.3 20.3-.5 26 3.2 4.9 8.3 5.6 10.7 6 .5.1 1.2.2 1.4.3 2.2.8 5.7 1.5 15.9 1.5 11.7 0 26.4-1 26.5-1 2-.1 3.8-.8 5.4-2.1 1.1-.9 4.6-4.1 6.2-10.2 1.6 6.1 5.1 9.3 6.2 10.2 1.5 1.2 3.4 2 5.3 2.1.1 0 14.9 1 26.6 1 10.3 0 13.7-.7 15.9-1.5.2-.1.9-.2 1.4-.3 2.4-.4 7.5-1.1 10.7-6 3.4-5.1 2.9-11.8.5-22 2.3.6 4.5.9 6.7.9 17.7 0 26.3-17.4 28.7-27.7 1-4.3-1.1-8.7-5.1-10.7-.8-.4-1.7-.7-2.6-.8 4.8-2.4 8.8-6.2 11.4-11 4.2-7.7 2.2-13.7.7-16.6-1.5-2.8-3.8-5.1-6.9-6.9-.1-2.2-.7-4.3-1.9-6.3-2.3-3.8-6.3-6.1-10.8-6.1-4.2 0-8.2 1.9-11.2 3.9-3.9-.1-10.2-1.8-18.2-5 15.8-3.8 32.4-11 43.6-25.3 6.3 3 13.3 3.6 20.4 1.8 9-2.3 15.5-8.3 18.9-17.1 10.7-28.7-16.7-87.4-29.4-106-6.4-9.7-13.8-14.6-21.8-14.6zm-23.8 205.5c-3.7-1.9-7.5-3.3-11.5-4.1-.5-3.7-1.3-7.7-2.3-11.7 3.5.7 4.5 1.5 5.1 3 1.9 5.2 4.9 9.6 8.7 12.8zm20.2 6.8c-.1.1-1.9 2.1-4.6 2.1-2 0-4.5-1.1-7.1-3.3-.5-.4-1.1-.9-1.6-1.3 4.3 1.8 9.2 2.5 13.9 1.9-.3.2-.4.4-.6.6z"/><path fill="#AC7C2F" d="M188.6 233.7s14.4-4.7 29.5 7.6 25.1 0 25.1 0-8.6 38.3-40.7 9.4c0 0-16.2-11.7-13.9-17z"/><path fill="#3C1000" d="M223.9 264.7c-7 0-14.9-3.9-23.4-11.5-6.8-5-17.7-14.2-14.8-20.7.4-.8 1.1-1.5 1.9-1.8.3-.1 3.3-1 8-1 6 0 15.2 1.6 24.5 9.2 3.9 3.1 7.6 4.7 11.2 4.7 5.8 0 9.3-4.1 9.4-4.3.9-1.1 2.6-1.5 3.9-.8 1.3.7 2 2.1 1.7 3.6-.2.9-5.3 22.6-22.4 22.6zM192 236.3c1.5 2.7 6.7 7.7 12.4 11.8.1.1.2.1.3.2 7.3 6.6 13.8 10 19.2 10 6.2 0 10.3-4.6 12.8-9.2-1.6.5-3.4.8-5.4.8-5.1 0-10.2-2.1-15.2-6.2-10.1-8.1-19.7-8-24.1-7.4z"/><path fill="#FFF" d="M235.6 202.9s6.9-2.7 4.4-6.8-10.2 2.2-10.2 2.2c-12 2.8-43.5-13.2-54.8-19.2-6.2-7.4-13.5-12.3-21.2-12.3-9.5 0-18.2 7.3-25.2 17.5-15.5 3.3-37.6 6.7-46 2.4 0 0-5.9-8-9.3-4.6-3.4 3.4 2.5 7.7 2.5 7.7s-18.5-3.2-15.2 9.9c3.4 13.1 21.4 19.1 32 3.9 5.9-8.4 17.2-6.5 28.5-5.9-5.6 12.2-8.9 25.6-8.9 35.5 0 15 7.6 21.6 19 24.3 1.2 6.9 2.1 15.2.1 14.7-3.5-.9-31.2-26.9-37.3-3.5-6.1 23.4-.4 18.6 5.6 20.8 6.1 2.2 38.6 0 38.6 0s2.2-1.7 3-5.6c.7-3.1.3-18.8.2-24.9 3.9.3 8 .4 12.3.4 1.9 0 3.8 0 5.6-.1-.2 7.4-.4 21.7.2 24.5.9 3.9 3 5.6 3 5.6s32.5 2.2 38.6 0c6.1-2.2 11.7 2.6 5.6-20.8-6.1-23.4-33.8 2.6-37.3 3.5-1.9.5-1.2-6.9-.1-13.5 15.1-1.8 25.8-7.7 25.8-25.5 0-9-2.7-20.7-7.3-31.9 11.1 1.9 23.9 0 28 10.9 6.5 17.4 25.5 16 32 4.1 6.6-11.8-12.2-13.3-12.2-13.3z"/><path fill="#3C1000" d="M188.5 293.6c-11.4 0-25.9-1-26.1-1-.7 0-1.3-.3-1.8-.7-.3-.2-3.1-2.6-4.2-7.4-.2-.8-.7-3.3-.4-22h-2.4c-3.4 0-6.3-.1-9-.2.3 12.4.2 19.8-.3 22.2-1.1 4.9-3.8 7.2-4.2 7.4-.5.4-1.1.7-1.8.7-.1 0-14.7 1-26.1 1-9.5 0-12.4-.7-13.8-1.1-.8-.3-1.7-.4-2.7-.6-2.1-.3-4.7-.7-6.3-3.2-2.1-3.2-1.8-8.9 1.3-20.9 2.6-10 8.8-12.1 13.6-12.1 8.5 0 18.4 6.9 24.3 11 .1.1.3.2.4.3-.1-1.6-.3-3.8-.8-7.1-13-3.8-19.4-12.7-19.4-26.9 0-9.3 2.7-21.3 7.4-32.6-2.6-.2-5-.3-7.4-.3-7.2 0-11.2 1.5-13.7 5.2-4.7 6.7-11.1 10.4-18.2 10.4-9.2 0-17.3-6.3-19.6-15.3-1-3.9-.5-7.2 1.4-9.7 2.1-2.7 5.5-4.2 10.3-4.5-.1-.4-.2-.9-.2-1.4-.1-1.9.5-3.7 2-5.1 1.2-1.2 2.6-1.8 4.2-1.8 4.1 0 7.8 4.1 9.4 6.1 1.6.7 4.7 1.4 10.2 1.4 9.7 0 22.4-2.2 31.8-4.1 8.3-11.7 17.6-17.8 27.1-17.8 7.9 0 16 4.5 23.2 12.9 9 4.8 36.6 18.9 49.5 18.9.7 0 1.3 0 1.9-.1 1.6-1.2 5.4-3.8 9-3.8 2.3 0 4.2 1 5.3 3 1.1 1.7 1.3 3.6.7 5.5-.2.4-.3.9-.6 1.3 3.3 1.1 6.8 2.9 8.6 6.2 1.1 2.1 2 5.6-.7 10.5-3.6 6.5-10.4 10.6-17.8 10.6-8.9 0-16.3-5.7-19.9-15.1-2.4-6.3-8.3-7.1-17.7-8-.8-.1-1.6-.1-2.4-.2 3.6 10 5.6 20 5.6 28 0 21.2-14.3 26.6-26.2 28.4-.4 2.5-.5 4.3-.6 5.6.1-.1.3-.2.4-.3 5.9-4.1 15.7-11 24.3-11 4.8 0 11 2.1 13.6 12.1 3.1 12 3.5 17.6 1.3 20.9-1.7 2.5-4.3 2.9-6.3 3.2-.9.1-1.8.3-2.7.6-1.1.3-4 .9-13.5.9zm-24.4-7.2c3.8.2 15.1.9 24.4.9 8.5 0 11-.5 11.6-.8 1.4-.5 2.8-.7 3.9-.9.7-.1 1.7-.2 2-.4.3-.4 1.1-2.8-2.2-15.7-1.7-6.5-4.8-7.3-7.4-7.3-6.5 0-15.7 6.4-20.6 9.9-3 2.1-4.2 2.9-5.4 3.2-.3.1-.7.1-.9.1-1.1 0-2.2-.5-2.9-1.3-1.2-1.4-2.1-3.7-.2-15.9.2-1.4 1.4-2.5 2.8-2.7 16.3-2 23-8.4 23-22.4 0-8.5-2.6-20-7.1-30.7-.4-1.1-.3-2.3.5-3.2.7-.9 1.9-1.3 3-1.2 2.4.4 4.9.6 7.3.8 9 .8 19.2 1.7 23.1 12.1 2.6 7 7.7 11 13.9 11 5.1 0 9.8-2.8 12.2-7.3 1.5-2.8.9-4 .7-4.3-1.5-2.7-7.6-4-10.4-4.3-1.5-.1-2.7-1.2-2.9-2.7-.2-1.5.6-2.9 2-3.4 1.4-.6 2.8-1.6 2.9-2.1-1.3 0-4.1 1.7-5.5 2.9-.4.3-.8.5-1.3.6-1.2.3-2.5.4-4 .4-14.3 0-41.9-14-53.1-20-.4-.2-.7-.4-.9-.8-4.3-5.1-11-11.1-18.8-11.1-9.5 0-17.5 8.8-22.5 16.1-.5.7-1.2 1.2-2 1.3-9.8 2.1-23.7 4.5-34.3 4.5-6.2 0-10.7-.8-13.8-2.4-.4-.2-.8-.5-1.1-.9-1.5-2.1-3.9-4.1-4.8-4.2.2.5 1.3 2 2.4 2.8 1.2.9 1.6 2.5 1.1 3.8-.6 1.4-2 2.2-3.5 1.9 0 0-1.8-.3-4.1-.3-3.6 0-6.2.7-7.2 2-.7.9-.8 2.3-.3 4.2 1.6 6.1 7.2 10.5 13.4 10.5 4.9 0 9.5-2.7 12.9-7.6 4.9-7 12.7-7.9 19-7.9 2.7 0 5.6.2 8.4.4 1.3.1 2.6.2 3.9.2 1.1.1 2 .6 2.6 1.5.5.9.6 2 .2 3-5.3 11.6-8.6 24.7-8.6 34.2 0 12.1 5 18.4 16.6 21.2 1.2.3 2.2 1.3 2.4 2.6 2.2 13.2 1.3 15.6 0 17.1-.7.9-1.8 1.4-2.9 1.4-.3 0-.7-.1-.9-.1-1.2-.3-2.4-1.2-5.4-3.2-4.9-3.5-14.1-9.9-20.6-9.9-2.5 0-5.7.8-7.4 7.3-3.3 12.9-2.5 15.3-2.2 15.7.2.1 1.3.3 1.9.4 1.1.2 2.5.4 3.9.9.7.2 3.1.8 11.6.8 9.2 0 20.6-.6 24.4-.9.4-.6 1-1.7 1.4-3.2.3-1.4.5-8.5.1-24.1 0-.9.3-1.8 1-2.4.7-.6 1.6-.9 2.5-.9 3.4.3 7.2.4 12 .4 1.9 0 3.7 0 5.6-.1.9 0 1.7.3 2.3.9.6.6 1 1.5.9 2.3-.3 15.4-.1 22.4.2 23.8.2 1.8.8 2.8 1.2 3.5z"/><path fill="#FFF" d="M46.5 117.4C44.3 60.1 89.4 11.8 147.1 9.7c57.8-2.2 106.3 42.5 108.5 99.9 2.2 57.4-39 68.3-96.8 70.5-57.7 2.1-110.2-5.3-112.3-62.7z"/><path fill="#3C1000" d="M142.6 183.5c-45.1 0-97.1-7.5-99.3-66C42.2 89 52.4 61.7 72 40.7s46.2-33.1 75-34.2c60-2.2 109.6 43.8 111.8 103 2.4 64.5-50.3 71.9-99.8 73.8-5.9.1-11.2.2-16.4.2zm8.6-170.7c-1.3 0-2.6 0-3.9.1-27.1 1-52.2 12.5-70.6 32.2-18.4 19.7-28 45.4-27 72.3 1.6 41.4 30.2 59.8 93 59.8 5.1 0 10.3-.1 16.1-.3 59.3-2.2 95.7-14.3 93.7-67.2-2.1-54.4-46.6-96.9-101.3-96.9z"/><path fill="#AC7C2F" d="M196.9 146.9c0 17.9-18.4 23.1-41.5 23.1s-42.3-5.2-42.3-23.1c0-18 18.8-32.5 41.9-32.5 23.1 0 41.9 14.6 41.9 32.5z"/><path fill="#4C3E37" d="M166.4 130.3c.2 4.7-5.3 8.6-12.2 8.9-6.9.3-12.7-3.3-12.8-7.9-.2-4.7 5.3-8.6 12.2-8.9 6.8-.3 12.6 3.2 12.8 7.9z"/><path fill="#3C1000" d="M153.4 140.8c-7.4 0-13.4-4.1-13.6-9.4-.1-2.8 1.3-5.4 4.1-7.4 2.5-1.9 6-3 9.6-3.1h.8c7.4 0 13.4 4.1 13.6 9.4.1 2.8-1.3 5.4-4.1 7.4-2.5 1.9-6 3-9.6 3.1h-.8zm.8-16.9h-.7c-3 .1-5.9 1-7.9 2.5-1.9 1.4-2.9 3.1-2.8 4.8.1 3.6 4.9 6.5 10.6 6.5h.7c3-.1 5.9-1 7.9-2.5 1.9-1.4 2.9-3.1 2.8-4.8-.1-3.6-4.9-6.5-10.6-6.5zm57.6-13.8c.3 8-5.9 14.7-13.9 15-8 .3-14.7-5.9-15-13.9-.3-8 5.9-14.7 13.9-15 8-.3 14.7 5.9 15 13.9z"/><circle transform="rotate(-2.219 104.86 114.262) scale(1.00005)" fill="#3C1000" cx="104.9" cy="114.3" r="14.4"/><circle transform="rotate(-87.57 85.192 147.66)" fill="#F9D3C1" cx="85.2" cy="147.7" r="14"/><circle transform="rotate(-87.557 221.31 142.248) scale(1.00001)" fill="#F9D3C1" cx="221.3" cy="142.2" r="14"/><circle transform="rotate(-2.204 202.987 109.62) scale(1.00004)" fill="#FFF" cx="203" cy="109.6" r="5.6"/><path fill="#FFF" d="M117.5 112.9c.1 3.1-2.3 5.7-5.4 5.8-3.1.1-5.7-2.3-5.8-5.4-.1-3.1 2.3-5.7 5.4-5.8 3.1 0 5.7 2.3 5.8 5.4z"/><path fill="#3C1000" d="M143.3 160.3c-3.5 0-6.7-1.3-9.3-3.6-2.7-2.5-4.3-5.9-4.4-9.6-.1-1.7 1.2-3.1 2.9-3.2 1.6-.1 3.1 1.2 3.2 2.9.1 2 1 3.9 2.5 5.3s3.5 2.1 5.5 2c2-.1 3.9-1 5.3-2.5s2.1-3.5 2-5.5v-.1c0-1.6 1.3-3 2.9-3 1.8-.1 3.1 1.2 3.2 2.9.1 2.1 1 3.9 2.5 5.3s3.4 2.1 5.5 2c2.1-.1 3.9-1 5.3-2.5s2.1-3.5 2-5.5c-.1-1.7 1.2-3.1 2.9-3.2 1.7-.1 3.1 1.2 3.2 2.9.2 3.7-1.1 7.2-3.6 9.9s-5.9 4.3-9.6 4.4c-3.7.1-7.2-1.1-9.9-3.6-.4-.3-.7-.7-1-1.1-.3.4-.6.8-.9 1.1-2.5 2.7-5.9 4.3-9.6 4.4-.2.3-.4.3-.6.3z"/><path fill="#AC7C2F" d="M71.2 39.8s-10.1-18.5-24.8 3-50 99.7-16.1 108.5C64.1 160 77.4 89.4 71.2 39.8z"/><path fill="#3C1000" d="M35.9 155.2c-2.1 0-4.2-.3-6.4-.8-7-1.8-11.9-6.2-14.5-13.2C5.3 115 32 58.2 43.8 41c5.4-7.8 11-11.8 16.7-11.8 8.5 0 13.3 8.7 13.5 9.1.2.4.3.7.4 1.1 4.5 35.8-.7 85.2-19.2 106.1-5.6 6.4-12.1 9.7-19.3 9.7zM60.5 35.6c-3.5 0-7.4 3.1-11.4 9-12.3 17.9-36.6 71.5-28 94.3 1.9 5 5.2 8 10.1 9.3 7.2 1.9 13.7-.4 19.3-6.8C67 122.7 72.4 75.8 68.2 41c-1-1.5-3.8-5.4-7.7-5.4z"/><path fill="#AC7C2F" d="M228.8 39.8s10.1-18.5 24.8 3c14.7 21.5 49.9 99.7 16.1 108.5-33.8 8.7-47.1-61.9-40.9-111.5z"/><path fill="#3C1000" d="M264.1 155.2c-7.2 0-13.7-3.2-19.3-9.6-18.5-20.9-23.7-70.3-19.2-106.1 0-.4.2-.8.4-1.1.2-.4 5-9.1 13.5-9.1 5.7 0 11.4 4 16.7 11.8 11.8 17.1 38.5 73.9 28.8 100-2.6 7-7.5 11.4-14.5 13.2-2.2.6-4.3.9-6.4.9zM231.9 40.9c-4.2 34.9 1.2 81.7 17.7 100.4 5.7 6.4 12.1 8.7 19.3 6.8 4.9-1.3 8.2-4.3 10.1-9.3 8.5-22.8-15.8-76.4-28-94.3-4-5.9-8-9-11.4-9-4 .1-6.8 4-7.7 5.4z"/></svg>