<svg xmlns="http://www.w3.org/2000/svg" viewBox="0 0 300 300"><path fill="#3C1000" d="M245.5 198.9c-.1-2.1-.7-4.2-1.9-6.2-2.3-3.8-6.2-6-10.7-6-4.1 0-8.1 1.9-11 3.9-4.8-.1-13.3-2.8-24-7.4h.2c4.5 1.3 9.4 2.1 14.8 2.5 1.4.1 2.7.2 3.8.2 7.3 0 11.8-2.5 13.4-7.3.7-2.2.6-4.3 0-6.1 22.7-12.5 33.6-34.3 32.4-64.8-.6-15.3-4.2-29.9-10.7-43.6 4.8-5.1 7.9-11.1 9.1-18 3.3-18.6-8.4-36.1-9.8-38-2.3-3.3-6.7-4.8-10.5-3.6-3.8 1.1-6.4 4.5-6.7 8.4-.9 1.3-5.9 4.7-19.3 7.4C194.5 6.1 170.5-.9 145.8.1c-21.5.8-42.1 7.6-59.7 19.7-11.8-2.6-16.2-5.8-17.1-7-.3-3.9-2.9-7.3-6.7-8.4-3.9-1.2-8.2.4-10.5 3.6-7.7 11-17.4 35.6-2.5 53.8-8.5 16.8-12.5 35.4-11.8 54.3 1 26.7 12.1 46 32.9 57.6-2.2.5-4.2 1.6-5.8 3.2-1.6 1.6-2.7 3.5-3.3 5.5-3.9 1.1-6.9 3.1-9.1 5.9-2.2 2.8-4.4 7.7-2.5 15 3 11.6 13.4 19.8 25.4 19.8 9.1 0 17.2-4.6 23.1-12.9.6-.8 1.5-2.1 6.8-2.4-3 9.3-4.7 18.5-4.7 26.1 0 6.1 1.1 11.5 3.2 16.1h-1.4c-9.6 0-16.7 6.1-19.5 16.7-3.2 12.3-4.2 20-.5 25.6 3.2 4.8 8.2 5.5 10.6 5.9.5.1 1.2.2 1.4.3 2.2.8 5.6 1.5 15.7 1.5 11.5 0 26-1 26.1-1 1.9-.1 3.8-.8 5.3-2.1 1.1-.8 4.5-4 6.1-10.1 1.6 6.1 5.1 9.2 6.1 10.1 1.5 1.2 3.3 1.9 5.2 2 .1 0 14.7 1 26.2 1 10.1 0 13.5-.7 15.7-1.5.2-.1.9-.2 1.4-.3 2.4-.3 7.4-1.1 10.6-5.9 3.7-5.6 2.7-13.3-.5-25.6-2.3-8.7-7.4-14.3-14.5-16.1 2.2-4.7 3.4-10.2 3.4-16.6 0-6-1-13-2.9-20.3 3.5.7 4.5 1.5 5 2.9 4.4 11.7 14.2 19 25.5 19 9.6 0 18.5-5.3 23.1-13.7 4.2-7.6 2.2-13.5.7-16.3-1.5-2.6-3.8-4.9-6.8-6.6z"/><path fill="#B69457" d="M231.2 204.3s6.8-2.7 4.3-6.7c-2.5-4.1-10.1 2.1-10.1 2.1-11.8 2.8-42.9-13-54.1-19-6.1-7.3-13.3-12.1-20.9-12.1-9.3 0-17.9 7.2-24.8 17.2-15.3 3.2-37.1 6.6-45.3 2.3 0 0-5.8-7.9-9.2-4.6-3.4 3.3 2.5 7.6 2.5 7.6s-18.3-3.2-15 9.7c3.3 12.9 21.1 18.8 31.6 3.8 5.8-8.3 17-6.4 28.1-5.8-5.5 12-8.8 25.2-8.8 35 0 14.8 7.5 21.2 18.7 24 1.1 6.8 2.1 15 .1 14.5-3.4-.9-30.8-26.5-36.7-3.4-6 23.1-.4 18.4 5.6 20.5 6 2.1 38 0 38 0s2.1-1.7 3-5.6c.7-3.1.3-18.5.2-24.5 3.8.3 7.9.4 12.1.4 1.9 0 3.7 0 5.6-.1-.2 7.4-.4 21.4.2 24.2.9 3.8 3 5.6 3 5.6s32 2.1 38 0 11.5 2.6 5.6-20.5c-6-23.1-33.3 2.6-36.7 3.4-1.9.5-1.1-6.8-.1-13.3 14.9-1.8 25.4-7.6 25.4-25.2 0-8.9-2.7-20.5-7.2-31.4 11 1.8 23.5 0 27.6 10.7 6.5 17.1 25.1 15.8 31.5 4.1 6.3-11.5-12.2-12.9-12.2-12.9z"/><path fill="#3C1000" d="M184.7 293.7c-11.2 0-25.6-.9-25.7-1-.6 0-1.3-.3-1.8-.7-.3-.2-3-2.5-4.1-7.3-.2-.8-.7-3.3-.4-21.7h-2.3c-3.4 0-6.2-.1-8.8-.2.3 12.2.2 19.6-.3 21.8-1.1 4.8-3.8 7.1-4.1 7.3-.5.4-1.1.6-1.8.7-.1 0-14.5 1-25.7 1-9.3 0-12.2-.6-13.6-1.1-.8-.3-1.7-.4-2.6-.6-2.1-.3-4.6-.7-6.2-3.1-2.1-3.2-1.7-8.7 1.3-20.6 2.6-9.9 8.7-12 13.4-12 8.4 0 18.1 6.8 23.9 10.9.1.1.3.2.4.3-.1-1.5-.3-3.8-.8-7-12.8-3.8-19.1-12.5-19.1-26.5 0-9.2 2.7-21 7.3-32.2-2.5-.2-5-.3-7.3-.3-7.1 0-11 1.5-13.5 5.1-4.6 6.6-11 10.2-17.9 10.2-9.1 0-17-6.2-19.3-15.1-1-3.9-.5-7.1 1.4-9.6 2-2.6 5.4-4.1 10.2-4.4-.1-.4-.2-.9-.2-1.3-.1-1.9.5-3.6 2-5.1 1.2-1.1 2.6-1.7 4.2-1.7 4 0 7.7 4 9.3 6 1.6.7 4.6 1.4 10.1 1.4 9.5 0 22.1-2.1 31.3-4 8.1-11.5 17.4-17.6 26.7-17.6 7.8 0 15.7 4.4 22.9 12.7 8.9 4.7 36.1 18.6 48.9 18.6.7 0 1.3 0 1.9-.1 1.6-1.2 5.4-3.7 8.8-3.7 2.3 0 4.1 1 5.3 2.9 1 1.7 1.3 3.6.7 5.4-.1.4-.3.9-.6 1.2 3.2 1.1 6.7 2.9 8.4 6.1 1.1 2.1 1.9 5.6-.7 10.3-3.5 6.4-10.3 10.4-17.6 10.4-8.8 0-16.1-5.6-19.6-14.9-2.3-6.2-8.1-7-17.4-7.9-.8-.1-1.6-.1-2.3-.2 3.5 9.8 5.5 19.7 5.5 27.6 0 20.9-14.1 26.2-25.8 28-.4 2.4-.5 4.2-.6 5.5.1-.1.3-.2.4-.3 5.8-4.1 15.5-10.9 23.9-10.9 4.7 0 10.8 2.1 13.4 12 3.1 11.8 3.4 17.4 1.3 20.6-1.6 2.5-4.2 2.8-6.2 3.1-.9.1-1.8.3-2.6.6-1.7.8-4.6 1.4-14 1.4zm-24-7.2c3.7.2 14.9.9 24 .9 8.4 0 10.8-.5 11.4-.8 1.4-.5 2.8-.7 3.8-.9.7-.1 1.7-.2 1.9-.4.3-.4 1.1-2.8-2.2-15.5-1.7-6.4-4.8-7.2-7.3-7.2-6.4 0-15.5 6.3-20.3 9.7-2.9 2-4.2 2.9-5.3 3.2-.2.1-.7.1-.9.1-1.1 0-2.1-.5-2.8-1.3-1.2-1.4-2.1-3.6-.2-15.7.2-1.4 1.3-2.5 2.7-2.6 16.1-1.9 22.6-8.3 22.6-22 0-8.4-2.6-19.7-7-30.2-.4-1.1-.3-2.3.4-3.2.7-.9 1.9-1.3 3-1.1 2.3.4 4.8.6 7.2.8 8.9.8 18.9 1.7 22.8 11.9 2.6 6.9 7.6 10.8 13.7 10.8 5 0 9.7-2.7 12.1-7.2 1.5-2.7.9-3.9.7-4.3-1.4-2.7-7.5-4-10.2-4.2-1.5-.1-2.7-1.2-2.9-2.7-.2-1.5.6-2.9 2-3.4 1.4-.6 2.7-1.6 2.8-2.1-1.3 0-4 1.7-5.5 2.8-.4.3-.8.5-1.3.6-1.2.3-2.5.4-3.9.4-14.1 0-41.3-13.8-52.4-19.7-.4-.2-.7-.4-.9-.7-4.2-5-10.8-11-18.5-11-9.4 0-17.3 8.6-22.2 15.9-.5.7-1.2 1.1-2 1.3-9.6 2-23.3 4.4-33.8 4.4-6.1 0-10.5-.8-13.6-2.4-.4-.2-.8-.5-1.1-.9-1.5-2-3.9-4.1-4.7-4.1.2.5 1.2 1.8 2.4 2.7 1.2.9 1.6 2.4 1 3.8-.6 1.3-2 2.1-3.4 1.9 0 0-1.8-.3-4-.3-3.5 0-6.1.7-7.1 2-.7.9-.8 2.3-.3 4.1 1.5 6 7.1 10.3 13.2 10.3 4.8 0 9.3-2.7 12.7-7.5 4.8-6.9 12.5-7.8 18.7-7.8 2.7 0 5.5.2 8.3.4 1.3.1 2.6.2 3.9.2 1 .1 2 .6 2.5 1.5s.6 2 .2 2.9c-5.2 11.4-8.5 24.4-8.5 33.7 0 11.9 4.9 18.1 16.3 20.9 1.2.3 2.2 1.3 2.4 2.5 2.2 13 1.3 15.4 0 16.9-.7.9-1.8 1.3-2.9 1.3-.3 0-.7-.1-.9-.1-1.2-.3-2.4-1.1-5.3-3.2-4.9-3.4-13.9-9.7-20.3-9.7-2.5 0-5.6.8-7.3 7.2-3.3 12.7-2.5 15.1-2.2 15.5.2.1 1.2.3 1.9.4 1.1.2 2.4.4 3.8.9.6.2 3 .8 11.5.8 9.1 0 20.3-.6 24-.9.4-.6 1-1.6 1.4-3.2.3-1.4.5-8.4.1-23.7 0-.9.3-1.8 1-2.4.6-.6 1.5-.9 2.4-.9 3.3.3 7.1.4 11.8.4 1.9 0 3.7 0 5.5-.1 1 0 1.7.3 2.3.9.6.6.9 1.4.9 2.3-.3 15.2-.1 22.1.2 23.4.7 2.1 1.3 3.1 1.7 3.7z"/><path fill="#B69457" d="M253.1 108c-.6-16.8-5.3-32.5-13.1-46.2 25-17.4 3.4-48.2 3.4-48.2-.3 9.9-18.6 14.7-31 16.8-18.3-14-41.4-21.8-66.3-20.9-21.8.8-41.7 8.3-57.9 20.4-12.3-2.3-28.4-7-28.7-16.4 0 0-20.4 29.1 1.4 46.7-9.6 16.3-14.8 35.3-14.1 55.6 2.1 56.5 53.9 63.8 110.8 61.7 57-2.2 97.6-13 95.5-69.5z"/><path fill="#3C1000" d="M141.7 180.9c-44.5 0-95.8-7.4-97.9-65-.7-19.2 3.8-38.2 13.2-55-16.3-15.5-7.3-38.7 0-49.2.8-1.1 2.2-1.6 3.5-1.2 1.3.4 2.2 1.6 2.2 2.9.1 5.2 9.4 10.1 24.8 13.1C104.6 14.1 124.8 7.2 146 6.4c24.5-.9 47.7 6.3 67.2 20.6 16.8-3 26.9-8 27.1-13.6 0-1.4.9-2.5 2.2-2.9 1.3-.4 2.7.1 3.5 1.2.5.7 11.6 16.9 8.7 33.3-1.2 7-4.8 12.9-10.7 17.7 7.5 14.1 11.6 29.3 12.2 45.3 2.4 63.6-49.6 70.9-98.4 72.7-5.8.1-11.1.2-16.1.2zM59 20.6c-4.4 8.6-10.3 25.7 3.9 37.2 1.2 1 1.5 2.7.7 4-9.6 16.3-14.3 35-13.6 53.9 1.5 40.8 29.8 59 91.7 59 5 0 10.2-.1 15.9-.3 58.5-2.2 94.4-14.1 92.4-66.2-.6-15.9-4.9-31-12.7-44.8-.8-1.4-.4-3.2.9-4.1 16.5-11.5 10.3-29.6 5.8-38.5-4.5 5.8-14.9 10.1-31 12.8-.8.1-1.7-.1-2.4-.6-18.5-14-40.8-21.1-64.3-20.1-20.4.8-39.8 7.6-56.2 19.7-.7.5-1.6.7-2.5.6-14.7-3-24.3-7.1-28.6-12.6z"/><path fill="#3C1000" d="M209.9 108.6c.3 7.8-5.8 14.5-13.7 14.8-7.9.3-14.5-5.8-14.8-13.7-.3-7.8 5.8-14.5 13.7-14.8 7.9-.3 14.5 5.8 14.8 13.7z"/><circle transform="rotate(-2.219 104.449 112.657) scale(1.00005)" fill="#3C1000" cx="104.4" cy="112.6" r="14.2"/><circle transform="rotate(-87.57 85.06 145.585)" fill="#F1A0A5" cx="85.1" cy="145.6" r="13.8"/><circle transform="rotate(-87.558 219.264 140.25) scale(1.00001)" fill="#F1A0A5" cx="219.3" cy="140.2" r="13.8"/><circle transform="matrix(.9993 -.03855 .03855 .9993 -4.017 7.836)" fill="#FFF" cx="201.2" cy="108.1" r="5.5"/><path fill="#FFF" d="M116.9 111.3c.1 3-2.3 5.6-5.3 5.7-3 .1-5.6-2.3-5.7-5.3-.1-3 2.2-5.6 5.3-5.7 3.1-.1 5.6 2.3 5.7 5.3zm-3.8 34.8l9.5 13.9s-2.5 15.5-32.4 17.8c-29.8 2.3 22.5-24.8 22.9-31.7z"/><path fill="#3C1000" d="M87 179.5c-2.8 0-6.5-.3-7.4-3-1.3-4.1 5.9-9.7 17.8-18.5 5.5-4.1 13.9-10.2 14.1-12.1.1-.6.6-1.2 1.2-1.4.6-.1 1.3.1 1.7.6l9.5 13.9c.2.3.3.7.3 1.1-.1.7-3.1 16.7-33.8 19.1-1.3.3-2.4.3-3.4.3zm26.3-30.4c-2.2 2.8-7 6.4-14 11.5-5.6 4.1-17.4 12.8-16.7 14.9 0 0 .6.8 4.4.8.9 0 1.9 0 3.1-.1 24.9-1.9 30-13.2 30.8-15.9l-7.6-11.2z"/><path fill="#FFF" d="M190.7 146.1l-9.5 13.9s2.5 15.5 32.4 17.8c29.8 2.3-22.5-24.8-22.9-31.7z"/><path fill="#3C1000" d="M216.8 179.5c-1 0-2.1 0-3.3-.1-30.7-2.4-33.7-18.4-33.8-19.1-.1-.4 0-.8.3-1.1l9.5-13.9c.4-.6 1.1-.8 1.7-.6.6.2 1.1.8 1.2 1.4.2 1.9 8.6 8 14.1 12.1 11.9 8.8 19.2 14.3 17.8 18.5-1 2.5-4.8 2.8-7.5 2.8zm-33.9-19.2c.9 2.6 5.9 14 30.8 15.9 1.2.1 2.2.1 3.1.1 3.8 0 4.4-.8 4.4-.8.7-2.2-11.1-10.8-16.7-14.9-7-5.1-11.8-8.7-14-11.5l-7.6 11.2z"/><ellipse fill="#FAD7B5" cx="151.2" cy="146.1" rx="43" ry="21.5"/><path fill="#3C1000" d="M151.2 169.1c-25 0-44.5-10.1-44.5-23s19.6-23 44.5-23c25 0 44.5 10.1 44.5 23s-19.6 23-44.5 23zm0-43c-22.5 0-41.5 9.2-41.5 20s19 20 41.5 20 41.5-9.2 41.5-20-19-20-41.5-20z"/><ellipse fill="#F2A19A" cx="133.8" cy="145.6" rx="7.9" ry="11"/><path fill="#3C1000" d="M133.8 158.1c-5.2 0-9.4-5.6-9.4-12.5s4.2-12.5 9.4-12.5 9.4 5.6 9.4 12.5-4.2 12.5-9.4 12.5zm0-22c-3.5 0-6.4 4.2-6.4 9.5 0 5.2 2.9 9.5 6.4 9.5 3.5 0 6.4-4.3 6.4-9.5 0-5.1-2.9-9.5-6.4-9.5z"/><ellipse fill="#F2A19A" cx="167.1" cy="145.6" rx="7.9" ry="11"/><path fill="#3C1000" d="M167.1 158.1c-5.2 0-9.4-5.6-9.4-12.5s4.2-12.5 9.4-12.5 9.4 5.6 9.4 12.5c.1 6.9-4.1 12.5-9.4 12.5zm0-22c-3.5 0-6.4 4.3-6.4 9.5 0 5.1 2.9 9.5 6.4 9.5 3.5 0 6.4-4.2 6.4-9.5.1-5.2-2.8-9.5-6.4-9.5zm-18.5-46.6c-1.4 0-2.7-1-3.1-2.4-7.1-29.7-2.5-73.9-2.3-75.8.2-1.7 1.7-3 3.5-2.8 1.7.2 3 1.7 2.8 3.5 0 .4-4.7 45 2.1 73.7.4 1.7-.6 3.4-2.3 3.8-.2-.1-.5 0-.7 0zm-25.7-11.8c-1.5 0-2.8-1-3.1-2.5-5.6-27-4.1-57.4-4-58.7.1-1.7 1.5-3.1 3.3-3 1.7.1 3.1 1.6 3 3.3 0 .3-1.5 30.9 3.9 57.1.4 1.7-.7 3.4-2.4 3.7-.3.1-.5.1-.7.1zm47.1 0h-.5c-1.7-.3-2.9-1.9-2.6-3.6 4.7-31.1 4.4-59.4 4.4-59.7 0-1.7 1.4-3.2 3.1-3.2 1.7 0 3.1 1.4 3.1 3.1 0 .3.3 29.1-4.4 60.7-.2 1.6-1.6 2.7-3.1 2.7z"/></svg>