<svg xmlns="http://www.w3.org/2000/svg" viewBox="0 0 300 300"><path fill="#002538" d="M218.1 138.5l-10.9 5.5-25.6-.2 10.9-5.5z"/><path fill="#00456A" d="M190.8 85l25.6.2 1.7 53.3-25.6-.2z"/><path fill="#002538" d="M192.5 138.3l-10.9 5.5-1.8-53.2 11-5.6z"/><path fill="#796552" d="M193.2 160.4l-10.9 5.6-.7-22.2 10.9-5.5zm25.6.2l-10.9 5.6-25.6-.2 10.9-5.6z"/><path fill="#E4BE9B" d="M192.5 138.3l25.6.2.7 22.1-25.6-.2z"/><path fill="#796552" d="M181.5 49.5l-10.9 5.6-.7-19.9 11-5.6z"/><path fill="#31261A" d="M181.5 49.5l-10.9 5.6-6.8-7.7 10.9-5.6z"/><path fill="#796552" d="M169.6 49.7l-10.9 5.5 5.1-7.8 10.9-5.6z"/><path fill="#31261A" d="M169.6 49.7l-10.9 5.5-5.6-7.9 10.9-5.6z"/><path fill="#796552" d="M173 62.6l-10.9 5.6-.2-6 11-5.5zm-14.1-13L148 55.2l5.1-7.9 10.9-5.6z"/><path fill="#796552" d="M172.9 56.7l-11 5.5-13.9-.1 10.9-5.5z"/><path fill="gray" d="M164.9 62.6L154 68.1l-.2-5.9 10.9-5.6zm8.1 0l-10.9 5.6-8.1-.1 10.9-5.5z"/><path fill="#31261A" d="M158.9 49.6L148 55.2l-5.6-8 10.9-5.6z"/><path fill="gray" d="M164.7 56.6l-10.9 5.6-5.8-.1 10.9-5.5z"/><path fill="#F1F1F1" d="M158.9 56.6l14 .1.1 5.9h-8.1l-.2-6z"/><path fill="#3A322C" d="M164.9 62.6L154 68.1h-5.8l10.9-5.6z"/><path fill="#3A322C" d="M159.1 62.5l-10.9 5.6-.2-6 10.9-5.5z"/><path fill="#796552" d="M167 81.4l-10.9 5.5-.3-8.7 10.9-5.6zm-7.7-12.7l-10.9 5.6-.2-6.2 10.9-5.6zm-11-19.2l-11 5.6 5.1-7.9 10.9-5.6z"/><path fill="#31261A" d="M148.3 49.5l-11 5.6-5.6-8 10.9-5.5z"/><path fill="#796552" d="M159.1 62.5l-10.9 5.6L138 68l10.9-5.5z"/><path fill="#796552" d="M148.9 62.5L138 68l-.2-5.9 10.9-5.6zm-.2-6l-10.9 5.6-5.8-.1 10.9-5.5z"/><path fill="#524231" d="M159.3 68.7l-10.9 5.6-10.2-.1 10.9-5.6zm-10.2-.1l-10.9 5.6-.2-6.2 10.9-5.5z"/><path fill="#796552" d="M137.6 49.5L126.7 55l5-7.9 10.9-5.5z"/><path fill="#3A322C" d="M143.1 62.4L132.2 68l-.2-6 10.9-5.5z"/><path fill="#3A322C" d="M148.9 62.5L138 68h-5.8l10.9-5.6z"/><path fill="#31261A" d="M137.6 49.5L126.7 55l-5.6-7.9 10.9-5.6z"/><path fill="#796552" d="M142.9 56.5L132 62h-8.1l10.9-5.6zm23.8 16.1l-10.9 5.6-24.3-.2 10.9-5.6z"/><path fill="gray" d="M143.1 62.4L132.2 68l-8.2-.1 11-5.5z"/><path fill="gray" d="M135 62.4l-11 5.5-.1-5.9 10.9-5.6z"/><path fill="#31261A" d="M158.3 81.3l-10.9 5.6-15.6-.1 10.9-5.6zm-15.6-.1l-10.9 5.6-.3-8.8 10.9-5.6z"/><path fill="#796552" d="M125.7 49.2l-11 5.5 6.4-7.6 10.9-5.6z"/><path fill="#5D4731" d="M125 29.2l55.9.4.6 19.9-6.8-7.7-5.1 7.9-5.6-8-5.1 7.9-5.6-8-5 7.9-5.7-7.9-5 7.9-5.6-8-6.3 7.7z"/><path fill="#31261A" d="M125.7 49.2l-11 5.5-.6-19.9 10.9-5.6z"/><path fill="#E4BE9B" d="M181.5 49.5l-.6-19.9 1.7 51.9-15.6-.1-.3-8.8-24.3-.2.3 8.8 15.7.1-31.6-.2-1.8-51.9.7 19.9 6.3-7.7 5.6 8 5.1-7.9 5.6 8 5.1-7.9 5.6 8 5.1-7.9 5.6 8 5.1-7.9 6.7 7.7zM173 62.6l-.2-6-13.9-.1.2 6-10.3-.1-.2-6h-5.8l-8.1-.1.2 6 8.1.1h5.8l.2 6.2 10.3.1-.2-6.2h5.8l8.1.1"/><path fill="#6D5E52" d="M158.9 56.6h5.8l.2 6-5.8-.1z"/><path fill="#796552" d="M182.5 81.5L171.6 87l-15.5-.1 10.9-5.5z"/><path fill="#31261A" d="M167 81.4l-10.9 5.5h-8.7l10.9-5.6z"/><path fill="#9B7C5D" d="M148.9 62.5h10.2l.2 6.2-10.2-.1z"/><path fill="#6D5E52" d="M142.9 56.5h5.8l.2 6-5.8-.1z"/><path fill="#F1F1F1" d="M134.8 56.4l8.1.1.2 5.9H135z"/><path fill="#5D4731" d="M142.4 72.4l24.3.2.3 8.8-8.7-.1-15.6-.1z"/><path fill="#796552" d="M158.3 81.3l-10.9 5.6-31.6-.2 10.9-5.6zm-31.6-.2l-10.9 5.6-1.7-51.9 10.9-5.6z"/><path fill="#002538" d="M167.4 93.9l-10.9 5.6-.3-9 10.9-5.5zm23.4 81l-10.9 5.6-.4-13.2 10.9-5.6z"/><path fill="#796552" d="M142.7 84.8l-11 5.6v-.1l11-5.6zm24.7 9.1l-10.9 5.6-24.5-.2 10.9-5.6z"/><path fill="#796552" d="M142.9 93.7L132 99.3l-.3-8.9 11-5.6z"/><path fill="#E4BE9B" d="M142.7 84.7l24.4.2v.1l.3 8.9-24.5-.2-.2-8.9z"/><path fill="#002538" d="M190.4 161.7l-10.9 5.6-66.1-.5 10.9-5.5z"/><path fill="#00554F" d="M190.8 174.9l-10.9 5.6-66.1-.5 11-5.5z"/><path fill="#00A094" d="M124.3 161.3l66.1.4.4 13.2-66-.4z"/><path fill="#00554F" d="M124.8 174.5l-11 5.5-.4-13.2 10.9-5.5z"/><path fill="#002538" d="M191 175.2l-10.9 5.6-66.3-.5 10.9-5.5z"/><path fill="#00456A" d="M167.1 85l21 .1 2.9 90.1-66.3-.4-2.9-90.1 20.9.1.3 8.9 24.5.2-.4-8.9zm23.7 89.9l-.4-13.2-66.1-.4.4 13.2 66.1.4"/><path fill="#002538" d="M124.7 174.8l-10.9 5.5-3-90.1 11-5.5z"/><path fill="#002538" d="M120.4 137.8l-10.9 5.6-25.6-.2 10.9-5.6z"/><path fill="#00456A" d="M93.1 84.4l25.6.2 1.7 53.2-25.6-.2z"/><path fill="#002538" d="M94.8 137.6l-10.9 5.6L82.1 90l11-5.6z"/><path fill="#796552" d="M95.5 159.8l-10.9 5.6-.7-22.2 10.9-5.6z"/><path fill="#796552" d="M121.1 160l-10.9 5.5-25.6-.1 10.9-5.6z"/><path fill="#E4BE9B" d="M94.8 137.6l25.6.2.7 22.2-25.6-.2z"/><path fill="#00554F" d="M193.2 247.5l-10.9 5.6-30.9-.2 11-5.6z"/><path fill="#00554F" d="M162.4 247.3l-11 5.6-2.2-70.1 10.9-5.5z"/><path fill="#00A094" d="M160.1 177.3l30.8.2 2.3 70-30.8-.2z"/><path fill="#0D0D0D" d="M193.8 265.4l-11 5.6-30.8-.2 10.9-5.6z"/><path fill="#0D0D0D" d="M162.9 265.2l-10.9 5.6-.6-17.9 11-5.6z"/><path fill="#191919" d="M162.4 247.3l30.8.2.6 17.9-30.9-.2z"/><path fill="#00554F" d="M157.3 247.3l-10.9 5.6-30.9-.2 11-5.6zm-30.8-.2l-11 5.6-2.2-70.1 10.9-5.6z"/><path fill="#00A094" d="M124.2 177l30.8.2 2.3 70.1-30.8-.2z"/><path fill="#0D0D0D" d="M157.9 265.2l-11 5.6-30.8-.3L127 265zM127 265l-10.9 5.5-.6-17.8 11-5.6z"/><path fill="#191919" d="M126.5 247.1l30.8.2.6 17.9-30.9-.2z"/></svg>