<svg xmlns="http://www.w3.org/2000/svg" viewBox="0 0 284 284"><ellipse fill="#040000" cx="142" cy="246.834" rx="141.666" ry="37.166"/><path fill="#BD621E" d="M237.22 184.121c-.264-51.691-41.943-93.515-93.328-93.515-51.546 0-93.332 42.088-93.332 94.006 0 3.063.156 6.09.44 9.079v37.93h.006c.128 7.563 10.354 14.412 26.86 19.41.176.177.341.364.519.54 16.864 4.984 40.063 8.063 65.673 8.063 25.374 0 48.379-3.022 65.202-7.927.102-.101.196-.207.297-.309 17.234-5.026 27.972-12.027 28.104-19.778h.006v-47.5h-.447z"/><circle fill="#040000" cx="102.661" cy="158.228" r="9.772"/><circle fill="#040000" cx="185.661" cy="158.228" r="9.772"/><ellipse fill="#EEC45E" cx="144.333" cy="199.121" rx="31.167" ry="42.771"/><circle fill="#C3291F" cx="144.332" cy="207.562" r="15.439"/><path fill="#040000" d="M144.332 224.001c-9.065 0-16.439-7.375-16.439-16.439s7.375-16.438 16.439-16.438 16.438 7.374 16.438 16.438-7.374 16.439-16.438 16.439zm0-30.878c-7.962 0-14.439 6.478-14.439 14.438 0 7.962 6.478 14.439 14.439 14.439s14.438-6.478 14.438-14.439c.001-7.96-6.477-14.438-14.438-14.438z"/><circle fill="#FFF" cx="147.333" cy="204.229" r="5.333"/><path fill="#040000" d="M182.094 192.121a2 2 0 01-.382-3.963l30.667-6a2 2 0 01.768 3.926l-30.667 6a2.034 2.034 0 01-.386.037zm30.671 30c-.127 0-.256-.012-.386-.037l-30.667-6a2 2 0 01-1.579-2.347 1.994 1.994 0 012.347-1.579l30.667 6a2 2 0 01-.382 3.963zm1.289-18.122h-31.958a2 2 0 010-4h31.958a2 2 0 010 4zm-105.998-11.878c-.127 0-.256-.012-.386-.037l-30.666-6a2 2 0 01.768-3.926l30.666 6a2 2 0 01-.382 3.963zm-30.67 30a2 2 0 01-.382-3.963l30.666-6a2 2 0 01.768 3.926l-30.666 6c-.13.025-.259.037-.386.037zm30.668-18.122H76.096a2 2 0 010-4h31.958a2 2 0 010 4z"/></svg>