<svg xmlns="http://www.w3.org/2000/svg" viewBox="0 0 150 150"><path fill="#FFF" d="M138.4 108.2c3.7.1 7.3-1.1 10.7-4.5-1.4 5.4-3.5 8-6.8 10.5-1.7 1.3-7.7 4.2-13.1 5.5-6.1 1.5-9.8 6.2-13.7 10.8-16.8 19.9-68.9 20.4-94.6 1.7-12-8.7-12.9-15.1-16.8-27.8C.2 91.9-.2 71.8 3 59c7.3-29.1 36.9-54.2 69.5-38 11.8 5.9 20.1 15.9 24.1 27.9 2 5.9 3.3 12 2.6 18.2-.8 7.4-3.7 14.3-4.5 21.7-.7 6.8-.4 18 6.2 19.3 4.5.9 7.6-1.6 11.3-3.1 3.8-1.6 6.9-2.4 11.2-.9 4.9 1.7 10 4 15 4.1z"/><path fill="#D3DFE6" d="M91.1 39.5c2 5.9 3.3 12 2.6 18.2-.8 7.4-3.7 14.3-4.5 21.6-.7 6.5-.4 17.3 5.5 19.1-.4-3.2-.4-6.5 0-9.7.8-7.3 3.7-14.3 4.5-21.7.6-6.1-.6-12.3-2.6-18.2-1.7-5-4.1-9.7-7.2-13.9.6 1.6 1.2 3.1 1.7 4.6zm47.3 68.7c-2.1-.1-4.1-.4-6.1-1-2.8 1.3-5.6 2.3-8.6 3.1-6.1 1.5-9.8 6.2-13.7 10.7-16.8 19.9-68.9 20.4-94.6 1.7-3.3-2.4-5.7-4.6-7.6-6.8 2.3 6 5.4 10.6 13.1 16.2 25.7 18.7 77.7 18.3 94.6-1.7 3.9-4.6 7.6-9.2 13.7-10.7 5.3-1.3 11.4-4.3 13.1-5.5 3.4-2.5 5.4-5.1 6.8-10.5-3.5 3.5-7.1 4.6-10.7 4.5z"/><path fill="#9FA0A0" d="M70 146.7c-19.2 0-37.7-5.1-49.6-13.8-11-8-12.9-14.2-16.1-24.6-.4-1.2-.7-2.4-1.1-3.7-3.9-12.5-4.3-32.6-1-45.9C6.6 41.2 18.6 25.9 33.6 19c12.6-5.8 26.2-5.4 39.3 1.1C84.6 25.9 93.3 36 97.5 48.6c2.4 7.1 3.2 13.1 2.6 18.5-.4 3.8-1.3 7.5-2.3 11-.9 3.5-1.8 7.1-2.2 10.7-.3 2.8-1.4 17 5.4 18.3 3.1.6 5.6-.6 8.2-1.9.8-.4 1.7-.8 2.5-1.2 4.2-1.7 7.5-2.5 11.8-.9 1 .3 2 .7 2.9 1.1 3.9 1.5 8 3 11.8 3.1 3.8.1 7.1-1.3 10-4.2.4-.4 1-.4 1.3 0 .2.2.3.6.3.9-1.5 5.8-3.8 8.5-7.2 11-1.7 1.3-7.8 4.3-13.4 5.7-5.5 1.3-9 5.5-12.7 9.8l-.5.6c-8 9.5-24.7 15.4-44.7 15.6H70zM51.9 16.8c-6.1 0-12 1.3-17.5 3.9C19.9 27.4 8.2 42.2 4 59.2.7 72.1 1.2 91.9 5 104.1c.4 1.3.8 2.5 1.1 3.7 3.1 10.3 4.8 16 15.4 23.6 25.6 18.6 77 17.8 93.3-1.5l.5-.6c3.7-4.4 7.5-8.9 13.6-10.4 5.3-1.3 11.2-4.2 12.7-5.4 2.4-1.8 4.2-3.7 5.5-6.9-2.6 1.8-5.7 2.7-8.9 2.6-4.2-.1-8.3-1.7-12.4-3.2-1-.4-1.9-.7-2.9-1.1-3.8-1.3-6.6-.7-10.5.9-.8.3-1.6.7-2.4 1.1-2.8 1.4-5.7 2.8-9.4 2.1-8.2-1.6-7.4-16-6.9-20.3.4-3.7 1.3-7.4 2.2-11 .9-3.5 1.8-7.1 2.2-10.7.6-5.2-.3-10.9-2.5-17.8-4-12.1-12.4-21.8-23.6-27.4-6.6-3.3-13.4-5-20.1-5z"/><path fill="#FFF" d="M15.4 86.4C10.8 89.3 4.1 96.1 3 101.7c-1.2 6.3 3 11.4 8.9 7 2-1.5 2.9-3.1 4.3-5.2s3.1-4.1 5.1-5.8"/><path fill="#9FA0A0" d="M7.7 111.3c-1 0-2-.3-2.8-.8-2.5-1.6-3.6-5.1-2.9-9 1.2-6.1 8.2-13 12.9-15.9.4-.3 1-.1 1.3.3s.1 1-.3 1.3c-4.4 2.8-11 9.5-12 14.7-.6 3.1.2 5.9 2 7 1.4.9 3.4.6 5.4-1 1.6-1.1 2.4-2.4 3.4-4 .2-.3.4-.7.7-1 1.5-2.2 3.3-4.2 5.2-6 .4-.4 1-.3 1.3.1.4.4.3 1-.1 1.3-1.9 1.7-3.5 3.6-4.9 5.7-.2.3-.4.7-.7 1-1.1 1.7-2 3.1-3.9 4.4-1.7 1.5-3.3 1.9-4.6 1.9z"/><path fill="#FFF" d="M60 86.4c-4.7 2.9-11.4 9.8-12.5 15.3-1.2 6.3 3 11.4 8.9 7 2-1.5 2.9-3.1 4.3-5.2 1.5-2.1 3.1-4.1 5.1-5.8"/><path fill="#9FA0A0" d="M52.3 111.3c-1 0-2-.3-2.8-.8-2.5-1.6-3.6-5.1-2.9-9 1.2-6.1 8.2-13 12.9-15.9.4-.3 1-.2 1.3.2.3.4.2 1-.2 1.3l-.1.1c-4.4 2.8-11 9.5-12 14.7-.6 3.1.2 5.9 2 7 1.4.9 3.4.6 5.4-1 1.6-1.1 2.4-2.4 3.4-4 .2-.3.4-.7.7-1 1.5-2.2 3.3-4.2 5.2-6 .4-.4 1-.3 1.3.1.4.4.3 1-.1 1.3-1.9 1.7-3.5 3.6-4.9 5.7-.2.3-.4.7-.7 1-1.1 1.7-2 3.1-3.9 4.4-1.7 1.5-3.3 1.9-4.6 1.9zM18.5 31.5L39.5 4l21 27.5z"/><path fill="#9FA0A0" d="M18.5 32.2c-.4 0-.7-.3-.7-.7 0-.2.1-.3.1-.4L39 3.6c.1-.2.3-.3.6-.3.2 0 .4.1.6.3l21 27.5c.3.3.2.8-.1 1-.1.1-.3.1-.4.1H18.5zm21-27L19.9 30.8H59L39.5 5.2z"/><path fill="#9FA0A0" d="M69.5 38.2h-60l2.5-8 55.3-1z"/><path fill="#9FA0A0" d="M69.5 38.9h-60c-.4 0-.7-.3-.7-.7V38l2.5-8c.1-.3.4-.5.7-.5l55.3-1c.3 0 .6.2.7.6l2.2 8.9c.1.4-.1.8-.5.9h-.2zm-59-1.4h58.1L66.7 30l-54.2 1-2 6.5z"/><path fill="#D92A1C" d="M28.1 68c-.8 2.9-.8 6.3-.8 9.2 0 6.6 4 11.9 8.9 11.9S45 83.8 45 77.2c0-2.9-.1-6.3-.9-9.2-5.3.8-10.7.8-16 0z"/><path fill="#231815" d="M35.6 83.2c-.3 0-.5-.2-.6-.5-1.3-8 1.4-14.2 1.5-14.4.1-.3.5-.4.8-.3.3.1.4.4.3.7-1.7 4.4-2.2 9.1-1.4 13.8 0 .3-.2.7-.6.7z"/><path fill="#231815" d="M36.1 69.6c-2.3 0-4.6-.2-6.8-.7-6.1-1.2-9.9-3.7-10.1-3.8-.4-.3-.6-.9-.3-1.3s.9-.6 1.3-.3c0 0 3.7 2.4 9.5 3.5 7.7 1.5 15.3.3 22.4-3.6.5-.3 1.1-.1 1.3.4.3.5.1 1.1-.4 1.3-5.1 3-11 4.5-16.9 4.5zm-12-16.7c0 2.5-1.7 4.5-3.8 4.5s-3.8-2-3.8-4.5 1.7-4.5 3.8-4.5 3.8 2 3.8 4.5zm31.6 0c0 2.5-1.7 4.5-3.8 4.5-2.1 0-3.8-2-3.8-4.5s1.7-4.5 3.8-4.5c2.1 0 3.8 2 3.8 4.5z"/></svg>