<svg xmlns="http://www.w3.org/2000/svg" viewBox="143 23.5 184.5 220.5"><path fill="#AAABAB" d="M189.25 147c-19.2-4.313-32.221-41.658-36.045-61.038h14.804c3.342 10.171 11.219 40.272 21.241 43.934V147z"/><path fill="#90806B" d="M172.205 100.925l-14.521 3.024-1.224-5.874 14.522-3.024zm6.023 14.152l-13.9 4.88-1.987-5.663 13.9-4.88zm6.479 10.965l-10.719 9.215-3.912-4.551 10.719-9.215z"/><path fill="none" stroke="#000" stroke-width="2" d="M189.25 147c-19.2-4.313-32.221-41.658-36.045-61.038h14.804c3.342 10.171 11.219 40.273 21.241 43.934V147z"/><ellipse fill="#0069A0" stroke="#000" stroke-width="2" cx="161" cy="79.75" rx="14" ry="11.5"/><path fill="#AAABAB" d="M281.542 146.667c19.201-4.313 32.222-41.658 36.045-61.038h-14.803c-3.343 10.171-11.22 40.272-21.242 43.934v17.104z"/><path fill="#90806B" d="M299.811 94.718l14.522 3.024-1.223 5.874-14.522-3.024zm-5.259 14.362l13.9 4.879-1.988 5.661-13.9-4.878zm-4.555 12.082l10.718 9.215-3.912 4.55-10.718-9.214z"/><path fill="none" stroke="#000" stroke-width="2" d="M281.542 146.667c19.201-4.313 32.222-41.658 36.045-61.038h-14.803c-3.343 10.171-11.22 40.273-21.242 43.934v17.104h0z"/><ellipse fill="#0069A0" stroke="#000" stroke-width="2" cx="309.792" cy="79.417" rx="14" ry="11.5"/><path fill="#0069A0" stroke="#000" stroke-width="2" d="M227.791 106.964h15v15h-15z"/><path fill="#AAABAB" stroke="#000" stroke-width="2" d="M232.791 39.363h5v15h-5z"/><path fill="#54C3F1" stroke="#000" stroke-width="2" d="M282.791 92.079c0 11.046-8.955 20-20 20h-55c-11.046 0-20-8.954-20-20v-20c0-11.046 8.954-20 20-20h55c11.045 0 20 8.954 20 20v20z"/><path fill="#AAABAB" stroke="#000" stroke-width="2" d="M272.791 92.079c0 5.522-4.477 10-10 10h-55c-5.523 0-10-4.478-10-10v-20c0-5.522 4.477-10 10-10h55c5.523 0 10 4.478 10 10v20z"/><circle fill="#FFF" stroke="#000" stroke-width="2" cx="217.777" cy="81.245" r="14"/><circle fill="#666464" cx="217.777" cy="81.245" r="7"/><circle fill="#FFF" stroke="#000" stroke-width="2" cx="252.305" cy="81.245" r="14"/><circle fill="#666464" cx="252.305" cy="81.245" r="7"/><circle fill="#FFF100" stroke="#000" stroke-width="2" cx="235.291" cy="34.416" r="7"/><path fill="#AAABAB" d="M220.766 217.315l-14.966-1.02 1.36-19.953 14.965 1.02z"/><path fill="#90806B" d="M220.772 210.269l-13.968-.95.408-5.987 13.967.95z"/><path fill="none" stroke="#000" stroke-width="2" d="M220.766 217.315l-14.966-1.02 1.36-19.953 14.965 1.02z"/><path fill="#0069A0" stroke="#000" stroke-width="2" d="M186.455 236.046c-10.649-4.993 10.214-23.177 23.456-22.407 13.241.77 32.428 22.212 20.2 25.381-12.228 3.168-33.007 2.017-43.656-2.974z"/><path fill="#AAABAB" d="M250.588 197.347l14.967-1.02 1.36 19.953-14.967 1.02z"/><path fill="#90806B" d="M251.577 204.278l13.969-.951.407 5.986-13.969.95z"/><path fill="none" stroke="#000" stroke-width="2" d="M250.588 197.347l14.967-1.02 1.36 19.953-14.967 1.02z"/><path fill="#0069A0" stroke="#000" stroke-width="2" d="M283.743 237.215c9.922-4.731-10.356-23.43-22.856-22.985-12.502.442-30.005 21.418-18.345 24.888 11.659 3.467 31.278 2.827 41.201-1.903z"/><ellipse fill="#0069A0" stroke="#000" stroke-width="2" cx="195.791" cy="139.083" rx="10" ry="15"/><ellipse fill="#0069A0" stroke="#000" stroke-width="2" cx="274.791" cy="139.083" rx="10" ry="15"/><path fill="#54C3F1" stroke="#000" stroke-width="2" d="M275.346 188.006c0 5.522-4.477 10-10 10h-60c-5.523 0-10-4.478-10-10v-60c0-5.523 4.477-10 10-10h60c5.523 0 10 4.477 10 10v60z"/><circle fill="#16902E" stroke="#000" stroke-width="2" cx="213.399" cy="139.825" r="7"/><path fill="#005E15" d="M214.826 143.458a5 5 0 01-5-5c0-.864.239-1.665.625-2.375-1.557.847-2.625 2.478-2.625 4.375a5 5 0 005 5c1.897 0 3.527-1.069 4.375-2.625a4.95 4.95 0 01-2.375.625z"/><circle fill="#F39800" stroke="#000" stroke-width="2" cx="235.816" cy="139.825" r="7"/><path fill="#C07700" d="M237.243 143.458a5 5 0 01-5-5c0-.864.239-1.665.625-2.375-1.557.847-2.625 2.478-2.625 4.375a5 5 0 005 5c1.897 0 3.527-1.069 4.375-2.625a4.95 4.95 0 01-2.375.625z"/><circle fill="#EA609E" stroke="#000" stroke-width="2" cx="258.398" cy="139.825" r="7"/><path fill="#B94A7E" d="M259.826 143.458a5 5 0 01-5-5c0-.864.238-1.665.625-2.375-1.557.847-2.625 2.478-2.625 4.375a5 5 0 005 5c1.896 0 3.527-1.069 4.375-2.625a4.953 4.953 0 01-2.375.625z"/><path fill="#C9CACA" d="M259.346 176.005h-48l4-18h40z"/><path fill="none" stroke="#FFF" stroke-width="2" stroke-linecap="round" stroke-linejoin="round" d="M210.409 170.755l5.75-3.75 2.5 3.625 2.625-6.25 4.625-4 3.375 13.125 3.75-6.5 3.25-2.75 4.125 3.375 3.999-2.625 3.25 8.625 4.25-11.625 2.625 6 2.75-.875 3 3"/><path fill="#898989" d="M260.346 156.005a3 3 0 00-3-3h-44c-1.656 0-3 1.344-3 3l-4 22c0 1.656 1.344 3 3 3h52a3 3 0 003-3l-4-22zm-49 20l4-18h40l4 18h-48z"/></svg>