<svg xmlns="http://www.w3.org/2000/svg" viewBox="0 0 300 300"><path fill="#EBC882" d="M172.6 279.2s24.9-26.1 25.3-32c.5-6.4-19.5-19.7-19.5-19.7l-7.2 10.9 13.8 11.2-18.8 24.1"/><path fill="#846248" d="M180 293.9s-3.5 5.5-11.4-4.5c-4.6-5.8-3.1-11.4-3.1-11.4s-2.1 2.8-2.4 2.8c-.3 0-2.2-1.6-2.1-2 .1-.4 4.7-5.4 10.8-12.8"/><path fill="#583C27" d="M169 270.2c1.7-3.8 12-15.3 12-15.3 3.1 3.6 5.7 5 7.9 6.1 0 0-5 5.4-10 13.5s4.2 18.1.3 20.1c-2.2 1.1-15.1-7.7-10.2-24.4z"/><path fill="#846248" d="M191.6 259.5c-3.7-1.3-8.4-5.1-9.9-7.8-.2-.4-6.8 6.4-6.5 7.1 1 2.3 6.8 7.7 11.1 8.8.8.2 5.7-7.9 5.3-8.1z"/><path fill="#F5D288" d="M196.3 240c-4.3 10.1 6.6 16.6 11.7 9.8 4.5-6.1-6.7-10.7-6.7-10.7l-1.7-13-7 .9 3.7 13z"/><path fill="#A49079" d="M181.4 163.9c7-1.9 14.1-17.8 14.1-17.8s-29.6 4.8-48.4 0c1.6 8.9 8.6 19.6 8.6 19.6s-38.2 44-46.4 53.5c0 0 18.3 11.5 34.9 13.9 16.7 2.4 39.7-4.3 39.7-4.3s-6.8-47.2-2.5-64.9z"/><path fill="#533823" d="M179.9 156.6c6.2-.8 10.4 35.6 11.6 43.9 3.7 6.6 13.3 20.1 10.9 29.1.8.4 2.4 2 2.8 4.5-2.5.2-4.2-1.3-4.2-1.3s.1 2-2.1 3.8c-2.4-.8-3-2.5-3.2-2.9 0 0-.6 2-3.7 3.5-1.3-3-.1-5-.1-5h.1c-4.8-1-8.3-29.2-8.3-29.2s-11.7-45.4-3.8-46.4z"/><path fill="#C49F5A" d="M229.6 250.5c7.6 4.6 1.9 19.6-5.7 18.9-4.6-.4-109-27.3-139.3-53.3l5.3-4.6c37.5 20.8 137.4 37.6 139.7 39z"/><path fill="#CAA45D" d="M89.9 211.5c5.4 3 12 5.9 19.4 8.6 19.1 7.6 43.2 14.5 64.8 19.8 30.6 7.6 56.2 12.3 56.3 12.3l-.7 3.8c-.1-.1-102.5-18.7-142.6-42.1l2.8-2.4z"/><path fill="#CEA75F" d="M173.9 244.4c30.6 8.7 55.9 14.3 56 14.3l-1 4.3c-.1-.1-101.8-22.6-143.8-47.1l.2-.4 3.1-2.7c20.5 11.6 55.5 23.1 85.5 31.6z"/><path fill="#CAA45D" d="M87.2 213.9c18.5 12.9 51.6 25.3 80.5 34.5 30.1 9.6 55.6 15.7 55.6 15.7l-.9 3.7c-.1-.1-89.5-21.5-131.8-47.1-2.2-1.5-4.3-3-6-4.6l2.6-2.2z"/><path fill="#E1B668" d="M223.9 269.4c-.2 0-.8-.1-1.5-.3-2.4-1.9-3.1-6.5-1.5-11.1 1.7-4.8 5.3-8 8.5-7.7.1 0 .1.1.2.1 7.6 4.6 1.9 19.7-5.7 19z"/><path fill="#CEA75F" d="M225.5 261c-.1 1.2 1.4-4.9 2.4-3-.2 1.7-1.4 4.2-3.1 5.5-1 .5-.4-4.4.7-6.5.9-3.2 4.4-3.2 4.6-.5.2 2.4-.7 4.7-1.6 6.4-1.8 3.9-4.7 3.5-4.7 3.7-.3.2 3.4.9 5.4-3.2 1-1.8 2.2-4.1 2-7 .1-4.1-6.6-3.7-7 .1-.5 2.5-3.4 7.1 1.1 8 2.4-2 3.2-4.3 3.4-6.6.6-1.6-2.2-2.1-2.3-.7-.4.8-.6 1.4-.8 2-.2 1.2-.2 1.8-.1 1.8z"/><path fill="#9A7732" d="M51.3 198.7c6.4 2.4 13.6 2.7 13.6 2.7s-2.7-.9-7.8-5.2c13.8 3.1 31.8-4 44.5-1.3 17.1 3.7 25 23.5 17.4 36.1-10.5 17.3-24.9 18.1-39.5 11.1-16.6-8-25-29.9-25-29.9 4.6 3.5 10.3 4.6 10.3 4.6-6-2.2-10.9-11.7-13.5-18.1z"/><path fill="#9A7732" d="M117.9 235c-.7-2.9 2.8-8.8 5.3-9.8s7.1-.1 9.5 1.1c-2.3 1.8-4.3 2-4.3 2s1 1.2 1.9 3.3c-2.6 1-4.4.3-4.4.3s1.5 1.7 1.8 3.8c-2.5.6-4.1 0-4.1 0s.6 1.3.7 4.1c-2.3-.6-5.6-1.9-6.4-4.8z"/><path fill="#896A2A" d="M116.8 235.9c.7-.2 1.1-.8.9-1.5 0-.2-.1-.4-.1-.7-.2-2.7 3.5-8.4 5.2-8.8.6-.2 1-1 .7-1.6-.2-.6-1-1-1.6-.7-3.3 1.5-6.6 6.9-6.8 11.1 0 .4 0 .8.1 1.3.1.6.6 1 1.2 1 .2 0 .3 0 .4-.1z"/><path fill="#906F2D" d="M118.4 236.7c.7-.2 1.1-.8.9-1.5 0-.2-.1-.4-.1-.7-.2-2.7 3.5-8.4 5.2-8.8.6-.2 1-1 .7-1.6-.2-.6-1-1-1.6-.7-3.3 1.5-6.6 6.9-6.8 11.1 0 .4 0 .8.1 1.3.1.6.6 1 1.2 1 .2-.1.3-.1.4-.1z"/><path fill="#FCDB92" d="M143.6 280.3s35.1-23.6 37.1-30.1c2.2-7.2-17.2-27.5-17.2-27.5l-11 10.6 13 16.3-27.6 22.8"/><path fill="#846248" d="M148.3 298.9s-5.4 5.4-11.9-8c-3.8-7.8-.6-13.8-.6-13.8s-3.2 2.7-3.5 2.6c-.3 0-2.1-2.4-1.9-2.9.2-.5 6.8-4.9 15.6-11.9"/><path fill="#583C27" d="M141.8 269c2.9-3.9 17.6-14.5 17.6-14.5 2.6 5 5.3 7.2 7.5 9 0 0-7 4.9-14.8 12.9-7.8 8 .2 21.8-4.7 23-3 .8-15.5-12.5-5.6-30.4z"/><path fill="#846248" d="M170.2 262.5c-3.9-2.4-8.4-7.9-9.4-11.4-.2-.5-9.4 5.6-9.2 6.4.6 2.9 5.8 10.5 10.4 12.9 1 .5 8.7-7.6 8.2-7.9z"/><path fill="#EBC882" d="M167.2 154.5c1.6-1.7 3.6-3.3 6-4.6l1.6-6.9 5.5.7-1.4 7c1.5 2.5 2.6 5 3.2 7.5-3.3 1.4-9.1 2.4-14.9-3.7z"/><path fill="#583C27" d="M150.2 197.5c8.7-12.8 5-31.9 16.5-43.9 6.3 6.5 12.6 5.5 16.4 4 4.4 15.8-4.3 31.3-4.7 42.8-.5 13.4 21 39.2 21 39.2s-9.4-2.3-23.4 0c-17.2 2.9-21.2 13.6-43.5 6.7-21.5-6.7-21.8-22.6-21.8-22.6s29.5-11.4 39.5-26.2z"/><path fill="#FCDB92" d="M182.7 245.7c-1.4 14.2 14.1 13 15.4 6.5 1.5-8-10.9-9.7-10.9-9.7l-5.6-13.5-7 2.6 8.1 14.1z"/><path fill="#634630" d="M168.7 164.7c-8.3-.2-2.7 44.6-2.6 45.6.1 1.4 4.5 25 9.7 27.2 0 0-1.3 4.2.1 8.6 3-1.7 3.9-5.4 3.9-5.4s1.2 3.3 5.1 3.9c2.1-3.7.3-5.9.3-5.9s2.1 2.2 6.6 1.4c-1.7-3.3-5.2-5.8-5.2-5.8.9-7.8-11.6-23.5-12-25.2-.8-2.5-.1-44.3-5.9-44.4z"/><path fill="#7F5B27" d="M158 130.5c8.2 9.3-.1 19.3-7.3 15.1 3.8 7.8-4.1 15.5-10.1 12 5.3 5.4-.2 11.5-5.1 8.2 3.9 5.9-3 10.6-6.9 7-2.5 9.1-15.7 3.3-11.8-3.4-8-1.8-5.7-10.8-.5-10.4-5-3.8-3.1-13.7 5.3-13.4-5.9-4.5-7.3-28.7 16.5-26.1 4.4.6 17.7 8.5 19.9 11zm39.1-9.1c-9.2 8.4-2 19.2 5.6 15.8-4.6 7.4 2.4 15.8 8.7 13-5.9 4.8-1.1 11.5 4.2 8.7-4.5 5.5 1.8 10.9 6.1 7.7 1.5 9.3 15.2 5 12.1-2.1 8.1-1 6.8-10.1 1.6-10.3 5.4-3.2 4.6-13.3-3.9-13.9 6.4-3.8 10.4-27.8-13.6-27.7-4.3.1-18.3 6.6-20.8 8.8z"/><path fill="#F5D288" d="M127.2 101.2c-28.5-6-18 42.1 9.3 21.6m92.9-37.2c26.6-11.7 26.2 37.5-4.6 23"/><path fill="#FCDB92" d="M226.4 64.4c17.7 37 7.5 76.7-41 81-37.8 3.4-67.1-21.5-58.6-69.2 8-44 81.3-50 99.6-11.8z"/><path fill="#7F5B27" d="M126.5 104.8c-1.6-8.3-1.5-17.8.4-28.5 4.7-26.1 32.2-38.8 57.7-37 17.7 1.3 34.3 9.5 41.8 25.1 1.7 3.7 3.2 7.3 4.4 11-6.6-.8-23.8-4-40.6-16.1.9 12.7-1.2 28.5-21.8 36 3.1-3.1 4.9-7.2 5.9-11.5-3.1 6.4-8.9 12.5-19.6 15.2 4.3-3.6 6.6-9.1 7.8-14.6-2.8 7.1-8.6 14.3-20.5 17.4 4.7-3.9 7-10.2 8.1-16.1 0 .1-5.5 11.4-23.6 19.1z"/><path fill="#664719" d="M202.4 106.4c.4 5 4.5 8.7 9.1 8.4 4.6-.4 8.1-4.7 7.7-9.7-.4-5-4.5-8.7-9.1-8.4-4.6.4-8 4.7-7.7 9.7z"/><circle transform="rotate(-4.405 212.563 104.32)" fill="#FFF" cx="212.6" cy="104.3" r="3.1"/><path fill="#664719" d="M158.4 111.2c.4 5 4.5 8.7 9.1 8.4 4.6-.4 8.1-4.7 7.7-9.7-.4-5-4.5-8.7-9.1-8.4-4.7.3-8.1 4.7-7.7 9.7z"/><path fill="#FFF" d="M166.1 109c.1 1.7 1.6 3 3.3 2.9 1.7-.1 3-1.6 2.9-3.4-.1-1.7-1.6-3-3.4-2.9-1.6.2-2.9 1.7-2.8 3.4z"/><path fill="#EF8F81" d="M179.8 129.2c6.2.6 15.7-.3 19.8-1.8-.3 9.5-15.9 12.2-19.8 1.8z"/><path fill="#1E1108" d="M169.7 165.6c2.4 2.6-32.5 31.7-44.1 52.7-12.4 22.5-12.4 46.8-12.4 46.8l-22.9-30.6s6.7-13.4 17.2-23.4c22.6-21.6 45.7-45.6 45.7-45.6s-4.6-9.4-7-20.7c0 0 5.7 1.3 17.7 1.5-.1.1 1.2 14.4 5.8 19.3z"/><path fill="#EFA617" d="M181 160.3c-2.5 15-3.4 30.1-3.4 30.1s-2.6-2-4.5-1.2c-2 .8-3.3-1-4.4-1.4-1.2-.5-3.3.7-3.3.7 3.4-8.3 8.2-23.2 12.1-27.5m6.8.7c3.1 4.2 6.1 18.3 8.3 26.1 0 0-1.8-1.2-2.9-.9-1 .3-2.4 1.9-4.1 1-1.6-.9-4.2.8-4.2.8s.6-14.1-.1-27.9"/><path fill="#F5AB18" d="M180.3 158.1s-10.3-6.4-21.3-2.8c-2.1.7 1.3 6.4 1.7 7.9.3 1.2.3 8.3 1.9 8.6 3.3.7 15.8-4.4 18-9.7"/><path fill="#D49412" d="M181 159.9s-9.2 7.3-11.7 3.7c-1.4-2.1 11.7-3.7 11.7-3.7zm-1.3-2.2c-3.2.6-10.8 1.4-21.4-1.6.1-.4.3-.7.6-.8 9.6-3.2 18.6 1.2 20.8 2.4z"/><path fill="#F5AB18" d="M181.9 158s7.8-7.9 17.6-6.9c2.2.2.7 7.5.6 8.8-.1 1.1.7 6.5-.5 7.1-2.7 1.1-14.6-1.1-17.3-5.5"/><path fill="#D49412" d="M181.8 159.5c3.3 1 12.1-.4 11.5.8-.6 1.2-5.7 3.4-11.5-.6m17.8-8.6c.1 0 .2.1.4.1.4.9-1.2 2.7-8.1 5-4.6 1.5-7.6 1.7-9.6 1.5 1.4-1.3 8.5-7.4 17.3-6.6z"/><path fill="#F9BF11" d="M183.4 157.6c.2.4-.3 4.1-.6 4.3-.3.2-2 .3-2.3.1-.3-.2-1.1-4.1-.9-4.5.1-.2 3.6-.4 3.8.1z"/><path fill="#1E1108" d="M91 2.4c9.8-5.7 39.6-2.4 74.6 23.2C192.5 12.2 217 10 200.4 42.4c-14.8 28.8-54.4 58-79.9 64.7-35.9 9.5-34.2-2.8-15.5-32.5-3.6-6.9-12.3-23.8-15.5-34.5 0 0-23.5 16.9-27.4 14C58.9 51.7 80.3 8.7 91 2.4z"/><path fill="#F5AB18" d="M106.4 77.9c-1.6-.7-9.5-17.6-9.5-18.7 0-1 16.4-1.1 34.4-14.8 17.4-13.3 19.8-28 20.8-28 1.4 0 15.8 9.7 16.3 10.8.5 1.2 2.4 15.2-25.1 35.3-23.7 17.4-35.4 16-36.9 15.4z"/></svg>