<?xml version="1.0" encoding="utf-8"?>
<!-- Uploaded to: SVG Repo, www.svgrepo.com, Generator: SVG Repo Mixer Tools -->
<svg width="800px" height="800px" viewBox="0 0 1024 1024" class="icon"  version="1.1" xmlns="http://www.w3.org/2000/svg"><path d="M236.817859 570.719399s-189.157956-264.828194 33.831123-475.893478c69.708341 69.708341 87.629311 87.664588 87.629311 87.664588l171.272263-163.299549 157.337652 169.261446 91.615668-95.566748s226.975437 201.117029 15.910152 503.762704" fill="#EC9B2E" /><path d="M781.961071 727.06928m-90.592621 0a90.592621 90.592621 0 1 0 181.185241 0 90.592621 90.592621 0 1 0-181.185241 0Z" fill="#FAE2DD" /><path d="M232.337617 727.06928m-90.592621 0a90.592621 90.592621 0 1 0 181.185241 0 90.592621 90.592621 0 1 0-181.185241 0Z" fill="#FAE2DD" /><path d="M515.122059 701.069763m-303.739277 0a303.739277 303.739277 0 1 0 607.478554 0 303.739277 303.739277 0 1 0-607.478554 0Z" fill="#FAE2DD" /><path d="M400.399628 665.298377m-95.566748 0a95.566748 95.566748 0 1 0 191.133496 0 95.566748 95.566748 0 1 0-191.133496 0Z" fill="#230E04" /><path d="M638.31109 665.298377m-95.566749 0a95.566748 95.566748 0 1 0 191.133497 0 95.566748 95.566748 0 1 0-191.133497 0Z" fill="#230E04" /><path d="M445.166776 654.715127h143.367761v15.592655h-143.367761z" fill="#230E04" /></svg>