<?xml version="1.0" encoding="utf-8"?>
<!-- Uploaded to: SVG Repo, www.svgrepo.com, Generator: SVG Repo Mixer Tools -->
<svg width="800px" height="800px" viewBox="0 0 1024 1024" class="icon"  version="1.1" xmlns="http://www.w3.org/2000/svg"><path d="M871.072036 571.601337m-120.260998 0a120.260998 120.260998 0 1 0 240.521997 0 120.260998 120.260998 0 1 0-240.521997 0Z" fill="#FAE2DD" /><path d="M855.091329 959.018845H178.680539c-0.98777 0-1.763875-0.811383-1.763875-1.763875V66.709753c0-0.98777 0.811383-1.763875 1.763875-1.763875H855.126606c0.98777 0 1.763875 0.811383 1.763875 1.763875v890.545217c-0.035278 0.98777-0.811383 1.763875-1.799152 1.763875z" fill="#EF982D" /><path d="M141.568609 571.601337m-120.260999 0a120.260998 120.260998 0 1 0 240.521997 0 120.260998 120.260998 0 1 0-240.521997 0Z" fill="#FAE2DD" /><path d="M516.885934 537.099941m-403.186551 0a403.18655 403.18655 0 1 0 806.373101 0 403.18655 403.18655 0 1 0-806.373101 0Z" fill="#FAE2DD" /><path d="M533.924966 705.33834c-29.35088 0-53.127915 23.777035-53.127915 53.127916 0 29.35088 23.777035 53.127915 53.127915 53.127915 29.35088 0 53.127915-23.777035 53.127916-53.127915 0-29.315603-23.777035-53.127915-53.127916-53.127916z m0 70.166948c-9.419093 0-17.039033-7.61994-17.039032-17.039032 0-9.419093 7.61994-17.039033 17.039032-17.039033 9.419093 0 17.039033 7.61994 17.039033 17.039033 0 9.419093-7.61994 17.039033-17.039033 17.039032z" fill="#8A3F37" /><path d="M175.999449 332.34933a340.710097 249.553037 0 1 0 681.420195 0 340.710097 249.553037 0 1 0-681.420195 0Z" fill="#EF982D" /></svg>