<svg xmlns="http://www.w3.org/2000/svg" viewBox="0 0 300 300"><path fill="#3C1000" d="M232.6 0c-21.1 0-39.3 13.6-45.7 33.1-12.9-4.8-26.5-7-40.3-6.5-11.5.4-22.7 2.7-33.3 6.8C107 13.7 88.8 0 67.4 0 40.9 0 19.3 21.6 19.3 48.1c0 21.2 13.9 39.8 34 46-4.6 12.5-6.8 26-6.2 39.3.8 20.5 11.5 37.9 30.9 50.9-1.4.6-2.7 1.4-3.8 2.5-1.5 1.5-2.5 3.2-3.1 5.1-3.5 1-6.3 2.8-8.4 5.4-2 2.6-4 7.1-2.3 13.8 2.8 10.7 12.3 18.2 23.3 18.2 8.3 0 15.9-4.2 21.2-11.9.5-.8 1.4-2 6.2-2.2-2.8 8.5-4.3 17-4.3 24 0 5.6 1 10.6 3 14.8h-1.2c-8.8 0-15.4 5.6-17.9 15.3-2.9 11.3-3.9 18.4-.4 23.6 2.9 4.4 7.5 5.1 9.7 5.4.5.1 1.1.2 1.3.2 2 .7 5.1 1.4 14.4 1.4 10.6 0 23.9-.9 24-.9 1.8-.1 3.5-.8 4.9-1.9 1-.8 4.2-3.7 5.6-9.3 1.5 5.6 4.6 8.5 5.6 9.3 1.4 1.1 3.1 1.8 4.8 1.9.1 0 13.5.9 24.1.9 9.3 0 12.4-.7 14.4-1.4.2-.1.8-.2 1.3-.2 2.2-.3 6.8-1 9.7-5.4 3.4-5.2 2.5-12.3-.4-23.6-2.1-8-6.8-13.2-13.3-14.8 2.1-4.3 3.1-9.4 3.1-15.3 0-5.5-.9-12-2.7-18.6 3.2.6 4.1 1.4 4.6 2.7 4.1 10.8 13.1 17.5 23.5 17.5 8.9 0 17-4.8 21.2-12.6 3.8-7 2-12.4.6-15-1.4-2.5-3.4-4.6-6.2-6.2-.1-2-.7-3.9-1.7-5.7-2.1-3.5-5.7-5.5-9.8-5.5-3.8 0-7.4 1.7-10.1 3.5-2.3-.1-7-.8-15.9-4.3 10.8-5 22.8-12.2 32.5-22.3 13-13.6 19.2-29.5 18.5-47.3-.4-10.7-2.5-21.2-6.1-31.2 1.1-.5 2.2-1.1 3.2-1.7 18-7.5 29.6-24.9 29.6-44.4 0-26.5-21.6-48.1-48.1-48.1z"/><path fill="#3C1000" d="M254.3 279.9c-7.8 0-17.5-2.8-28.1-12.1-23.4-20.6-40.9-15.5-41.6-15.3-1.5.5-3.1-.4-3.6-1.9s.3-3.1 1.9-3.6c.9-.3 21.1-6.5 47.2 16.5 22.8 20 39.4 6.1 40.1 5.5 1.2-1 3-.9 4.1.3 1 1.2.9 3-.3 4.1-.2 0-7.8 6.5-19.7 6.5z"/><path fill="#C0C1C1" d="M227.4 212s6.2-2.4 3.9-6.2c-2.3-3.8-9.2 2-9.2 2-10.9 2.6-39.4-11.9-49.7-17.4-5.6-6.7-12.2-11.1-19.2-11.1-8.6 0-16.5 6.6-22.8 15.9-14.1 3-34.1 6.1-41.7 2.2 0 0-5.4-7.3-8.5-4.2-3.1 3.1 2.3 7 2.3 7s-16.8-2.9-13.8 9c3.1 11.9 19.4 17.3 29 3.5 5.3-7.6 15.6-5.9 25.8-5.4-5.1 11-8.1 23.2-8.1 32.2 0 13.6 6.9 19.5 17.2 22 1.1 6.3 1.9 13.8.1 13.3-3.1-.8-28.3-24.3-33.8-3.1-5.5 21.2-.4 16.9 5.1 18.9s34.9 0 34.9 0 2-1.6 2.8-5.1c.6-2.8.3-17 .2-22.5 3.5.3 7.2.4 11.1.4 1.7 0 3.4 0 5.1-.1-.2 6.8-.4 19.7.2 22.2.8 3.5 2.7 5.1 2.7 5.1s29.5 2 34.9 0c5.5-2 10.6 2.4 5.1-18.9-5.5-21.2-30.6 2.4-33.8 3.1-1.7.4-1-6.2-.1-12.2 13.7-1.6 23.4-7 23.4-23.1 0-8.1-2.5-18.8-6.6-28.9 10.1 1.7 21.6 0 25.3 9.9 5.9 15.7 23.1 14.5 29 3.8 6.2-11-10.8-12.3-10.8-12.3z"/><path fill="#3C1000" d="M184.7 294.2c-10.3 0-23.5-.9-23.6-.9-.6 0-1.2-.3-1.6-.6-.3-.2-2.8-2.3-3.8-6.7-.4-2-.6-8.7-.3-19.9h-2.2c-3.1 0-5.7-.1-8.1-.2.2 8.3.3 17.5-.3 20.1-1 4.4-3.5 6.5-3.8 6.7-.5.4-1 .6-1.6.6-.1 0-13.3.9-23.6.9-8.6 0-11.2-.6-12.5-1-.8-.3-1.6-.4-2.4-.5-1.9-.3-4.2-.6-5.7-2.9-1.9-2.9-1.6-8 1.2-18.9 2.4-9.1 8-11 12.3-11 7.7 0 16.7 6.3 22 10 .1.1.3.2.4.3-.1-1.4-.3-3.5-.8-6.4-11.8-3.5-17.6-11.5-17.6-24.4 0-8.5 2.5-19.3 6.7-29.6-2.3-.2-4.6-.3-6.7-.3-6.5 0-10.1 1.4-12.4 4.7-4.2 6.1-10.1 9.4-16.5 9.4-8.3 0-15.6-5.7-17.7-13.8-.9-3.6-.5-6.5 1.3-8.8 1.9-2.4 5-3.8 9.4-4-.1-.4-.2-.8-.2-1.2-.1-1.7.5-3.3 1.8-4.6 1.1-1 2.4-1.6 3.8-1.6 3.7 0 7.1 3.7 8.5 5.5 1.5.6 4.2 1.3 9.3 1.3 8.8 0 20.3-2 28.8-3.7 7.5-10.6 16-16.2 24.5-16.2 7.2 0 14.5 4 21.1 11.7 8.2 4.4 33.2 17.1 44.9 17.1.6 0 1.2 0 1.7-.1 1.5-1.1 4.9-3.4 8.1-3.4 2.1 0 3.8.9 4.8 2.7 1 1.6 1.2 3.3.6 4.9-.1.4-.3.8-.5 1.1 3 1 6.2 2.7 7.7 5.6 1 1.9 1.8 5.1-.6 9.5-3.2 5.9-9.4 9.6-16.2 9.6-8.1 0-14.8-5.1-18-13.7-2.1-5.7-7.5-6.5-16-7.2-.7-.1-1.4-.1-2.2-.2 3.3 9 5.1 18.1 5.1 25.4 0 19.2-12.9 24.1-23.7 25.7-.3 2.2-.5 3.9-.6 5.1.1-.1.3-.2.4-.3 5.3-3.7 14.3-10 22-10 4.3 0 9.9 1.9 12.3 11 2.8 10.9 3.2 16 1.2 18.9-1.5 2.3-3.9 2.6-5.7 2.9-.9.1-1.7.2-2.4.5-1.4.3-4.1.9-12.6.9zm-22.1-6.6c3.4.2 13.7.8 22.1.8 7.7 0 9.9-.5 10.5-.7 1.3-.5 2.5-.6 3.5-.8.6-.1 1.6-.2 1.8-.4.3-.4 1-2.6-2-14.2-1.5-5.9-4.4-6.7-6.7-6.7-5.9 0-14.2 5.8-18.7 8.9-2.7 1.9-3.8 2.7-4.9 2.9-.2.1-.6.1-.9.1-1 0-2-.4-2.6-1.2-1.1-1.3-1.9-3.4-.2-14.4.2-1.3 1.2-2.3 2.5-2.4 14.8-1.8 20.8-7.6 20.8-20.3 0-7.7-2.4-18.1-6.4-27.8-.4-1-.2-2.1.4-2.9.7-.8 1.7-1.2 2.7-1.1 2.1.4 4.4.6 6.6.8 8.2.7 17.4 1.6 20.9 10.9 2.4 6.3 7 10 12.6 10 4.6 0 8.9-2.5 11.1-6.6 1.4-2.5.8-3.6.6-3.9-1.3-2.5-6.9-3.7-9.4-3.9-1.3-.1-2.4-1.1-2.6-2.5-.2-1.3.5-2.6 1.8-3.1s2.5-1.5 2.6-1.9c-1.2 0-3.7 1.5-5 2.6-.3.3-.7.5-1.2.6-1.1.3-2.3.4-3.6.4-12.9 0-38-12.7-48.1-18.1-.3-.2-.6-.4-.9-.7-3.9-4.6-10-10.1-17-10.1-8.6 0-15.9 7.9-20.4 14.6-.4.6-1.1 1-1.8 1.2-8.9 1.9-21.4 4.1-31.1 4.1-5.6 0-9.7-.7-12.5-2.2-.4-.2-.7-.5-1-.8-1.4-1.9-3.5-3.7-4.4-3.8.1.5 1.2 1.8 2.2 2.5 1.1.8 1.5 2.2 1 3.5-.5 1.2-1.8 2-3.2 1.7 0 0-1.6-.3-3.7-.3-3.2 0-5.6.7-6.5 1.9-.6.8-.7 2.1-.3 3.8 1.4 5.5 6.5 9.5 12.1 9.5 4.4 0 8.6-2.5 11.7-6.9 4.4-6.3 11.5-7.2 17.2-7.2 2.5 0 5.1.2 7.6.3 1.2.1 2.4.2 3.6.2 1 0 1.8.6 2.3 1.4.5.8.6 1.8.2 2.7-4.8 10.5-7.8 22.4-7.8 31 0 10.9 4.5 16.7 15 19.2 1.1.3 2 1.2 2.2 2.3 2 12 1.2 14.2 0 15.5-.7.8-1.6 1.2-2.6 1.2-.2 0-.6 0-.9-.1-1.1-.3-2.2-1-4.9-2.9-4.5-3.1-12.8-9-18.7-9-2.3 0-5.1.8-6.7 6.7-3 11.7-2.3 13.9-2 14.2.2.1 1.1.3 1.8.4 1 .1 2.2.3 3.5.8.6.2 2.8.7 10.5.7 8.4 0 18.7-.6 22.1-.8.4-.5.9-1.5 1.3-2.9.4-1.7.4-10.3.1-21.8 0-.8.3-1.6.9-2.2.6-.6 1.4-.8 2.2-.8 3.1.2 6.5.4 10.9.4 1.7 0 3.4 0 5-.1.8 0 1.6.3 2.1.8.6.6.9 1.3.9 2.1-.3 14-.1 20.3.1 21.5.7 1.8 1.3 2.8 1.7 3.3z"/><path fill="#C0C1C1" d="M272 48.1c0-21.8-17.7-39.5-39.4-39.5-20.9 0-37.9 16.2-39.3 36.7-13.9-7-29.7-10.7-46.4-10.1-14.5.6-28.1 4.3-40.1 10.6-1.2-20.6-18.3-37.1-39.4-37.1C45.6 8.7 28 26.4 28 48.1c0 18.4 12.6 33.8 29.6 38.2 2.3 1.1 4.8 2 7.4 2.6-6.4 13.4-9.8 28.4-9.2 44.2 2 52 78.3 65.8 97.8 65.6 26.3-.2 93.8-21 91.8-73-.5-13.2-3.7-25.6-9.1-36.8 3.9-.8 7.6-2.2 11-4.2 14.5-5.8 24.7-20 24.7-36.6z"/><path fill="#3C1000" d="M153.2 201.6c-16.1 0-98.1-11.9-100.3-68.4-.6-14.5 2.2-29.2 8-42.5-1.4-.5-2.9-1-4.3-1.7C38 84.1 25.1 67.3 25.1 48.1c0-23.4 19-42.3 42.3-42.3 21 0 38.6 15.4 41.8 35.7 11.8-5.5 24.4-8.5 37.6-9 15.4-.6 30.2 2.3 44.1 8.6 3.4-20.1 21-35.2 41.7-35.2 23.3 0 42.3 19 42.3 42.3 0 17.3-10.4 32.7-26.4 39.2-2.6 1.5-5.4 2.7-8.2 3.6 4.8 11 7.4 22.6 7.9 34.7.6 16.2-5.1 30.7-16.9 43.1-21.4 22.4-58.3 32.7-77.7 32.9l-.4-.1zm-85.8-190c-20.2 0-36.6 16.4-36.6 36.6 0 16.7 11.3 31.2 27.4 35.4.2 0 .4.1.5.2 2.2 1.1 4.5 1.9 6.8 2.3.9.2 1.6.8 2 1.6.4.8.4 1.7 0 2.5-6.4 13.3-9.5 28.1-8.9 42.9 2 51.3 80.2 62.9 94.6 62.9h.3c18.4-.2 53.4-9.9 73.6-31.1 10.7-11.3 15.9-24.3 15.3-38.9-.5-12.5-3.4-24.4-8.8-35.6-.4-.8-.4-1.8 0-2.6s1.2-1.4 2-1.5c3.5-.7 6.9-2 10.1-3.9.1-.1.3-.1.4-.2 14-5.6 23-18.9 23-33.9 0-20.2-16.4-36.6-36.6-36.6-19.1 0-35.1 14.9-36.4 34-.1 1-.6 1.8-1.5 2.3-.8.5-1.9.5-2.7.1-14.1-7.1-29.2-10.4-45-9.7-13.7.5-26.8 4-38.9 10.2-.9.5-1.9.4-2.8-.1-.9-.5-1.4-1.4-1.5-2.4-.9-19.4-16.9-34.5-36.3-34.5z"/><path fill="#3C1000" d="M205.9 123.8c.3 7.2-5.3 13.3-12.6 13.6-7.2.3-13.3-5.3-13.6-12.6-.3-7.2 5.4-13.3 12.6-13.6 7.2-.3 13.3 5.4 13.6 12.6z"/><circle transform="matrix(.9993 -.03859 .03859 .9993 -4.84 4.298)" fill="#3C1000" cx="108.9" cy="127.5" r="13.1"/><circle transform="rotate(-87.564 91.083 157.814)" fill="#F9D3C1" cx="91.1" cy="157.8" r="12.7"/><path fill="#F9D3C1" d="M227.1 153.5c-.3 7-6.2 12.5-13.2 12.2-7-.3-12.4-6.2-12.1-13.3.3-7 6.2-12.5 13.2-12.2 7 .3 12.4 6.2 12.1 13.3z"/><circle transform="matrix(.9993 -.03855 .03855 .9993 -4.607 7.718)" fill="#FFF" cx="197.8" cy="123.3" r="5.1"/><path fill="#FFF" d="M120.4 126.3c.1 2.8-2.1 5.1-4.9 5.3-2.8.1-5.1-2.1-5.3-4.9-.1-2.8 2.1-5.1 4.9-5.3 2.8 0 5.2 2.1 5.3 4.9z"/><path d="M255.5 159.3s-.1 0 0 0l-41.1-2.1c-.8 0-1.4-.7-1.4-1.5s.6-1.4 1.5-1.4l41 2.1c.8 0 1.4.7 1.4 1.5s-.6 1.4-1.4 1.4zm-8.6 26.8c-.2 0-.4 0-.6-.1l-37.5-15.5c-.7-.3-1.1-1.2-.8-1.9.3-.7 1.2-1.1 1.9-.8l37.5 15.5c.7.3 1.1 1.2.8 1.9-.2.5-.7.9-1.3.9zm-19.8 14.1c-.2 0-.5-.1-.7-.2l-29.3-16.9c-.7-.4-.9-1.3-.5-2s1.3-.9 2-.5l29.3 16.9c.7.4.9 1.3.5 2-.3.4-.8.7-1.3.7zM47.3 159.3c-.8 0-1.4-.6-1.4-1.4 0-.8.6-1.5 1.4-1.5l41-2.1c.9 0 1.5.6 1.5 1.4 0 .8-.6 1.5-1.4 1.5l-41.1 2.1zm8.6 26.8c-.6 0-1.1-.3-1.3-.9-.3-.7 0-1.6.8-1.9l37.5-15.5c.7-.3 1.6 0 1.9.8.3.7 0 1.6-.8 1.9L56.4 186c-.1.1-.3.1-.5.1zm19.7 14.1c-.5 0-1-.3-1.3-.7-.4-.7-.2-1.6.5-2l29.3-16.9c.7-.4 1.6-.2 2 .5.4.7.2 1.6-.5 2L76.4 200c-.3.1-.5.2-.8.2z" fill="#3C1000"/><path fill="#4C3E37" d="M166 189.9c.2 4.2-4.8 7.8-11.1 8.1-6.3.2-11.5-3-11.6-7.2-.2-4.2 4.8-7.8 11.1-8.1 6.2-.3 11.4 2.9 11.6 7.2z"/><path fill="#3C1000" d="M154.3 199.3c-6.8 0-12.2-3.8-12.4-8.5-.1-2.5 1.2-4.9 3.7-6.7 2.3-1.7 5.4-2.7 8.7-2.8 7-.3 12.9 3.6 13.1 8.5.1 2.5-1.2 4.9-3.7 6.7-2.3 1.7-5.4 2.7-8.7 2.8h-.7zm.7-15.3h-.6c-2.8.1-5.3.9-7.2 2.3-1.7 1.2-2.6 2.8-2.5 4.4.1 3.2 4.4 5.9 9.6 5.9h.6c2.8-.1 5.3-.9 7.2-2.3 1.7-1.2 2.6-2.8 2.5-4.4-.1-3.2-4.4-5.9-9.6-5.9z"/></svg>