<!--?xml version="1.0" encoding="utf-8"?-->
<!-- Generator: Adobe Illustrator 18.1.1, SVG Export Plug-In . SVG Version: 6.00 Build 0)  -->

<svg version="1.1" id="_x32_" xmlns="http://www.w3.org/2000/svg" xmlns:xlink="http://www.w3.org/1999/xlink" x="0px" y="0px" viewBox="0 0 512 512" style="width: 256px; height: 256px; opacity: 1;" xml:space="preserve">
<style type="text/css">
	.st0{fill:#4B4B4B;}
</style>
<g>
	<path class="st0" d="M275.364,257.414c-18.52-10.719-42.23-4.359-52.938,14.179c-10.699,18.539-4.348,42.242,14.192,52.946
		c18.539,10.687,42.238,4.344,52.949-14.187C300.266,291.821,293.91,268.11,275.364,257.414z" style="fill: rgb(148, 164, 184);"></path>
	<path class="st0" d="M199.145,389.438c11.941,6.898,24.617,11.375,37.457,13.586l30.512-52.843
		c-13.676,2.578-28.297,0.492-41.266-7c-9.5-5.469-16.934-13.188-22.039-22.07l-0.024,0.008l-48.18-83.446
		C126.989,291.492,145.938,358.719,199.145,389.438z" style="fill: rgb(148, 164, 184);"></path>
	<path class="st0" d="M203.785,260.836c11.129-19.297,31.391-30.094,52.199-30.125v-0.031h96.402
		c-9.547-15.282-22.848-28.531-39.543-38.172c-48.66-28.094-109.43-16.11-144.176,25.687l30.461,52.758
		C200.352,267.492,201.879,264.11,203.785,260.836z" style="fill: rgb(148, 164, 184);"></path>
	<path class="st0" d="M308.207,321.118l-48.188,83.461c37.824-1.383,74.114-21.562,94.438-56.758
		c17.543-30.391,19.449-65.531,8.235-96.094h-60.934C317.922,270.618,321.32,298.398,308.207,321.118z" style="fill: rgb(148, 164, 184);"></path>
	<path class="st0" d="M464,0H48C21.493,0,0,21.492,0,48v416c0,26.508,21.493,48,48,48h416c26.508,0,48-21.492,48-48V48
		C512,21.492,490.508,0,464,0z M444.664,35c10.493,0,19,8.508,19,19s-8.507,19-19,19c-10.492,0-19-8.508-19-19
		S434.172,35,444.664,35z M374.164,35c10.493,0,19,8.508,19,19s-8.507,19-19,19c-10.492,0-19-8.508-19-19S363.672,35,374.164,35z
		 M303.664,35c10.492,0,19,8.508,19,19s-8.508,19-19,19c-10.492,0-19-8.508-19-19S293.172,35,303.664,35z M472,464
		c0,4.406-3.586,8-8,8H48c-4.414,0-8-3.594-8-8V104h432V464z" style="fill: rgb(148, 164, 184);"></path>
</g>
</svg>
